<svg width="21" height="19" viewBox="0 0 21 19" fill="none" xmlns="http://www.w3.org/2000/svg">
<path fill-rule="evenodd" clip-rule="evenodd" d="M10.1197 1.36441C8.88635 0.520001 7.43693 0.0465276 5.94293 0C3.01918 0 0.735889 2.03271 0.151131 5.17921C-0.684218 9.49522 1.87753 15.2035 9.47926 18.2108C9.89859 18.3825 10.3687 18.3825 10.788 18.2108C18.3619 15.1478 20.8958 9.43954 20.0883 5.17921C19.4478 2.06055 17.1924 0.0278395 14.2686 0.0278395C12.7872 0.0728999 11.3488 0.536268 10.1197 1.36441V1.36441ZM5.94293 2.2276C7.0289 2.2276 8.25408 2.70097 9.45143 3.592C9.84745 3.88903 10.392 3.88903 10.788 3.592C11.9853 2.70097 13.2105 2.2276 14.2686 2.2276C16.0785 2.2276 17.4708 3.50847 17.8885 5.56902C18.5289 8.96613 16.3849 13.477 10.1197 16.0945C3.85455 13.5327 1.68264 8.99397 2.32308 5.59686C2.7129 3.50847 4.10516 2.2276 5.94293 2.2276V2.2276Z" fill="#BBBBBB"/>
</svg>
