<svg width="19" height="20" viewBox="0 0 19 20" fill="none" xmlns="http://www.w3.org/2000/svg">
<path fill-rule="evenodd" clip-rule="evenodd" d="M16.777 9.31135C16.9594 9.51644 17.0602 9.78142 17.0601 10.0559V15.9278C17.0587 17.1651 16.056 18.1677 14.8187 18.1691H11.4567V14.8071C11.4567 13.5693 10.4532 12.5658 9.21536 12.5658C7.9775 12.5658 6.97402 13.5693 6.97402 14.8071V18.1691H3.61201C2.37472 18.1677 1.37206 17.1651 1.37067 15.9278V10.0559C1.37057 9.78142 1.4713 9.51646 1.65373 9.31137L8.37777 1.74683C8.58932 1.5061 8.89488 1.36889 9.21536 1.37068C9.53585 1.36887 9.84138 1.50608 10.053 1.74682L16.777 9.31135V9.31135ZM0.816145 8.56679C0.451452 8.97708 0.25 9.50696 0.25 10.0559V15.9278C0.25 17.7846 1.75523 19.2898 3.61201 19.2898H6.97402C7.59295 19.2898 8.09469 18.7881 8.09469 18.1691V14.8071C8.09469 14.1882 8.59643 13.6864 9.21536 13.6864C9.8343 13.6864 10.336 14.1882 10.336 14.8071V18.1691C10.336 18.7881 10.8378 19.2898 11.4567 19.2898H14.8187C16.6755 19.2898 18.1807 17.7846 18.1807 15.9278V10.0559C18.1807 9.50696 17.9793 8.9771 17.6146 8.56681L10.8906 1.00228C10.4659 0.522802 9.85583 0.24882 9.21536 0.25C8.57489 0.2488 7.96478 0.522783 7.54017 1.00226L0.816145 8.56679V8.56679Z" fill="#20D0C4"/>
<path d="M17.0601 10.0559L16.8101 10.0558V10.0559H17.0601ZM17.0601 15.9278L17.3101 15.9281V15.9278H17.0601ZM14.8187 18.1691L14.8187 18.4191L14.819 18.4191L14.8187 18.1691ZM11.4567 18.1691H11.2067V18.4191H11.4567V18.1691ZM6.97402 18.1691V18.4191H7.22402V18.1691H6.97402ZM3.61201 18.1691L3.61172 18.4191H3.61201V18.1691ZM1.37067 15.9278L1.12067 15.9278L1.12067 15.9281L1.37067 15.9278ZM1.37067 10.0559L1.62067 10.0559L1.62067 10.0558L1.37067 10.0559ZM1.65373 9.31137L1.84053 9.47752L1.84059 9.47746L1.65373 9.31137ZM8.37777 1.74683L8.56462 1.91293L8.56556 1.91186L8.37777 1.74683ZM9.21536 1.37068L9.21396 1.6207L9.21678 1.62068L9.21536 1.37068ZM10.053 1.74682L9.86519 1.91186L9.86612 1.91291L10.053 1.74682ZM17.6146 8.56681L17.4277 8.7329L17.4277 8.7329L17.6146 8.56681ZM10.8906 1.00228L10.7034 1.16803L10.7037 1.16837L10.8906 1.00228ZM9.21536 0.25L9.21489 0.500001L9.21582 0.5L9.21536 0.25ZM7.54017 1.00226L7.72702 1.16835L7.72733 1.16801L7.54017 1.00226ZM16.777 9.31135L16.5902 9.47751C16.7319 9.6368 16.8101 9.84261 16.8101 10.0558L17.0601 10.0559L17.3101 10.056C17.3102 9.72023 17.187 9.39609 16.9638 9.14519L16.777 9.31135ZM17.0601 10.0559H16.8101V15.9278H17.0601H17.3101V10.0559H17.0601ZM17.0601 15.9278L16.8101 15.9275C16.8088 17.0269 15.9179 17.9179 14.8184 17.9191L14.8187 18.1691L14.819 18.4191C16.1941 18.4176 17.3085 17.3032 17.3101 15.9281L17.0601 15.9278ZM14.8187 18.1691V17.9191H11.4567V18.1691V18.4191H14.8187V18.1691ZM11.4567 18.1691H11.7067V14.8071H11.4567H11.2067V18.1691H11.4567ZM11.4567 14.8071H11.7067C11.7067 13.4312 10.5913 12.3158 9.21536 12.3158V12.5658V12.8158C10.3152 12.8158 11.2067 13.7073 11.2067 14.8071H11.4567ZM9.21536 12.5658V12.3158C7.83943 12.3158 6.72402 13.4312 6.72402 14.8071H6.97402H7.22402C7.22402 13.7073 8.11557 12.8158 9.21536 12.8158V12.5658ZM6.97402 14.8071H6.72402V18.1691H6.97402H7.22402V14.8071H6.97402ZM6.97402 18.1691V17.9191H3.61201V18.1691V18.4191H6.97402V18.1691ZM3.61201 18.1691L3.61229 17.9191C2.51286 17.9179 1.62191 17.0269 1.62067 15.9275L1.37067 15.9278L1.12067 15.9281C1.12222 17.3032 2.23659 18.4176 3.61172 18.4191L3.61201 18.1691ZM1.37067 15.9278H1.62067V10.0559H1.37067H1.12067V15.9278H1.37067ZM1.37067 10.0559L1.62067 10.0558C1.62059 9.84262 1.69883 9.63682 1.84053 9.47752L1.65373 9.31137L1.46694 9.14521C1.24377 9.3961 1.12055 9.72023 1.12067 10.056L1.37067 10.0559ZM1.65373 9.31137L1.84059 9.47746L8.56462 1.91293L8.37777 1.74683L8.19092 1.58074L1.46688 9.14528L1.65373 9.31137ZM8.37777 1.74683L8.56556 1.91186C8.72932 1.72551 8.96586 1.61929 9.21396 1.62068L9.21536 1.37068L9.21676 1.12069C8.82389 1.11848 8.44933 1.28668 8.18998 1.58181L8.37777 1.74683ZM9.21536 1.37068L9.21678 1.62068C9.46486 1.61927 9.70139 1.72549 9.86519 1.91186L10.053 1.74682L10.2408 1.58178C9.98138 1.28667 9.60683 1.11846 9.21395 1.12069L9.21536 1.37068ZM10.053 1.74682L9.86612 1.91291L16.5901 9.47744L16.777 9.31135L16.9638 9.14526L10.2398 1.58073L10.053 1.74682ZM0.816145 8.56679L0.629291 8.4007C0.223919 8.85676 0 9.44573 0 10.0559H0.25H0.5C0.5 9.56818 0.678984 9.0974 1.003 8.73288L0.816145 8.56679ZM0.25 10.0559H0V15.9278H0.25H0.5V10.0559H0.25ZM0.25 15.9278H0C0 17.9226 1.61716 19.5398 3.61201 19.5398V19.2898V19.0398C1.8933 19.0398 0.5 17.6465 0.5 15.9278H0.25ZM3.61201 19.2898V19.5398H6.97402V19.2898V19.0398H3.61201V19.2898ZM6.97402 19.2898V19.5398C7.73102 19.5398 8.34469 18.9261 8.34469 18.1691H8.09469H7.84469C7.84469 18.65 7.45488 19.0398 6.97402 19.0398V19.2898ZM8.09469 18.1691H8.34469V14.8071H8.09469H7.84469V18.1691H8.09469ZM8.09469 14.8071H8.34469C8.34469 14.3262 8.7345 13.9364 9.21536 13.9364V13.6864V13.4364C8.45836 13.4364 7.84469 14.0501 7.84469 14.8071H8.09469ZM9.21536 13.6864V13.9364C9.69623 13.9364 10.086 14.3262 10.086 14.8071H10.336H10.586C10.586 14.0501 9.97237 13.4364 9.21536 13.4364V13.6864ZM10.336 14.8071H10.086V18.1691H10.336H10.586V14.8071H10.336ZM10.336 18.1691H10.086C10.086 18.9261 10.6997 19.5398 11.4567 19.5398V19.2898V19.0398C10.9758 19.0398 10.586 18.65 10.586 18.1691H10.336ZM11.4567 19.2898V19.5398H14.8187V19.2898V19.0398H11.4567V19.2898ZM14.8187 19.2898V19.5398C16.8136 19.5398 18.4307 17.9226 18.4307 15.9278H18.1807H17.9307C17.9307 17.6465 16.5374 19.0398 14.8187 19.0398V19.2898ZM18.1807 15.9278H18.4307V10.0559H18.1807H17.9307V15.9278H18.1807ZM18.1807 10.0559H18.4307C18.4307 9.44573 18.2068 8.85677 17.8014 8.40072L17.6146 8.56681L17.4277 8.7329C17.7517 9.09743 17.9307 9.56819 17.9307 10.0559H18.1807ZM17.6146 8.56681L17.8014 8.40072L11.0774 0.836191L10.8906 1.00228L10.7037 1.16837L17.4277 8.7329L17.6146 8.56681ZM10.8906 1.00228L11.0777 0.836537C10.6055 0.303356 9.9271 -0.00131225 9.2149 4.24642e-07L9.21536 0.25L9.21582 0.5C9.78456 0.498951 10.3263 0.742248 10.7034 1.16803L10.8906 1.00228ZM9.21536 0.25L9.21583 4.3845e-07C8.50363 -0.00133342 7.82518 0.303338 7.35301 0.836517L7.54017 1.00226L7.72733 1.16801C8.10439 0.742229 8.64616 0.498934 9.21489 0.5L9.21536 0.25ZM7.54017 1.00226L7.35331 0.836171L0.629292 8.4007L0.816145 8.56679L1.003 8.73288L7.72702 1.16835L7.54017 1.00226Z" fill="#20D0C4"/>
</svg>
