<svg width="20" height="20" viewBox="0 0 20 20" fill="none" xmlns="http://www.w3.org/2000/svg">
<path fill-rule="evenodd" clip-rule="evenodd" d="M17.1314 0H2.05576C1.76068 -7.67485e-05 1.4987 0.188744 1.40547 0.468722L0.0349397 4.58026C0.0138147 4.64426 0.00201464 4.71094 0 4.77829V5.48205C0.00249432 6.55571 0.510203 7.5656 1.37049 8.20799V17.1314C1.37049 18.2667 2.29088 19.1871 3.42625 19.1871H15.7608C16.8962 19.1871 17.8166 18.2667 17.8166 17.1314V8.22305C18.6769 7.58066 19.1846 6.55571 19.1871 5.48205V4.7968C19.1851 4.72942 19.1733 4.64423 19.1521 4.58026L17.7816 0.468722C17.6884 0.188744 17.4264 -7.67485e-05 17.1314 0V0ZM17.5513 4.11151H14.3903V1.37048H16.6372L17.5513 4.11151V4.11151Z" fill="#BBBBBB"/>
<path fill-rule="evenodd" clip-rule="evenodd" d="M13.0198 4.11151H10.2788V1.37048H13.0198V4.11151V4.11151Z" fill="#BBBBBB"/>
<path fill-rule="evenodd" clip-rule="evenodd" d="M8.90839 4.11151H6.16736V1.37048H8.90839V4.11151V4.11151Z" fill="#BBBBBB"/>
<path fill-rule="evenodd" clip-rule="evenodd" d="M4.79681 4.11151H1.63568L2.54982 1.37048H4.79681V4.11151V4.11151Z" fill="#BBBBBB"/>
<path fill-rule="evenodd" clip-rule="evenodd" d="M8.22302 12.3345H10.9641V17.8166H8.22302V12.3345V12.3345ZM12.3345 17.8167V11.6494C12.3345 11.2709 12.0277 10.9641 11.6493 10.9641H7.53774C7.15928 10.9641 6.85248 11.2709 6.85248 11.6494V17.8167H3.42623C3.04777 17.8167 2.74097 17.5098 2.74097 17.1314V8.83981C3.70264 9.03724 4.70264 8.80773 5.482 8.21075C6.70524 9.10918 8.37025 9.10918 9.59351 8.21075C10.8168 9.10918 12.4818 9.10918 13.705 8.21075C14.4844 8.80777 15.4844 9.03724 16.446 8.83981V17.1314C16.446 17.5098 16.1392 17.8167 15.7608 17.8167H12.3345V17.8167Z" fill="#BBBBBB"/>
<path fill-rule="evenodd" clip-rule="evenodd" d="M13.2542 6.7614C12.4922 7.61182 11.1201 7.74858 10.2697 6.98665C10.2134 6.93622 10.16 6.88278 10.1095 6.82649C9.84135 6.54153 9.39294 6.52788 9.10795 6.79609C8.34603 7.64651 7.00857 7.74858 6.15816 6.98665C6.10186 6.93622 6.04843 6.88278 5.99801 6.82649C5.72982 6.54153 5.28137 6.52788 4.99642 6.79609C4.61196 7.24708 4.01888 7.53742 3.42625 7.53778C2.29087 7.53778 1.37048 6.61737 1.37048 5.48199H17.8166C17.8166 6.61737 16.8962 7.53778 15.7608 7.53778C15.1682 7.53742 14.6055 7.27748 14.2211 6.82649C13.972 6.54153 13.5391 6.51238 13.2542 6.7614V6.7614Z" fill="#BBBBBB"/>
</svg>
