<svg width="20" height="23" viewBox="0 0 20 23" fill="none" xmlns="http://www.w3.org/2000/svg">
<path fill-rule="evenodd" clip-rule="evenodd" d="M17.2411 9.72076V13.9467C18.4703 14.0409 19.4421 15.0698 19.4421 16.324C19.4421 17.6402 18.372 18.7084 17.054 18.7084H2.38803C1.06931 18.7084 0 17.6415 0 16.324C0 15.0702 0.970199 14.0408 2.201 13.9466V9.72076C2.201 6.65783 4.04747 3.95303 6.78958 2.79356C6.86185 1.23889 8.14851 1.52588e-05 9.72104 1.52588e-05C11.2948 1.52588e-05 12.5803 1.23924 12.6525 2.79367C15.3946 3.95325 17.2411 6.65849 17.2411 9.72076V9.72076ZM4.03522 14.1224C4.03522 15.0338 3.29573 15.7738 2.38525 15.7738C2.08155 15.7738 1.83423 16.0212 1.83423 16.324C1.83423 16.6276 2.08143 16.8743 2.38811 16.8743H17.0541C17.3598 16.8743 17.608 16.6265 17.608 16.324C17.608 16.0216 17.3597 15.7738 17.0569 15.7738C16.1449 15.7738 15.407 15.0362 15.407 14.1224V9.72077C15.407 7.231 13.7924 5.05306 11.4588 4.30524L10.8216 4.10106V2.93155C10.8216 2.32663 10.3286 1.83418 9.7211 1.83418C9.11433 1.83418 8.6206 2.32676 8.6206 2.93155V4.10103L7.98334 4.30519C5.64964 5.05294 4.03522 7.23039 4.03522 9.72077V14.1224V14.1224Z" fill="#20D0C4"/>
<path fill-rule="evenodd" clip-rule="evenodd" d="M9.7211 20.3592C10.6328 20.3592 11.3718 19.6201 11.3718 18.7084H13.206C13.206 20.6331 11.6458 22.1933 9.7211 22.1933C7.79645 22.1933 6.23621 20.6331 6.23621 18.7084H8.07036C8.07036 19.6201 8.80941 20.3592 9.7211 20.3592V20.3592Z" fill="#20D0C4"/>
</svg>
