<svg width="22" height="22" viewBox="0 0 22 22" fill="none" xmlns="http://www.w3.org/2000/svg">
<g opacity="0.63">
<path fill-rule="evenodd" clip-rule="evenodd" d="M18.3391 4.22515C17.9372 4.11348 17.6245 3.80083 17.5129 3.37652C17.1109 1.85792 15.5476 0.964639 14.029 1.36661C13.627 1.47828 13.2027 1.36661 12.8901 1.05397C11.8181 -0.0179895 9.94221 -0.0179895 8.87026 1.05397C8.57995 1.34427 8.13329 1.45594 7.73132 1.34427C6.21273 0.942301 4.64946 1.8356 4.24749 3.35418C4.13583 3.75616 3.82316 4.06882 3.39886 4.18047C1.88025 4.60478 0.986966 6.16804 1.38894 7.68665C1.5006 8.08862 1.38894 8.51293 1.0763 8.82558C0.540312 9.36156 0.25 10.0762 0.25 10.8355C0.25 11.5948 0.540312 12.3094 1.0763 12.8454C1.36661 13.1357 1.47828 13.5824 1.36661 13.9843C1.16561 14.7213 1.27728 15.4806 1.65692 16.1282C2.03659 16.7759 2.63955 17.2449 3.37651 17.4458C3.77851 17.5575 4.09115 17.8701 4.20281 18.2945C4.40381 19.0314 4.87279 19.6344 5.52042 20.0141C6.16805 20.3937 6.94967 20.5054 7.66431 20.3044C8.06631 20.1927 8.51294 20.3044 8.80327 20.617C9.36157 21.1753 10.0762 21.4433 10.8132 21.4433C11.5501 21.4433 12.2648 21.1753 12.8231 20.617C13.1134 20.3267 13.56 20.215 13.962 20.3267C14.699 20.5277 15.4583 20.416 16.1059 20.0364C16.7536 19.6567 17.2225 19.0538 17.4235 18.3168C17.5352 17.9148 17.8478 17.6022 18.2722 17.4905C19.0091 17.2895 19.6121 16.8205 19.9917 16.1729C20.3714 15.5253 20.4607 14.7436 20.2821 14.029C20.1704 13.627 20.2821 13.1804 20.5947 12.8901C21.7337 11.7511 21.7337 9.96453 20.6394 8.84792C20.3491 8.55761 20.2374 8.11096 20.3491 7.70897C20.751 6.19038 19.8578 4.64946 18.3391 4.22515V4.22515ZM18.6071 15.3243C18.4508 15.5923 18.2052 15.7933 17.8925 15.8826C16.9099 16.1506 16.1506 16.9099 15.8826 17.8925C15.7933 18.2051 15.6146 18.4508 15.3466 18.6071C15.0786 18.7634 14.766 18.8081 14.4533 18.7188C13.4707 18.4508 12.4211 18.7411 11.7065 19.4557C11.2598 19.9024 10.5005 19.9024 10.0315 19.4557C9.49557 18.9198 8.7586 18.6295 8.02164 18.6295C7.77598 18.6295 7.53034 18.6518 7.28468 18.7188C6.97202 18.8081 6.65937 18.7634 6.39138 18.6071C6.1234 18.4508 5.9224 18.2051 5.83307 17.8925C5.56508 16.9099 4.80579 16.1506 3.82317 15.8826C3.51052 15.7933 3.26485 15.6146 3.10853 15.3466C2.95222 15.0786 2.90755 14.766 2.99687 14.4533C3.26485 13.4707 2.97454 12.4211 2.2599 11.7065C2.03659 11.4831 1.92493 11.1928 1.92493 10.8802C1.92493 10.5675 2.03659 10.2772 2.28225 10.0315C2.99687 9.31689 3.2872 8.26728 3.01921 7.28466C2.86289 6.65936 3.22021 6.01173 3.86784 5.8554C4.85046 5.58741 5.60975 4.82812 5.87774 3.84549C6.05641 3.22019 6.68169 2.84055 7.32934 3.0192C8.31197 3.28719 9.36159 2.99687 10.0762 2.28223C10.5229 1.83559 11.2822 1.83559 11.7511 2.28223C12.4658 2.99687 13.5154 3.28719 14.498 3.0192C15.1233 2.86287 15.7709 3.22019 15.9273 3.86783C16.1953 4.85044 16.9546 5.60975 17.9372 5.87772C18.5625 6.05639 18.9421 6.6817 18.7635 7.32932C18.4955 8.31195 18.7858 9.36155 19.5004 10.0762C19.9247 10.4782 19.9247 11.2375 19.4558 11.6841C18.7411 12.4211 18.4508 13.4707 18.7188 14.431C18.8081 14.7436 18.7635 15.0563 18.6071 15.3243V15.3243Z" fill="#F02756"/>
<path d="M17.5129 3.37652L17.7546 3.3129L17.7545 3.31255L17.5129 3.37652ZM14.029 1.36661L13.965 1.12492L13.9621 1.12573L14.029 1.36661ZM12.8901 1.05397L13.0669 0.877193L13.0669 0.877192L12.8901 1.05397ZM8.87026 1.05397L9.04703 1.23075L9.04704 1.23074L8.87026 1.05397ZM7.73132 1.34427L7.79824 1.10338L7.79529 1.1026L7.73132 1.34427ZM4.24749 3.35418L4.48839 3.4211L4.48917 3.41816L4.24749 3.35418ZM3.39886 4.18047L3.33524 3.93867L3.33159 3.93969L3.39886 4.18047ZM1.38894 7.68665L1.14725 7.75063L1.14806 7.75356L1.38894 7.68665ZM1.0763 8.82558L1.25308 9.00236L1.25308 9.00235L1.0763 8.82558ZM1.0763 12.8454L0.899525 13.0222L0.899526 13.0222L1.0763 12.8454ZM1.36661 13.9843L1.12573 13.9174L1.12542 13.9185L1.36661 13.9843ZM1.65692 16.1282L1.44125 16.2547L1.44125 16.2547L1.65692 16.1282ZM3.37651 17.4458L3.44342 17.2049L3.44229 17.2046L3.37651 17.4458ZM4.20281 18.2945L3.96103 18.3581L3.96162 18.3603L4.20281 18.2945ZM5.52042 20.0141L5.39399 20.2297L5.39399 20.2297L5.52042 20.0141ZM7.66431 20.3044L7.59741 20.0635L7.59662 20.0637L7.66431 20.3044ZM8.80327 20.617L8.61995 20.7873L8.6265 20.7938L8.80327 20.617ZM12.8231 20.617L12.6463 20.4403L12.6463 20.4403L12.8231 20.617ZM13.962 20.3267L13.8951 20.5676L13.8962 20.5679L13.962 20.3267ZM16.1059 20.0364L15.9795 19.8207L15.9795 19.8207L16.1059 20.0364ZM17.4235 18.3168L17.1827 18.2499L17.1823 18.251L17.4235 18.3168ZM18.2722 17.4905L18.3358 17.7323L18.3379 17.7317L18.2722 17.4905ZM19.9917 16.1729L19.7761 16.0465L19.7761 16.0465L19.9917 16.1729ZM20.2821 14.029L20.5247 13.9684L20.5229 13.9621L20.2821 14.029ZM20.5947 12.8901L20.765 13.0734L20.7715 13.0668L20.5947 12.8901ZM20.6394 8.84792L20.8179 8.67292L20.8162 8.67114L20.6394 8.84792ZM20.3491 7.70897L20.59 7.77588L20.5907 7.77294L20.3491 7.70897ZM17.8925 15.8826L17.9583 16.1238L17.9612 16.123L17.8925 15.8826ZM15.8826 17.8925L16.123 17.9612L16.1238 17.9583L15.8826 17.8925ZM15.3466 18.6071L15.2207 18.3912L15.2207 18.3912L15.3466 18.6071ZM14.4533 18.7188L14.522 18.4784L14.5191 18.4776L14.4533 18.7188ZM11.7065 19.4557L11.8832 19.6325L11.8832 19.6325L11.7065 19.4557ZM10.0315 19.4557L9.85471 19.6326L9.85913 19.6368L10.0315 19.4557ZM7.28468 18.7188L7.21889 18.4776L7.216 18.4784L7.28468 18.7188ZM5.83307 17.8925L5.59186 17.9583L5.59269 17.9612L5.83307 17.8925ZM3.82317 15.8826L3.75449 16.123L3.75739 16.1238L3.82317 15.8826ZM3.10853 15.3466L2.89258 15.4726L2.89258 15.4726L3.10853 15.3466ZM2.99687 14.4533L3.23727 14.522L3.23806 14.5191L2.99687 14.4533ZM2.2599 11.7065L2.08312 11.8832L2.08313 11.8832L2.2599 11.7065ZM2.28225 10.0315L2.10547 9.85475L2.10547 9.85475L2.28225 10.0315ZM3.01921 7.28466L2.77662 7.34531L2.77802 7.35044L3.01921 7.28466ZM3.86784 5.8554L3.92652 6.09853L3.93362 6.09659L3.86784 5.8554ZM5.87774 3.84549L5.63734 3.7768L5.63655 3.77971L5.87774 3.84549ZM7.32934 3.0192L7.26286 3.2602L7.26356 3.26039L7.32934 3.0192ZM10.0762 2.28223L9.89943 2.10545L9.89943 2.10545L10.0762 2.28223ZM11.7511 2.28223L11.928 2.1054L11.9235 2.10119L11.7511 2.28223ZM14.498 3.0192L14.4374 2.77661L14.4322 2.77801L14.498 3.0192ZM15.9273 3.86783L15.6842 3.92652L15.6861 3.93361L15.9273 3.86783ZM17.9372 5.87772L18.0059 5.63732L18.003 5.63653L17.9372 5.87772ZM18.7635 7.32932L18.5225 7.26284L18.5223 7.26354L18.7635 7.32932ZM19.5004 10.0762L19.3236 10.253L19.3285 10.2577L19.5004 10.0762ZM19.4558 11.6841L19.2832 11.5029L19.2763 11.5101L19.4558 11.6841ZM18.7188 14.431L18.478 14.4982L18.4784 14.4997L18.7188 14.431ZM18.3391 4.22515L18.4061 3.98427C18.0908 3.89669 17.844 3.65232 17.7546 3.3129L17.5129 3.37652L17.2711 3.44015C17.4051 3.94935 17.7835 4.33026 18.2722 4.46602L18.3391 4.22515ZM17.5129 3.37652L17.7545 3.31255C17.3167 1.65836 15.615 0.688191 13.965 1.12494L14.029 1.36661L14.093 1.60829C15.4802 1.24109 16.9051 2.05747 17.2712 3.4405L17.5129 3.37652ZM14.029 1.36661L13.9621 1.12573C13.6499 1.21247 13.3179 1.12825 13.0669 0.877193L12.8901 1.05397L12.7133 1.23074C13.0875 1.60498 13.6042 1.74409 14.0959 1.60749L14.029 1.36661ZM12.8901 1.05397L13.0669 0.877192C11.8973 -0.292397 9.86307 -0.292397 8.69348 0.877192L8.87026 1.05397L9.04704 1.23074C10.0214 0.256418 11.739 0.256418 12.7133 1.23074L12.8901 1.05397ZM8.87026 1.05397L8.69348 0.87719C8.46933 1.10134 8.11671 1.19187 7.79823 1.1034L7.73132 1.34427L7.6644 1.58515C8.14988 1.72002 8.69057 1.5872 9.04703 1.23075L8.87026 1.05397ZM7.73132 1.34427L7.79529 1.1026C6.14534 0.665853 4.44368 1.63605 4.00581 3.29021L4.24749 3.35418L4.48917 3.41816C4.85525 2.03515 6.28012 1.21875 7.66735 1.58595L7.73132 1.34427ZM4.24749 3.35418L4.00661 3.28727C3.91904 3.60252 3.67465 3.84939 3.33524 3.9387L3.39886 4.18047L3.46248 4.42224C3.97168 4.28825 4.35261 3.90979 4.48837 3.4211L4.24749 3.35418ZM3.39886 4.18047L3.33159 3.93969C1.68142 4.40076 0.710263 6.09969 1.14726 7.75062L1.38894 7.68665L1.63062 7.62268C1.26367 6.23639 2.07908 4.8088 3.46614 4.42125L3.39886 4.18047ZM1.38894 7.68665L1.14806 7.75356C1.2348 8.0658 1.15058 8.39774 0.899523 8.6488L1.0763 8.82558L1.25308 9.00235C1.6273 8.62812 1.76641 8.11144 1.62982 7.61974L1.38894 7.68665ZM1.0763 8.82558L0.899525 8.6488C0.3157 9.23261 0 10.0112 0 10.8355H0.25H0.5C0.5 10.1411 0.764924 9.4905 1.25308 9.00236L1.0763 8.82558ZM0.25 10.8355H0C0 11.6597 0.3157 12.4384 0.899525 13.0222L1.0763 12.8454L1.25308 12.6686C0.764924 12.1805 0.5 11.5298 0.5 10.8355H0.25ZM1.0763 12.8454L0.899526 13.0222C1.12368 13.2463 1.2142 13.5989 1.12573 13.9174L1.36661 13.9843L1.60749 14.0512C1.74235 13.5658 1.60954 13.0251 1.25308 12.6686L1.0763 12.8454ZM1.36661 13.9843L1.12542 13.9185C0.906195 14.7224 1.02862 15.5508 1.44125 16.2547L1.65692 16.1282L1.8726 16.0018C1.52594 15.4104 1.42503 14.7202 1.6078 14.0501L1.36661 13.9843ZM1.65692 16.1282L1.44125 16.2547C1.85355 16.958 2.50993 17.4686 3.31074 17.687L3.37651 17.4458L3.44229 17.2046C2.76916 17.0211 2.21964 16.5938 1.8726 16.0018L1.65692 16.1282ZM3.37651 17.4458L3.3096 17.6867C3.62487 17.7743 3.87172 18.0187 3.96104 18.3581L4.20281 18.2945L4.44458 18.2309C4.31058 17.7216 3.93215 17.3407 3.44342 17.205L3.37651 17.4458ZM4.20281 18.2945L3.96162 18.3603C4.18003 19.161 4.6907 19.8174 5.39399 20.2297L5.52042 20.0141L5.64685 19.7984C5.05488 19.4514 4.62759 18.9018 4.444 18.2287L4.20281 18.2945ZM5.52042 20.0141L5.39399 20.2297C6.09755 20.6422 6.94901 20.7652 7.732 20.545L7.66431 20.3044L7.59662 20.0637C6.95034 20.2455 6.23855 20.1452 5.64685 19.7984L5.52042 20.0141ZM7.66431 20.3044L7.73121 20.5452C8.0486 20.4571 8.39708 20.547 8.62008 20.7871L8.80327 20.617L8.98647 20.4469C8.6288 20.0617 8.08402 19.9283 7.59741 20.0635L7.66431 20.3044ZM8.80327 20.617L8.6265 20.7938C9.23439 21.4017 10.0138 21.6933 10.8132 21.6933V21.4433V21.1933C10.1386 21.1933 9.48875 20.9489 8.98005 20.4403L8.80327 20.617ZM10.8132 21.4433V21.6933C11.6125 21.6933 12.392 21.4017 12.9998 20.7938L12.8231 20.617L12.6463 20.4403C12.1376 20.9489 11.4878 21.1933 10.8132 21.1933V21.4433ZM12.8231 20.617L12.9998 20.7938C13.224 20.5696 13.5766 20.4791 13.8951 20.5676L13.962 20.3267L14.0289 20.0858C13.5434 19.951 13.0028 20.0838 12.6463 20.4403L12.8231 20.617ZM13.962 20.3267L13.8962 20.5679C14.7001 20.7871 15.5285 20.6647 16.2324 20.252L16.1059 20.0364L15.9795 19.8207C15.3881 20.1674 14.6979 20.2683 14.0278 20.0855L13.962 20.3267ZM16.1059 20.0364L16.2324 20.2521C16.9356 19.8398 17.4463 19.1834 17.6647 18.3826L17.4235 18.3168L17.1823 18.251C16.9988 18.9242 16.5715 19.4737 15.9795 19.8207L16.1059 20.0364ZM17.4235 18.3168L17.6644 18.3837C17.752 18.0685 17.9964 17.8216 18.3358 17.7323L18.2722 17.4905L18.2085 17.2487C17.6993 17.3827 17.3184 17.7612 17.1827 18.2499L17.4235 18.3168ZM18.2722 17.4905L18.3379 17.7317C19.1387 17.5133 19.7951 17.0026 20.2074 16.2993L19.9917 16.1729L19.7761 16.0465C19.4291 16.6384 18.8795 17.0657 18.2064 17.2493L18.2722 17.4905ZM19.9917 16.1729L20.2074 16.2993C20.6226 15.5911 20.7179 14.7417 20.5246 13.9684L20.2821 14.029L20.0395 14.0896C20.2035 14.7456 20.1202 15.4594 19.7761 16.0465L19.9917 16.1729ZM20.2821 14.029L20.5229 13.9621C20.4348 13.6447 20.5247 13.2962 20.7648 13.0733L20.5947 12.8901L20.4246 12.7069C20.0394 13.0645 19.906 13.6093 20.0412 14.0959L20.2821 14.029ZM20.5947 12.8901L20.7715 13.0668C22.0065 11.8318 22.009 9.88833 20.8179 8.67293L20.6394 8.84792L20.4608 9.0229C21.4583 10.0407 21.4608 11.6704 20.4179 12.7133L20.5947 12.8901ZM20.6394 8.84792L20.8162 8.67114C20.592 8.44699 20.5015 8.09438 20.5899 7.77588L20.3491 7.70897L20.1082 7.64206C19.9733 8.12754 20.1061 8.66823 20.4626 9.02469L20.6394 8.84792ZM20.3491 7.70897L20.5907 7.77294C21.0282 6.1203 20.0549 4.44495 18.4064 3.98437L18.3391 4.22515L18.2719 4.46592C19.6607 4.85396 20.4739 6.26046 20.1074 7.64499L20.3491 7.70897ZM18.6071 15.3243L18.3912 15.1983C18.2658 15.4133 18.0716 15.5714 17.8238 15.6422L17.8925 15.8826L17.9612 16.123C18.3388 16.0151 18.6358 15.7713 18.8231 15.4502L18.6071 15.3243ZM17.8925 15.8826L17.8267 15.6414C16.7587 15.9327 15.9327 16.7587 15.6414 17.8267L15.8826 17.8925L16.1238 17.9583C16.3685 17.061 17.0611 16.3685 17.9583 16.1238L17.8925 15.8826ZM15.8826 17.8925L15.6422 17.8238C15.5685 18.0818 15.4267 18.271 15.2207 18.3912L15.3466 18.6071L15.4726 18.8231C15.8026 18.6306 16.018 18.3285 16.123 17.9612L15.8826 17.8925ZM15.3466 18.6071L15.2207 18.3912C15.0102 18.5139 14.7678 18.5486 14.522 18.4784L14.4533 18.7188L14.3847 18.9592C14.7642 19.0676 15.147 19.013 15.4726 18.8231L15.3466 18.6071ZM14.4533 18.7188L14.5191 18.4776C13.4482 18.1855 12.3065 18.5022 11.5297 19.279L11.7065 19.4557L11.8832 19.6325C12.5357 18.98 13.4932 18.7161 14.3876 18.96L14.4533 18.7188ZM11.7065 19.4557L11.5297 19.279C11.183 19.6257 10.5788 19.6317 10.204 19.2747L10.0315 19.4557L9.85913 19.6368C10.4222 20.1731 11.3367 20.1791 11.8832 19.6325L11.7065 19.4557ZM10.0315 19.4557L10.2083 19.279C9.62379 18.6944 8.82251 18.3795 8.02164 18.3795V18.6295V18.8795C8.6947 18.8795 9.36735 19.1451 9.85476 19.6325L10.0315 19.4557ZM8.02164 18.6295V18.3795C7.76098 18.3795 7.49199 18.4031 7.21889 18.4776L7.28468 18.7188L7.35046 18.96C7.56868 18.9005 7.79097 18.8795 8.02164 18.8795V18.6295ZM7.28468 18.7188L7.216 18.4784C6.97024 18.5486 6.72776 18.5139 6.51735 18.3912L6.39138 18.6071L6.26541 18.8231C6.59098 19.013 6.97381 19.0676 7.35335 18.9592L7.28468 18.7188ZM6.39138 18.6071L6.51735 18.3912C6.30239 18.2658 6.14423 18.0715 6.07345 17.8238L5.83307 17.8925L5.59269 17.9612C5.70057 18.3387 5.9444 18.6358 6.26541 18.8231L6.39138 18.6071ZM5.83307 17.8925L6.07426 17.8267C5.78298 16.7587 4.95698 15.9327 3.88895 15.6414L3.82317 15.8826L3.75739 16.1238C4.65461 16.3685 5.34718 17.061 5.59188 17.9583L5.83307 17.8925ZM3.82317 15.8826L3.89185 15.6422C3.63385 15.5685 3.44465 15.4267 3.32447 15.2206L3.10853 15.3466L2.89258 15.4726C3.08506 15.8025 3.38718 16.018 3.75449 16.123L3.82317 15.8826ZM3.10853 15.3466L3.32448 15.2207C3.20175 15.0102 3.16705 14.7677 3.23725 14.522L2.99687 14.4533L2.75649 14.3846C2.64806 14.7642 2.70269 15.147 2.89258 15.4726L3.10853 15.3466ZM2.99687 14.4533L3.23806 14.5191C3.53012 13.4482 3.21348 12.3065 2.43668 11.5297L2.2599 11.7065L2.08313 11.8832C2.73561 12.5357 2.99959 13.4932 2.75568 14.3875L2.99687 14.4533ZM2.2599 11.7065L2.43669 11.5297C2.26331 11.3563 2.17493 11.131 2.17493 10.8802H1.92493H1.67493C1.67493 11.2547 1.80986 11.61 2.08312 11.8832L2.2599 11.7065ZM1.92493 10.8802H2.17493C2.17493 10.6331 2.26078 10.4066 2.45903 10.2083L2.28225 10.0315L2.10547 9.85475C1.81239 10.1478 1.67493 10.502 1.67493 10.8802H1.92493ZM2.28225 10.0315L2.45902 10.2083C3.2358 9.43151 3.55247 8.2898 3.2604 7.21888L3.01921 7.28466L2.77802 7.35044C3.02193 8.24477 2.75794 9.20227 2.10547 9.85475L2.28225 10.0315ZM3.01921 7.28466L3.26175 7.22403C3.13697 6.72491 3.42225 6.22014 3.9265 6.09842L3.86784 5.8554L3.80918 5.61238C3.01816 5.80332 2.5888 6.5938 2.77668 7.3453L3.01921 7.28466ZM3.86784 5.8554L3.93362 6.09659C5.00164 5.80531 5.82765 4.9793 6.11893 3.91127L5.87774 3.84549L5.63655 3.77971C5.39185 4.67693 4.69928 5.36951 3.80206 5.61421L3.86784 5.8554ZM5.87774 3.84549L6.11812 3.91418C6.26097 3.41422 6.75392 3.11981 7.26286 3.2602L7.32934 3.0192L7.39582 2.7782C6.60947 2.56129 5.85184 3.02615 5.63736 3.77681L5.87774 3.84549ZM7.32934 3.0192L7.26356 3.26039C8.33448 3.55246 9.47621 3.23581 10.253 2.459L10.0762 2.28223L9.89943 2.10545C9.24696 2.75794 8.28946 3.02192 7.39512 2.77801L7.32934 3.0192ZM10.0762 2.28223L10.253 2.45901C10.5997 2.1123 11.2039 2.10626 11.5787 2.46326L11.7511 2.28223L11.9235 2.10119C11.3604 1.56491 10.446 1.55887 9.89943 2.10545L10.0762 2.28223ZM11.7511 2.28223L11.5744 2.459C12.3511 3.23581 13.4929 3.55246 14.5638 3.26039L14.498 3.0192L14.4322 2.77801C13.5379 3.02192 12.5804 2.75794 11.9279 2.10545L11.7511 2.28223ZM14.498 3.0192L14.5586 3.26173C15.0577 3.13695 15.5625 3.42223 15.6843 3.9265L15.9273 3.86783L16.1703 3.80917C15.9793 3.01814 15.1889 2.58879 14.4374 2.77666L14.498 3.0192ZM15.9273 3.86783L15.6861 3.93361C15.9774 5.00162 16.8034 5.82765 17.8714 6.11891L17.9372 5.87772L18.003 5.63653C17.1057 5.39185 16.4132 4.69926 16.1685 3.80205L15.9273 3.86783ZM17.9372 5.87772L17.8685 6.1181C18.3684 6.26095 18.6629 6.75392 18.5225 7.26284L18.7635 7.32932L19.0045 7.3958C19.2214 6.60947 18.7565 5.85183 18.0059 5.63734L17.9372 5.87772ZM18.7635 7.32932L18.5223 7.26354C18.2302 8.33446 18.5469 9.47618 19.3237 10.253L19.5004 10.0762L19.6772 9.89941C19.0247 9.24693 18.7607 8.28944 19.0047 7.39511L18.7635 7.32932ZM19.5004 10.0762L19.3285 10.2577C19.6419 10.5546 19.6558 11.1483 19.2834 11.5031L19.4558 11.6841L19.6282 11.8651C20.1936 11.3266 20.2076 10.4018 19.6724 9.8947L19.5004 10.0762ZM19.4558 11.6841L19.2763 11.5101C18.504 12.3066 18.1846 13.4467 18.478 14.4982L18.7188 14.431L18.9596 14.3638C18.7171 13.4947 18.9783 12.5356 19.6353 11.8582L19.4558 11.6841ZM18.7188 14.431L18.4784 14.4997C18.5486 14.7454 18.5139 14.9879 18.3912 15.1983L18.6071 15.3243L18.8231 15.4502C19.013 15.1247 19.0676 14.7419 18.9592 14.3623L18.7188 14.431Z" fill="#F02756"/>
<path fill-rule="evenodd" clip-rule="evenodd" d="M13.091 7.46332L7.46327 13.091C7.12829 13.426 7.12829 13.9397 7.46327 14.2747C7.6196 14.431 7.84292 14.5203 8.06624 14.5203C8.28956 14.5203 8.49055 14.431 8.66922 14.2747L14.2969 8.64693C14.6096 8.33428 14.6096 7.7983 14.2746 7.46332C13.9396 7.12834 13.4037 7.12834 13.091 7.46332V7.46332Z" fill="#F02756"/>
<path fill-rule="evenodd" clip-rule="evenodd" d="M8.24496 6.88268C8.99732 6.88268 9.60723 7.49259 9.60723 8.24495C9.60723 8.99731 8.99732 9.60722 8.24496 9.60722C7.4926 9.60722 6.88269 8.99731 6.88269 8.24495C6.88269 7.49259 7.4926 6.88268 8.24496 6.88268V6.88268Z" fill="#F02756"/>
<path fill-rule="evenodd" clip-rule="evenodd" d="M13.493 12.1308C14.2454 12.1308 14.8553 12.7407 14.8553 13.493C14.8553 14.2454 14.2454 14.8553 13.493 14.8553C12.7406 14.8553 12.1307 14.2454 12.1307 13.493C12.1307 12.7407 12.7406 12.1308 13.493 12.1308V12.1308Z" fill="#F02756"/>
</g>
</svg>
