<svg width="14" height="14" viewBox="0 0 14 14" fill="none" xmlns="http://www.w3.org/2000/svg">
<path fill-rule="evenodd" clip-rule="evenodd" d="M1.51012 1.50998C0.536124 2.4837 0 3.77859 0 5.15585C0 6.53311 0.53599 7.82758 1.51012 8.80157C2.48384 9.77516 3.77859 10.3117 5.15572 10.3117C6.53271 10.3117 7.82759 9.7753 8.80159 8.80157C10.8116 6.791 10.8116 3.52028 8.80132 1.50998C7.82759 0.536394 6.53271 0 5.15572 0C3.77859 0 2.48384 0.536394 1.51012 1.50998V1.50998ZM2.6349 7.6771C1.96134 7.00341 1.59052 6.10803 1.59052 5.15585C1.59052 4.20353 1.96134 3.30815 2.6349 2.6346C3.30832 1.96131 4.2037 1.59048 5.15588 1.59048C6.10807 1.59048 7.00358 1.96131 7.67687 2.6346C9.06718 4.02464 9.06718 6.28665 7.67713 7.67683C7.00371 8.35039 6.10847 8.72122 5.15588 8.72122C4.20329 8.72122 3.30805 8.35039 2.6349 7.6771V7.6771Z" fill="#5117AC"/>
<path fill-rule="evenodd" clip-rule="evenodd" d="M9.12331 9.12368C8.81278 9.43394 8.81278 9.93735 9.12331 10.248L11.7911 12.9156C11.9463 13.0708 12.15 13.1485 12.3534 13.1485C12.5569 13.1485 12.7602 13.0708 12.9156 12.9156C13.2263 12.6051 13.2263 12.1015 12.9156 11.7912L10.2477 9.12368C9.93739 8.81301 9.43357 8.81301 9.12331 9.12368V9.12368Z" fill="#5117AC"/>
</svg>
