<svg width="44" height="46" viewBox="0 0 44 46" fill="none" xmlns="http://www.w3.org/2000/svg">
<path fill-rule="evenodd" clip-rule="evenodd" d="M20.9945 26.7206C30.5136 26.7206 38.2304 30.8253 38.2304 35.8888C38.2304 40.9523 30.5136 45.0571 20.9945 45.0571C11.4754 45.0571 3.75867 40.9523 3.75867 35.8888C3.75867 30.8253 11.4754 26.7206 20.9945 26.7206V26.7206Z" fill="#B15312"/>
<path fill-rule="evenodd" clip-rule="evenodd" d="M4.28594 38.141C5.61596 40.029 36.3299 40.233 37.5699 38.403C38.811 36.573 39.094 32.799 39.094 32.799H2.89496C2.89496 32.799 2.95697 36.254 4.28594 38.141V38.141Z" fill="#B15312"/>
<path fill-rule="evenodd" clip-rule="evenodd" d="M20.9946 23.1712C30.9908 23.1712 39.0943 27.4817 39.0943 32.7989C39.0943 38.1161 30.9908 42.4266 20.9946 42.4266C10.9984 42.4266 2.8949 38.1161 2.8949 32.7989C2.8949 27.4817 10.9984 23.1712 20.9946 23.1712V23.1712Z" fill="#D2742E"/>
<path fill-rule="evenodd" clip-rule="evenodd" d="M37.6 28.179C36.351 27.877 37.081 26.756 35.899 27.133C31.825 28.435 29.111 30.01 24.515 29.867C17.778 29.658 10.992 28.713 4.26996 28.196C3.87197 28.165 3.62599 28.366 3.51396 28.636C2.11797 28.689 -1.28401 29.782 0.510962 31.257C1.24097 31.856 2.64197 32.856 2.01497 33.646C1.11897 34.774 0.633953 36.559 1.35895 37.609C1.87596 38.356 4.30398 36.467 6.25695 37.653C7.57696 38.454 5.54995 40.292 8.30498 41.328C9.25498 41.685 10.958 39.927 11.771 40.104C14.287 40.65 13.059 43.858 14.788 44.675C16.962 45.704 18.027 37.504 21.245 42.272C22.518 44.157 23.609 45.573 24.8969 45.433C28.409 45.052 27.787 41.121 28.221 40.763C30.423 38.952 32.152 43.087 35.479 41.647C37.412 40.811 35.497 38.014 36.139 36.616C37.374 33.925 42.963 34.938 43.167 31.164C43.29 28.915 39.785 28.707 37.6 28.179V28.179Z" fill="#B4E20E"/>
<path fill-rule="evenodd" clip-rule="evenodd" d="M2.95294 34.195C2.24194 35.156 1.88594 35.831 2.50894 36.25C3.13194 36.668 7.66894 34.619 7.66894 34.619L6.36294 32.933C6.36294 32.933 3.66494 33.234 2.95294 34.195V34.195Z" fill="#A0C600"/>
<path fill-rule="evenodd" clip-rule="evenodd" d="M8.77496 38.024C8.29196 39.426 9.29196 39.96 10.839 38.982C12.385 38.003 12.635 37.488 12.635 37.488L9.80696 35.978C9.80696 35.978 9.25796 36.622 8.77496 38.024V38.024Z" fill="#A0C600"/>
<path fill-rule="evenodd" clip-rule="evenodd" d="M14.735 42.414C14.876 43.519 16.249 42.187 16.408 40.451C16.567 38.715 14.735 39.666 14.735 39.666C14.735 39.666 14.594 41.309 14.735 42.414V42.414Z" fill="#A0C600"/>
<path fill-rule="evenodd" clip-rule="evenodd" d="M23.676 42.414C24.664 43.608 26.459 42.808 25.986 41.112C25.512 39.416 24.427 38.679 24.427 38.679L21.24 39.589C21.24 39.589 22.689 41.22 23.676 42.414V42.414Z" fill="#A0C600"/>
<path fill-rule="evenodd" clip-rule="evenodd" d="M32.405 39.406C33.65 40.316 35.056 40.429 33.989 38.371C32.923 36.313 32.316 36.25 32.316 36.25L28.972 37.73C28.972 37.73 31.159 38.495 32.405 39.406V39.406Z" fill="#A0C600"/>
<path fill-rule="evenodd" clip-rule="evenodd" d="M41.213 31.944C41.658 30.796 39.003 30.813 39.003 30.813L36.624 32.864C36.942 32.753 40.768 33.092 41.213 31.944V31.944Z" fill="#A0C600"/>
<path fill-rule="evenodd" clip-rule="evenodd" d="M0.766968 28.429C0.766968 28.429 3.59498 32.176 7.27197 35.145C10.948 38.115 16.755 40.604 16.755 40.604C16.755 40.604 23.777 39.335 29.198 36.904C34.619 34.474 40.7 29.605 40.7 29.605C40.7 29.605 23.715 17.63 18.159 19.733L0.766968 28.429V28.429Z" fill="#FFD654"/>
<path fill-rule="evenodd" clip-rule="evenodd" d="M10.948 38.185C16.25 41.367 16.864 41.635 16.864 41.635C16.864 41.635 26.319 39.434 29.259 38.185C36.683 35.032 40.7 29.605 40.7 29.605C40.7 29.605 31.663 36.347 25.512 37.903C19.361 39.458 16.958 40.059 16.958 40.059C16.958 40.059 11.866 37.198 7.34198 34.014C5.01197 32.374 0.766968 28.429 0.766968 28.429C0.766968 28.429 5.64598 35.004 10.948 38.185V38.185Z" fill="#FEB52C"/>
<path fill-rule="evenodd" clip-rule="evenodd" d="M20.7334 17.0632C30.5531 17.0632 38.5135 21.2975 38.5135 26.5207C38.5135 31.744 30.5531 35.9783 20.7334 35.9783C10.9137 35.9783 2.95325 31.744 2.95325 26.5207C2.95325 21.2975 10.9137 17.0632 20.7334 17.0632V17.0632Z" fill="#B15312"/>
<path fill-rule="evenodd" clip-rule="evenodd" d="M2.95299 26.521C2.95299 26.521 2.31397 23.363 5.00297 20.278C10.235 14.275 31.458 14.63 36.846 20.899C38.964 23.363 38.46 27.227 38.46 27.227L2.95299 26.521V26.521Z" fill="#B15312"/>
<path fill-rule="evenodd" clip-rule="evenodd" d="M20.7334 14.4442C29.9932 14.4442 37.4998 18.4371 37.4998 23.3626C37.4998 28.2881 29.9932 32.281 20.7334 32.281C11.4736 32.281 3.96698 28.2881 3.96698 23.3626C3.96698 18.4371 11.4736 14.4442 20.7334 14.4442V14.4442Z" fill="#D2742E"/>
<path fill-rule="evenodd" clip-rule="evenodd" d="M6.38396 26.589C7.75896 26.616 6.24196 24.72 6.24196 24.72C6.24196 24.72 5.08296 26.563 6.38396 26.589V26.589Z" fill="#FFC648"/>
<path fill-rule="evenodd" clip-rule="evenodd" d="M26.603 29.792C27.9789 29.82 26.461 27.924 26.461 27.924C26.461 27.924 25.3019 29.766 26.603 29.792V29.792Z" fill="#FFC648"/>
<path fill-rule="evenodd" clip-rule="evenodd" d="M21.991 33.01C20.718 32.487 21.447 34.804 21.447 34.804C21.447 34.804 23.194 33.505 21.991 33.01V33.01Z" fill="#FFC648"/>
<path fill-rule="evenodd" clip-rule="evenodd" d="M26.15 22.049C24.877 21.525 25.606 23.842 25.606 23.842C25.606 23.842 27.353 22.543 26.15 22.049V22.049Z" fill="#FFC648"/>
<path fill-rule="evenodd" clip-rule="evenodd" d="M33.112 31.447C34.117 32.387 34.256 29.963 34.256 29.963C34.256 29.963 32.162 30.558 33.112 31.447V31.447Z" fill="#FFC648"/>
<path fill-rule="evenodd" clip-rule="evenodd" d="M18.809 28.366C20.096 28.805 18.209 30.331 16.579 29.617C16.579 29.617 17.523 27.927 18.809 28.366V28.366Z" fill="#FFC648"/>
<path fill-rule="evenodd" clip-rule="evenodd" d="M21.465 18.446C22.751 18.886 20.864 20.411 19.235 19.698C19.235 19.698 20.178 18.007 21.465 18.446V18.446Z" fill="#FFC648"/>
<path fill-rule="evenodd" clip-rule="evenodd" d="M29.41 32.202C30.696 32.641 28.809 34.166 27.18 33.453C27.18 33.453 28.123 31.762 29.41 32.202V32.202Z" fill="#FFC648"/>
<path fill-rule="evenodd" clip-rule="evenodd" d="M7.38594 20.92C6.09995 21.36 7.98595 22.885 9.61595 22.172C9.61595 22.172 8.67294 20.481 7.38594 20.92V20.92Z" fill="#FFC648"/>
<path fill-rule="evenodd" clip-rule="evenodd" d="M29.642 19.595C28.355 20.034 30.242 21.559 31.872 20.846C31.872 20.846 30.928 19.155 29.642 19.595V19.595Z" fill="#FFC648"/>
<path fill-rule="evenodd" clip-rule="evenodd" d="M6.058 29.122C4.77199 29.561 6.659 31.086 8.28799 30.373C8.28799 30.373 7.34499 28.682 6.058 29.122V29.122Z" fill="#FFC648"/>
<path fill-rule="evenodd" clip-rule="evenodd" d="M11.09 25.655C12.077 26.46 12.334 24.187 12.334 24.187C12.334 24.187 10.104 24.85 11.09 25.655V25.655Z" fill="#FFC648"/>
<path fill-rule="evenodd" clip-rule="evenodd" d="M25.4569 16.626C24.7419 17.68 27.0289 17.735 27.0289 17.735C27.0289 17.735 26.172 15.573 25.4569 16.626V16.626Z" fill="#FFC648"/>
<path fill-rule="evenodd" clip-rule="evenodd" d="M29.771 26.893C30.757 27.698 31.015 25.426 31.015 25.426C31.015 25.426 28.785 26.088 29.771 26.893V26.893Z" fill="#FFC648"/>
<path fill-rule="evenodd" clip-rule="evenodd" d="M16.831 34.447C17.817 35.252 18.075 32.979 18.075 32.979C18.075 32.979 15.845 33.641 16.831 34.447V34.447Z" fill="#FFC648"/>
<path fill-rule="evenodd" clip-rule="evenodd" d="M12.803 18.165C12.009 19.16 14.285 19.392 14.285 19.392C14.285 19.392 13.597 17.169 12.803 18.165V18.165Z" fill="#FFC648"/>
<path fill-rule="evenodd" clip-rule="evenodd" d="M10.238 32.783C11.392 32.245 9.45799 31.024 9.45799 31.024C9.45799 31.024 9.084 33.32 10.238 32.783V32.783Z" fill="#FFC648"/>
<path fill-rule="evenodd" clip-rule="evenodd" d="M18.548 24.498C19.43 23.58 17.185 23.141 17.185 23.141C17.185 23.141 17.667 25.417 18.548 24.498V24.498Z" fill="#FFC648"/>
<path fill-rule="evenodd" clip-rule="evenodd" d="M8.77478 28.0536L10.8387 28.2931L9.61587 26.6533L8.77478 28.0536V28.0536Z" fill="#A44105"/>
<path fill-rule="evenodd" clip-rule="evenodd" d="M15.4858 26.8888L17.2626 27.4732L17.6728 25.8274L15.4858 26.8888V26.8888Z" fill="#A44105"/>
<path fill-rule="evenodd" clip-rule="evenodd" d="M12.635 32.8641L15.0356 32.9331L13.4598 30.8133L12.635 32.8641V32.8641Z" fill="#A44105"/>
<path fill-rule="evenodd" clip-rule="evenodd" d="M22.24 28.64C22.368 28.69 24.041 29.049 24.041 29.049L23.44 27.066C23.44 27.066 22.111 28.59 22.24 28.64V28.64Z" fill="#A44105"/>
<path fill-rule="evenodd" clip-rule="evenodd" d="M30.5437 28.4754L31.8716 29.4188V27.6178L30.5437 28.4754V28.4754Z" fill="#A44105"/>
<path fill-rule="evenodd" clip-rule="evenodd" d="M24.941 33.175C24.941 33.175 26.789 30.872 26.573 31.024C26.356 31.177 24.855 30.813 24.855 30.813L24.941 33.175V33.175Z" fill="#A44105"/>
<path fill-rule="evenodd" clip-rule="evenodd" d="M28.972 23.7111L30.8383 23.1413L29.5192 22.2366L28.972 23.7111V23.7111Z" fill="#A44105"/>
<path fill-rule="evenodd" clip-rule="evenodd" d="M35.1042 22.2366L36.0906 21.0606L33.9893 19.8847L35.1042 22.2366V22.2366Z" fill="#A44105"/>
<path fill-rule="evenodd" clip-rule="evenodd" d="M33.8176 25.8274L35.49 26.5207L35.0398 25.0073L33.8176 25.8274V25.8274Z" fill="#A44105"/>
<path fill-rule="evenodd" clip-rule="evenodd" d="M21.5107 22.4495L22.9258 21.9715L21.8906 21.0606L21.5107 22.4495V22.4495Z" fill="#A44105"/>
<path fill-rule="evenodd" clip-rule="evenodd" d="M14.6066 22.2366L14.7353 20.8474L12.6349 21.0332L14.6066 22.2366V22.2366Z" fill="#A44105"/>
<path fill-rule="evenodd" clip-rule="evenodd" d="M8.77496 18.827C8.77496 18.827 10.49 19.302 10.404 19.129C10.319 18.956 10.003 17.735 10.003 17.735L8.77496 18.827V18.827Z" fill="#A44105"/>
<path fill-rule="evenodd" clip-rule="evenodd" d="M17.3269 18.4512L18.0746 17.1686L16.4077 17.0632L17.3269 18.4512V18.4512Z" fill="#A44105"/>
<path fill-rule="evenodd" clip-rule="evenodd" d="M23.3976 17.7354L24.4266 16.8116L22.9258 16.074L23.3976 17.7354V17.7354Z" fill="#A44105"/>
<path fill-rule="evenodd" clip-rule="evenodd" d="M36.5412 20.4228V22.1295H4.92554V20.4228H36.5412V20.4228Z" fill="#ED2B2B"/>
<path fill-rule="evenodd" clip-rule="evenodd" d="M20.733 30.239C12.003 30.239 4.92596 26.474 4.92596 21.83C4.92596 17.186 12.003 13.422 20.733 13.422C29.464 13.422 36.541 17.186 36.541 21.83C36.541 26.474 29.464 30.239 20.733 30.239V30.239Z" fill="#ED2B2B"/>
<path fill-rule="evenodd" clip-rule="evenodd" d="M20.733 28.916C12.003 28.916 4.92596 25.151 4.92596 20.507C4.92596 15.863 12.003 12.099 20.733 12.099C29.464 12.099 36.541 15.863 36.541 20.507C36.541 25.151 29.464 28.916 20.733 28.916V28.916Z" fill="#FF6969"/>
<path fill-rule="evenodd" clip-rule="evenodd" d="M20.733 27.592C12.913 27.592 6.57397 24.42 6.57397 20.507C6.57397 16.594 12.913 13.422 20.733 13.422C28.554 13.422 34.893 16.594 34.893 20.507C34.893 24.42 28.554 27.592 20.733 27.592V27.592Z" fill="#FF4343"/>
<path fill-rule="evenodd" clip-rule="evenodd" d="M11.1869 16.421C16.3949 13.296 23.4079 14.32 24.851 14.664C26.881 15.146 24.737 17.027 22.336 17.205C21.2419 17.285 18.6569 17.605 17.1209 18.277C15.2849 19.08 14.5759 20.292 14.6359 20.912C14.7459 22.05 12.467 24.072 11.3149 24.109C9.96395 24.151 5.97795 19.546 11.1869 16.421V16.421Z" fill="#ED2B2B"/>
<path fill-rule="evenodd" clip-rule="evenodd" d="M14.886 25.774C20.192 27.325 25.576 26.44 29.423 24.623C33.271 22.806 34.185 19.813 31.941 17.709C30.312 16.181 28.694 16.049 27.782 16.642C25.661 18.019 27.524 20.464 23.401 21.276C20.975 21.754 17.743 21.388 16.086 22.26C14.628 23.028 12.387 25.043 14.886 25.774V25.774Z" fill="#ED2B2B"/>
<path fill-rule="evenodd" clip-rule="evenodd" d="M21.778 15.018C20.904 15.039 22.007 16.421 22.007 16.421C22.007 16.421 23.108 14.986 21.778 15.018V15.018Z" fill="#FF6969"/>
<path fill-rule="evenodd" clip-rule="evenodd" d="M19.0909 15.005C18.1559 15.151 20.5129 16.604 20.5129 16.604C20.5129 16.604 20.5129 14.782 19.0909 15.005V15.005Z" fill="#FF6969"/>
<path fill-rule="evenodd" clip-rule="evenodd" d="M16.461 15.449C15.432 15.777 18.412 16.778 18.412 16.778C18.412 16.778 17.49 15.121 16.461 15.449V15.449Z" fill="#FF6969"/>
<path fill-rule="evenodd" clip-rule="evenodd" d="M13.762 16.202C12.344 16.79 16.27 17.585 16.27 17.585C16.27 17.585 15.179 15.613 13.762 16.202V16.202Z" fill="#FF6969"/>
<path fill-rule="evenodd" clip-rule="evenodd" d="M11.294 17.709C10.237 18.388 14.61 18.749 14.61 18.749C14.61 18.749 12.88 16.69 11.294 17.709V17.709Z" fill="#FF6969"/>
<path fill-rule="evenodd" clip-rule="evenodd" d="M10.2499 19.686C9.39293 20.296 11.8389 21.15 13.6459 19.951C13.6459 19.951 11.1079 19.077 10.2499 19.686V19.686Z" fill="#FF6969"/>
<path fill-rule="evenodd" clip-rule="evenodd" d="M10.829 21.922C10.411 22.207 10.829 22.899 11.667 22.736C13.119 22.455 13.453 21.276 13.453 21.276C13.453 21.276 11.667 21.349 10.829 21.922V21.922Z" fill="#FF6969"/>
<path fill-rule="evenodd" clip-rule="evenodd" d="M29.518 17.426C30.548 17.483 31.041 18.148 29.819 18.234C28.597 18.319 27.696 18.087 27.696 18.087C27.696 18.087 28.489 17.368 29.518 17.426V17.426Z" fill="#FF6969"/>
<path fill-rule="evenodd" clip-rule="evenodd" d="M15.5179 23.98C15.1749 24.559 16.504 25.16 16.9109 24.109C17.319 23.058 17.1209 22.651 17.1209 22.651C17.0399 22.694 15.8609 23.401 15.5179 23.98V23.98Z" fill="#FF6969"/>
<path fill-rule="evenodd" clip-rule="evenodd" d="M18.562 24.109C18.605 25.009 19.772 25.224 19.693 24.109C19.613 22.994 19.01 22.651 19.01 22.651C19.01 22.651 18.519 23.209 18.562 24.109V24.109Z" fill="#FF6969"/>
<path fill-rule="evenodd" clip-rule="evenodd" d="M21.2849 24.109C21.521 24.837 23.215 25.224 22.5289 23.937C21.8429 22.651 21.028 22.418 21.028 22.418C21.028 22.418 21.0489 23.38 21.2849 24.109V24.109Z" fill="#FF6969"/>
<path fill-rule="evenodd" clip-rule="evenodd" d="M24.823 24.109C25.723 24.902 26.667 24.301 25.831 23.401C24.994 22.501 23.454 22.243 23.454 22.243C23.454 22.243 23.922 23.316 24.823 24.109V24.109Z" fill="#FF6969"/>
<path fill-rule="evenodd" clip-rule="evenodd" d="M27.546 23.144C28.618 23.744 29.69 23.165 28.404 22.415C27.117 21.664 25.573 21.443 25.573 21.443C25.573 21.443 26.474 22.543 27.546 23.144V23.144Z" fill="#FF6969"/>
<path fill-rule="evenodd" clip-rule="evenodd" d="M30.097 21.643C31.234 21.821 31.963 20.614 30.676 20.399C29.39 20.185 27.139 20.232 27.139 20.232C27.139 20.232 28.961 21.465 30.097 21.643V21.643Z" fill="#FF6969"/>
<path fill-rule="evenodd" clip-rule="evenodd" d="M30.312 18.877C31.234 18.984 32.027 19.606 31.041 19.649C30.055 19.692 27.855 19.258 27.855 19.258C27.855 19.258 29.39 18.77 30.312 18.877V18.877Z" fill="#FF6969"/>
<path fill-rule="evenodd" clip-rule="evenodd" d="M36.681 14.545C35.487 14.257 36.185 13.185 35.055 13.546C31.161 14.7901 28.566 16.295 24.174 16.1581C17.735 15.958 11.248 15.056 4.823 14.5611C4.443 14.532 4.208 14.723 4.09998 14.982C2.76597 15.033 -0.486011 16.077 1.22997 17.487C1.92799 18.06 3.26699 19.016 2.66797 19.771C1.812 20.849 1.34799 22.5551 2.04097 23.558C2.53497 24.273 4.85597 22.467 6.72198 23.6C7.98399 24.366 6.04596 26.1231 8.67998 27.113C9.58798 27.454 11.216 25.774 11.993 25.943C14.397 26.465 13.224 29.531 14.876 30.313C16.955 31.2961 17.972 23.4581 21.048 28.015C22.264 29.817 23.307 31.171 24.539 31.037C27.896 30.673 27.301 26.915 27.716 26.573C29.821 24.842 31.473 28.795 34.654 27.418C36.501 26.619 34.671 23.9451 35.284 22.6091C36.465 20.0381 41.806 21.005 42.002 17.398C42.119 15.249 38.769 15.05 36.681 14.545V14.545Z" fill="#B4E20E"/>
<path fill-rule="evenodd" clip-rule="evenodd" d="M3.56492 20.295C2.88393 21.213 2.54392 21.859 3.13992 22.259C3.73493 22.659 8.07192 20.701 8.07192 20.701L6.82392 19.089C6.82392 19.089 4.24493 19.377 3.56492 20.295V20.295Z" fill="#A0C600"/>
<path fill-rule="evenodd" clip-rule="evenodd" d="M9.129 23.955C8.668 25.296 9.62399 25.806 11.102 24.871C12.58 23.935 12.819 23.443 12.819 23.443L10.115 22C10.115 22 9.59 22.615 9.129 23.955V23.955Z" fill="#A0C600"/>
<path fill-rule="evenodd" clip-rule="evenodd" d="M14.8259 28.151C14.9609 29.208 16.2729 27.934 16.4249 26.275C16.5769 24.615 14.8259 25.524 14.8259 25.524C14.8259 25.524 14.6909 27.095 14.8259 28.151V28.151Z" fill="#A0C600"/>
<path fill-rule="evenodd" clip-rule="evenodd" d="M23.372 28.151C24.316 29.293 26.032 28.528 25.579 26.907C25.127 25.286 24.089 24.581 24.089 24.581L21.043 25.451C21.043 25.451 22.428 27.01 23.372 28.151V28.151Z" fill="#A0C600"/>
<path fill-rule="evenodd" clip-rule="evenodd" d="M31.715 25.276C32.905 26.146 34.249 26.254 33.229 24.287C32.21 22.32 31.63 22.259 31.63 22.259L28.434 23.674C28.434 23.674 30.524 24.405 31.715 25.276V25.276Z" fill="#A0C600"/>
<path fill-rule="evenodd" clip-rule="evenodd" d="M40.1339 18.144C40.5589 17.046 38.0219 17.063 38.0219 17.063L35.7479 19.023C36.0519 18.917 39.7089 19.242 40.1339 18.144V18.144Z" fill="#A0C600"/>
<path fill-rule="evenodd" clip-rule="evenodd" d="M35.206 6.73501C31.912 2.64799 26.664 0 20.733 0C11.921 0 4.62399 5.84601 3 13.578C6.12702 20.56 15.934 20.355 23.231 19.3C32.081 18.019 35.636 12.808 35.206 6.73501V6.73501Z" fill="#D2742E"/>
<path fill-rule="evenodd" clip-rule="evenodd" d="M2.63397 16.42C2.79499 21.663 10.838 25.889 20.733 25.889C30.629 25.889 38.657 21.663 38.818 16.42C38.819 16.396 38.833 16.285 38.833 16.261C38.833 16.009 38.798 15.762 38.762 15.515C38.492 12.236 37.209 9.22002 35.206 6.73502C35.6359 12.808 32.081 18.019 23.2309 19.3C15.934 20.355 6.12696 20.56 2.99998 13.578C2.86695 14.214 2.75897 14.857 2.70398 15.515C2.66898 15.762 2.63397 16.009 2.63397 16.261C2.63397 16.29 2.63397 16.391 2.63397 16.42V16.42Z" fill="#B15312"/>
<path fill-rule="evenodd" clip-rule="evenodd" d="M15.03 5.58103C14.445 5.58103 13.97 5.22103 13.97 4.77703C13.97 4.33203 14.445 3.97203 15.03 3.97203C15.616 3.97203 16.091 4.33203 16.091 4.77703C16.091 5.22103 15.616 5.58103 15.03 5.58103V5.58103Z" fill="#B15312"/>
<path fill-rule="evenodd" clip-rule="evenodd" d="M21.374 14.276C20.788 14.276 20.313 13.916 20.313 13.472C20.313 13.028 20.788 12.668 21.374 12.668C21.959 12.668 22.434 13.028 22.434 13.472C22.434 13.916 21.959 14.276 21.374 14.276V14.276Z" fill="#B15312"/>
<path fill-rule="evenodd" clip-rule="evenodd" d="M10.27 7.99901C9.73596 8.23901 9.15497 8.106 8.97296 7.701C8.79097 7.29601 9.07596 6.773 9.60996 6.53201C10.144 6.29201 10.725 6.425 10.907 6.83001C11.089 7.23501 10.804 7.759 10.27 7.99901V7.99901Z" fill="#B15312"/>
<path fill-rule="evenodd" clip-rule="evenodd" d="M21.1099 3.62803C20.5249 3.62803 20.0499 3.26803 20.0499 2.82403C20.0499 2.38003 20.5249 2.01903 21.1099 2.01903C21.6959 2.01903 22.1709 2.38003 22.1709 2.82403C22.1709 3.26803 21.6959 3.62803 21.1099 3.62803V3.62803Z" fill="#B15312"/>
<path fill-rule="evenodd" clip-rule="evenodd" d="M23.4149 8.19202C22.8429 8.06802 22.4549 7.61601 22.5479 7.18201C22.642 6.74802 23.1819 6.49602 23.7549 6.62001C24.327 6.74301 24.7149 7.19501 24.6219 7.63001C24.528 8.06401 23.9879 8.31602 23.4149 8.19202V8.19202Z" fill="#B15312"/>
<path fill-rule="evenodd" clip-rule="evenodd" d="M28.2829 11.79C27.7709 11.504 27.5329 10.958 27.75 10.57C27.967 10.183 28.5569 10.1 29.0679 10.386C29.5789 10.672 29.8179 11.218 29.601 11.606C29.3839 11.993 28.7939 12.076 28.2829 11.79V11.79Z" fill="#B15312"/>
<path fill-rule="evenodd" clip-rule="evenodd" d="M15.117 11.888C14.535 11.951 14.024 11.644 13.976 11.202C13.928 10.761 14.361 10.352 14.944 10.288C15.526 10.225 16.037 10.532 16.085 10.973C16.132 11.415 15.699 11.824 15.117 11.888V11.888Z" fill="#B15312"/>
<path fill-rule="evenodd" clip-rule="evenodd" d="M9.90596 12.555C9.42596 12.891 8.82996 12.868 8.57596 12.503C8.32196 12.139 8.50397 11.572 8.98396 11.237C9.46396 10.901 10.06 10.924 10.314 11.288C10.569 11.652 10.386 12.22 9.90596 12.555V12.555Z" fill="#B15312"/>
<path fill-rule="evenodd" clip-rule="evenodd" d="M31.28 7.826C30.872 7.407 30.799 6.81501 31.117 6.50501C31.435 6.19601 32.025 6.285 32.433 6.70501C32.842 7.12401 32.915 7.716 32.596 8.02501C32.278 8.33501 31.689 8.24601 31.28 7.826V7.826Z" fill="#B15312"/>
<path fill-rule="evenodd" clip-rule="evenodd" d="M12.334 12.792C13.175 13.373 10.839 14.444 10.839 14.444C10.839 14.444 11.129 11.96 12.334 12.792V12.792Z" fill="#FFC648"/>
<path fill-rule="evenodd" clip-rule="evenodd" d="M26.83 3.23203C27.671 3.81202 25.335 4.88402 25.335 4.88402C25.335 4.88402 25.625 2.39903 26.83 3.23203V3.23203Z" fill="#FFC648"/>
<path fill-rule="evenodd" clip-rule="evenodd" d="M17.785 7.23801C19.232 6.52502 18.524 8.86401 18.524 8.86401C18.524 8.86401 16.729 7.75701 17.785 7.23801V7.23801Z" fill="#FFC648"/>
<path fill-rule="evenodd" clip-rule="evenodd" d="M7.29295 8.11802C8.74095 7.40602 8.03195 9.74502 8.03195 9.74502C8.03195 9.74502 6.23695 8.63802 7.29295 8.11802V8.11802Z" fill="#FFC648"/>
<path fill-rule="evenodd" clip-rule="evenodd" d="M17.3279 14.63C18.4439 14.576 17.1209 12.7 17.1209 12.7C17.1209 12.7 15.5999 14.715 17.3279 14.63V14.63Z" fill="#FFC648"/>
<path fill-rule="evenodd" clip-rule="evenodd" d="M25.319 11.041C24.427 12.7 22.691 10.28 22.691 10.28C22.691 10.28 25.671 10.385 25.319 11.041V11.041Z" fill="#FFC648"/>
<path fill-rule="evenodd" clip-rule="evenodd" d="M18.972 2.72003C18.08 4.37903 16.344 1.95903 16.344 1.95903C16.344 1.95903 19.325 2.06403 18.972 2.72003V2.72003Z" fill="#FFC648"/>
<path fill-rule="evenodd" clip-rule="evenodd" d="M29.519 8.22302C29.519 8.22302 26.634 8.42402 27.029 7.26502C27.485 5.92702 29.519 8.22302 29.519 8.22302V8.22302Z" fill="#FFC648"/>
<path fill-rule="evenodd" clip-rule="evenodd" d="M15.236 8.66501C15.236 8.66501 12.351 8.86601 12.746 7.70701C13.202 6.369 15.236 8.66501 15.236 8.66501V8.66501Z" fill="#FFC648"/>
</svg>
