<svg width="25" height="32" viewBox="0 0 25 32" fill="none" xmlns="http://www.w3.org/2000/svg">
<path fill-rule="evenodd" clip-rule="evenodd" d="M39.3598 6.44047C40.3173 5.68264 40.6485 5.25074 40.6497 4.88987C40.0746 4.2956 39.2859 3.64311 38.2277 2.93652C33.7494 -0.0535367 30.4916 -0.386498 29.0603 0.302681C28.0255 0.80095 15.8826 6.77048 9.49159 9.64933C3.84156 12.1947 4.64247 15.1731 4.64247 15.1731L12.4129 20.2236C14.1306 19.2702 15.1661 19.2562 16.9931 18.3825C20.6455 16.6352 25.2979 14.2912 28.8619 12.3693C32.3588 10.4823 37.4256 7.9701 39.3598 6.44047V6.44047Z" fill="#F9EACD"/>
<path fill-rule="evenodd" clip-rule="evenodd" d="M41.7364 6.40438C41.5344 5.95271 41.1893 5.44807 40.6497 4.88988C40.6485 5.25071 40.3174 5.68264 39.3599 6.44047C37.4257 7.97011 32.3589 10.4823 28.8619 12.3693C25.298 14.2912 20.6456 16.6352 16.9932 18.3825C15.1661 19.2562 14.1306 19.2702 12.413 20.2236L14.467 22.2078C16.9117 20.8493 19.4925 19.7131 21.9628 18.4186C25.2991 16.6701 39.6881 8.19304 40.056 7.99574C41.0624 7.455 41.5507 6.88461 41.7364 6.40438V6.40438Z" fill="#EAD7B5"/>
<path fill-rule="evenodd" clip-rule="evenodd" d="M41.184 8.66273C41.8446 8.2809 42.23 7.5074 41.7364 6.40437C41.5507 6.88454 41.0624 7.45497 40.056 7.99568C39.6881 8.193 25.2991 16.6701 21.9627 18.4186C19.4925 19.7131 16.9117 20.8493 14.467 22.2077L15.4303 23.1379C15.4303 23.1379 16.8063 22.9726 20.2399 20.9202C26.9452 16.9116 40.2836 9.18306 41.184 8.66273V8.66273Z" fill="#D6BD94"/>
<path fill-rule="evenodd" clip-rule="evenodd" d="M18.6031 11.0632C18.0618 10.7861 17.4152 10.796 17.0478 11.4275C16.7644 11.9147 17.0467 12.3617 17.315 12.7727C17.694 13.353 17.7772 14.1161 18.2079 14.6486C18.9565 15.5741 20.3575 14.9955 20.606 13.9461C20.7306 13.4182 20.5751 12.8862 20.2073 12.4927C20.0048 12.2756 19.567 11.6388 18.6031 11.0632V11.0632Z" fill="#EAD7B5"/>
<path fill-rule="evenodd" clip-rule="evenodd" d="M4.64249 15.173C4.28568 17.8784 5.58542 19.1334 9.044 21.5733C12.6918 24.1472 18.2242 24.316 17.1794 19.2032C16.0409 13.6335 14.0445 9.35075 14.0445 9.35075C14.0445 9.35075 5.33108 9.9514 4.64249 15.173V15.173Z" fill="#D6BD94"/>
<path fill-rule="evenodd" clip-rule="evenodd" d="M28.2263 7.70876C33.0573 5.67446 34.048 2.63264 34.048 2.63264C34.048 2.63264 32.3315 4.6675 27.7781 6.71406C24.1309 8.35426 14.0444 9.35078 14.0444 9.35078L13.254 10.2465C13.254 10.2465 22.1991 10.2465 28.2263 7.70876V7.70876Z" fill="#D6BD94"/>
<path fill-rule="evenodd" clip-rule="evenodd" d="M17.9814 11.4269C17.7964 11.4985 17.7015 11.6103 17.7201 11.7803C17.7079 11.8495 17.7073 11.9223 17.7207 11.9921C17.79 12.3472 17.9937 12.7511 18.1637 13.0689C18.3284 13.3774 18.5688 13.768 18.9151 13.8925C19.2044 13.9961 19.5222 13.8873 19.6601 13.605C19.8039 13.3117 19.7166 12.9449 19.6013 12.6568C19.3953 12.1429 18.489 11.2308 17.9814 11.4269V11.4269Z" fill="#D6BD94"/>
<path fill-rule="evenodd" clip-rule="evenodd" d="M21.3859 10.9072C21.1508 10.9526 21.0908 11.1656 21.149 11.3466C21.1706 11.4491 21.2224 11.5468 21.2736 11.6423C21.3783 11.8361 21.4814 12.0311 21.5879 12.2244C21.7014 12.4292 21.9627 12.4316 22.1245 12.2936C22.4022 12.0561 22.486 11.6359 22.3155 11.3111C22.1362 10.9677 21.7497 10.8367 21.3859 10.9072V10.9072Z" fill="#EAD7B5"/>
<path fill-rule="evenodd" clip-rule="evenodd" d="M23.9371 5.43004C23.039 5.68089 23.5372 6.41371 23.7758 6.47307C24.2502 6.59181 24.7787 6.67677 25.2362 6.44978C25.6477 6.24605 25.9009 5.85841 25.9225 5.40266C25.9353 5.13899 25.6559 4.94865 25.4138 5.015C24.9207 5.15004 24.4295 5.29207 23.9371 5.43004V5.43004Z" fill="#EAD7B5"/>
<path fill-rule="evenodd" clip-rule="evenodd" d="M19.6979 6.2589C19.5291 6.36656 19.5181 6.61919 19.6979 6.72453C20.1443 6.98647 21.0128 7.21172 21.4063 6.73967C21.5989 6.50859 21.5338 6.16051 21.2643 6.01967C20.986 5.87355 19.8138 6.18437 19.6979 6.2589V6.2589Z" fill="#EAD7B5"/>
<path fill-rule="evenodd" clip-rule="evenodd" d="M23.3643 12.6871C23.2682 12.9717 23.483 13.2546 23.7496 13.3413C24.0435 13.4368 24.3526 13.3082 24.5103 13.0439C24.5895 12.9106 24.8695 12.4711 24.8578 12.1685C24.8264 11.3338 24.4463 11.5224 24.1186 11.8257C23.9795 11.9659 23.4038 12.5707 23.3643 12.6871V12.6871Z" fill="#EAD7B5"/>
<path fill-rule="evenodd" clip-rule="evenodd" d="M8.39212 11.3664C6.44162 12.0271 4.58547 14.3518 5.01328 16.815C5.18906 17.8273 6.13547 18.8272 7.43931 19.9128C9.24655 21.4174 12.0265 22.7235 13.254 22.8609C14.8098 23.0343 16.0462 22.6484 16.4809 21.592C16.8785 20.6264 16.9181 19.8377 16.1346 17.1137C14.9629 13.0404 13.896 10.2361 13.896 10.2361C13.896 10.2361 10.3426 10.7058 8.39212 11.3664V11.3664Z" fill="#C4A578"/>
<path fill-rule="evenodd" clip-rule="evenodd" d="M14.8936 12.9805C13.9234 11.9269 12.3879 12.5882 11.0544 12.754C9.51255 12.9455 8.53992 12.0567 6.43113 12.6487C5.32113 13.176 4.15995 13.0719 3.4737 13.176C2.18618 13.3728 2.89572 14.4659 2.96963 14.5479C3.28803 14.8972 3.10467 15.1568 2.70655 15.3925C1.91147 15.8628 1.90626 16.9268 3.18851 16.9763C2.49934 17.5211 1.78748 18.1992 1.68623 18.893C1.5535 19.8063 2.52203 19.8935 3.35904 19.8965C2.94168 20.4814 2.60584 21.2375 3.50397 21.5122C4.48355 21.8126 5.13257 21.1595 5.92184 20.8743C5.59415 21.7474 5.08252 22.6589 6.27279 22.805C7.05627 22.901 7.53296 22.6106 7.86823 22.3848C7.36416 23.3312 7.44915 24.0197 7.67151 24.181C8.77451 24.9801 9.51953 23.7846 9.83557 23.3707C10.0794 24.0361 10.0358 24.9161 11.2127 24.8701C11.5625 24.8562 11.878 24.5657 12.1068 24.2712C12.4217 25.3207 13.676 25.2502 14.194 23.9802C14.3337 24.4284 14.7906 24.6734 15.0467 24.6775C16.5828 24.7013 16.7877 21.3883 16.7911 20.4977C16.7952 19.5577 16.3109 17.7353 16.1346 17.1137C15.5467 15.0421 15.2324 14.1452 14.8936 12.9805V12.9805Z" fill="#B4E20E"/>
<path fill-rule="evenodd" clip-rule="evenodd" d="M4.68616 14.1091C4.46783 14.3378 4.47131 14.669 4.66809 14.9129C4.81653 15.0968 4.99756 15.1708 5.19189 15.2016C4.87237 15.4519 4.61218 15.7656 4.56854 16.1492C4.51209 16.6439 4.87524 17.0112 5.35254 17.0543C5.9992 17.1119 6.54871 16.6317 6.92352 16.1626C7.5318 15.4012 7.87054 14.6521 8.79657 14.2255C7.69189 13.5049 6.73376 14.0858 5.86249 13.9799C5.49109 13.9345 4.98584 13.7936 4.68616 14.1091V14.1091Z" fill="#A0C600"/>
<path fill-rule="evenodd" clip-rule="evenodd" d="M15.6375 18.4798C15.3855 17.7289 14.942 15.758 14.754 14.4077C13.9688 14.6009 11.8862 15.2773 11.8553 16.3262C11.8431 16.7272 12.786 17.1847 12.2866 17.7365C12.2162 17.815 11.5247 18.3308 11.4438 18.4058C10.9607 18.8546 10.0236 19.7737 10.5038 20.2236C10.8682 20.5653 11.9607 20.1846 12.1801 20.3639C12.4892 20.6159 12.413 20.9855 11.9549 21.6293C11.6551 22.0501 11.6749 22.7206 12.1783 23.4767C12.9042 24.5646 13.2651 23.0605 13.9141 22.6088C14.5578 22.1612 14.9711 22.5611 15.5095 22.021C15.9478 21.5815 16.0595 21.1124 16.0479 20.5426C16.0327 19.7999 15.8715 19.1753 15.6375 18.4798V18.4798Z" fill="#A0C600"/>
<path fill-rule="evenodd" clip-rule="evenodd" d="M3.52957 18.531C4.12155 18.9296 4.14017 19.1869 4.81711 19.0769C5.66806 18.9395 6.8613 18.1759 7.4567 17.6113C6.35953 16.7592 5.03592 17.7603 4.00864 17.815C3.34567 17.8505 2.96964 18.1532 3.52957 18.531V18.531Z" fill="#A0C600"/>
<path fill-rule="evenodd" clip-rule="evenodd" d="M6.90955 19.7748C6.69245 20.0786 6.45032 20.4319 6.55041 20.8231C6.62961 21.1322 6.88861 21.3295 7.20291 21.3574C7.78207 21.4081 8.57074 20.9797 8.80591 20.4436C8.96945 20.0705 8.7663 19.8039 8.78262 19.4378C8.80008 19.049 8.98749 18.6741 9.37689 18.1858C8.3717 18.2708 7.25766 19.2888 6.90955 19.7748V19.7748Z" fill="#A0C600"/>
<path fill-rule="evenodd" clip-rule="evenodd" d="M9.60327 18.2696C11.1969 17.7236 12.2865 17.7365 12.2865 17.7365L12.4804 18.4506C12.4804 18.4506 10.8454 18.6066 9.68301 19.0356C8.52121 19.4646 6.88623 20.5123 6.88623 20.5123C6.88623 20.5123 7.5195 18.9843 9.60327 18.2696V18.2696Z" fill="#FF4343"/>
<path fill-rule="evenodd" clip-rule="evenodd" d="M7.60687 18.893C8.4765 18.0246 10.2768 17.315 10.2768 17.315L11.4141 17.8901C11.4141 17.8901 9.18543 18.6165 8.34961 19.1246C7.51379 19.6328 6.88629 20.5123 6.88629 20.5123C6.88629 20.5123 6.7373 19.7614 7.60687 18.893V18.893Z" fill="#ED2B2B"/>
<path fill-rule="evenodd" clip-rule="evenodd" d="M9.14529 20.8265C8.8013 20.9389 8.27683 21.3585 8.68893 21.7148C9.0062 21.9883 9.53757 21.7357 9.53757 21.7357C9.53757 21.7357 9.37869 22.3568 9.8641 22.4319C10.3502 22.5064 10.5736 21.9045 10.5736 21.9045C10.5736 21.9045 10.7581 22.4755 11.0818 22.4382C11.6179 22.376 11.6638 21.9755 11.4642 21.5599C11.2646 21.1438 10.2448 20.2236 10.2448 20.2236C10.2448 20.2236 9.48929 20.7148 9.14529 20.8265V20.8265Z" fill="#5E8E11"/>
<path fill-rule="evenodd" clip-rule="evenodd" d="M9.24191 19.6276C8.87229 19.9186 8.34961 20.5123 8.34961 20.5123C8.34961 20.5123 11.6568 20.3202 12.7127 20.152C13.7691 19.9838 15.9466 19.3191 15.9466 19.3191L16.4803 18.2976L16.2144 17.2737C16.2144 17.2737 12.1853 18.1189 11.5073 18.4355C11.5073 18.4355 10.1732 18.893 9.24191 19.6276V19.6276Z" fill="#EA8B4B"/>
<path fill-rule="evenodd" clip-rule="evenodd" d="M11.2587 19.7096C12.5078 19.3895 16.4111 17.9017 16.4111 17.9017L16.5555 18.9227C16.5555 18.9227 14.9798 20.1357 13.2726 20.3959C11.5649 20.6554 8.34961 20.5123 8.34961 20.5123C8.34961 20.5123 10.0096 20.0297 11.2587 19.7096V19.7096Z" fill="#D2742E"/>
<path fill-rule="evenodd" clip-rule="evenodd" d="M13.4473 22.1519C13.4659 22.5436 13.534 23.0035 13.534 23.0035C13.534 23.0035 14.1143 22.6967 14.194 22.1146C14.2738 21.532 13.7266 21.2002 13.7266 21.2002C13.7266 21.2002 13.4286 21.7596 13.4473 22.1519V22.1519Z" fill="#5E8E11"/>
<path fill-rule="evenodd" clip-rule="evenodd" d="M14.3826 20.2463C13.6439 20.9942 8.75177 21.2893 8.75177 21.2893C8.75177 21.2893 12.9833 21.7992 14.0491 21.4191C14.7708 21.1612 15.9006 19.624 16.5554 18.6584C16.5042 18.4326 16.45 18.2079 16.3924 17.9832C16.0053 18.4407 14.9751 19.6473 14.3826 20.2463V20.2463Z" fill="white"/>
<path fill-rule="evenodd" clip-rule="evenodd" d="M14.6498 20.5268C13.1475 21.6711 8.75177 21.2893 8.75177 21.2893C8.75177 21.2893 12.2726 22.752 14.6498 21.3359C15.6241 20.7556 16.2818 20.1147 16.7236 19.5589C16.6765 19.2323 16.6148 18.9081 16.5397 18.5856C16.0903 19.1584 15.4041 19.9529 14.6498 20.5268V20.5268Z" fill="#FFEECC"/>
<path fill-rule="evenodd" clip-rule="evenodd" d="M5.14072 16.8534C4.50632 16.8907 4.17862 16.9541 4.04007 17.2592C3.83228 17.7155 4.60931 17.7749 4.60931 17.7749C4.60931 17.7749 3.87186 18.1322 4.39456 18.5833C4.80838 18.9413 5.444 18.3744 5.444 18.3744C5.444 18.3744 5.32816 19.0787 5.73794 19.1002C6.36072 19.1334 6.32407 18.3016 6.42474 17.8761C6.52545 17.4506 6.71927 16.6067 6.71927 16.6067C6.71927 16.6067 5.77521 16.8162 5.14072 16.8534V16.8534Z" fill="#5E8E11"/>
<path fill-rule="evenodd" clip-rule="evenodd" d="M5.49402 14.2254C4.49405 14.5846 3.01678 15.8971 3.01678 15.8971C3.01678 15.8971 3.84155 16.4984 4.47424 16.5683C5.18085 16.6468 6.02191 16.3413 6.98175 15.8971C7.80478 15.5165 10.9467 13.2191 10.9467 13.2191C10.9467 13.2191 9.71567 12.7098 5.49402 14.2254V14.2254Z" fill="#EA8B4B"/>
<path fill-rule="evenodd" clip-rule="evenodd" d="M4.95096 15.9502C5.67154 15.7778 7.72272 14.4187 8.3717 14.2081C9.0213 13.9973 10.4182 13.6021 10.4182 13.6021C10.4182 13.6021 7.28617 15.9647 5.90726 16.3413C4.52842 16.7173 4.09881 16.7149 3.01678 15.8972C3.01678 15.8972 4.23035 16.1218 4.95096 15.9502V15.9502Z" fill="#D2742E"/>
<path fill-rule="evenodd" clip-rule="evenodd" d="M5.23731 15.4583C6.11389 15.1754 6.88629 14.6504 6.88629 14.6504C6.88629 14.6504 6.15112 14.8111 5.5918 14.9676C5.14539 15.0921 3.83746 15.6801 3.83746 15.6801C3.83746 15.6801 4.59766 15.6649 5.23731 15.4583V15.4583Z" fill="#D2742E"/>
<path fill-rule="evenodd" clip-rule="evenodd" d="M6.98181 14.3902C7.55103 14.24 8.0545 14.0142 8.0545 14.0142C8.0545 14.0142 6.57843 13.9519 5.61041 14.5625C5.61041 14.5625 6.41254 14.5404 6.98181 14.3902V14.3902Z" fill="#D2742E"/>
<path fill-rule="evenodd" clip-rule="evenodd" d="M12.3337 13.4618C9.65918 13.772 7.61093 15.0601 7.31292 15.9245C7.01489 16.7894 6.65869 17.7673 6.65869 17.7673L6.88629 18.6176C6.88629 18.6176 7.58007 15.4257 9.81171 14.6544C11.5223 14.0636 14.1294 14.1678 15.2789 14.2505C15.1806 13.8762 15.0863 13.5858 14.9827 13.3233C14.403 13.2231 13.5572 13.3198 12.3337 13.4618V13.4618Z" fill="#F7D48D"/>
<path fill-rule="evenodd" clip-rule="evenodd" d="M9.06729 13.7784C5.86829 15.0514 6.29727 18.1625 6.29727 18.1625L6.88632 18.0938C6.88632 18.0938 6.79321 15.6061 10.1831 14.151C11.6557 13.5182 13.8658 13.5835 15.0863 13.6836C15.0264 13.3792 14.96 13.1644 14.8937 12.9805C13.584 12.8408 11.2192 12.9228 9.06729 13.7784V13.7784Z" fill="white"/>
<path fill-rule="evenodd" clip-rule="evenodd" d="M6.29706 18.8077L6.88641 18.6175V18.0936L6.29706 18.1623V18.8077V18.8077Z" fill="white"/>
<path fill-rule="evenodd" clip-rule="evenodd" d="M11.0818 21.883C11.0818 21.883 13.676 18.5141 14.5566 17.8593C15.4373 17.205 16.0334 16.6561 16.0334 16.6561L15.8314 15.7342C15.8314 15.7342 14.7627 16.5252 13.4275 17.9268C12.5474 18.8499 11.5515 20.0385 10.6697 21.4407L11.0818 21.883V21.883Z" fill="#FEB52C"/>
<path fill-rule="evenodd" clip-rule="evenodd" d="M12.8198 17.3936C12.0166 18.237 9.86414 21.5215 9.86414 21.5215L10.6697 21.4406C10.6697 21.4406 12.6702 18.6194 13.6842 17.652C14.6987 16.6852 15.8314 15.7341 15.8314 15.7341L15.5456 15.0182C15.5456 15.0182 14.009 16.1451 12.8198 17.3936V17.3936Z" fill="#FFD654"/>
<path fill-rule="evenodd" clip-rule="evenodd" d="M6.93402 15.4309L6.52716 15.4716C6.52716 15.4716 7.53644 17.8761 9.53464 18.6229C11.5334 19.3697 13.1154 19.1747 14.6852 18.5694C15.3372 18.3179 15.8825 17.8535 16.3004 17.3965C16.1963 16.9332 16.063 16.4786 15.9006 16.0333L6.93402 15.4309V15.4309Z" fill="#ED2B2B"/>
<path fill-rule="evenodd" clip-rule="evenodd" d="M6.93402 15.4309C6.93402 15.4309 7.73083 16.8459 8.55792 17.4664C9.48809 18.1649 11.3373 18.8191 13.4932 18.4273C14.7178 18.2044 15.6212 17.4763 16.1736 16.8884C16.0933 16.5939 15.9995 16.3034 15.8942 16.0171L6.93402 15.4309V15.4309Z" fill="#FF4343"/>
<path fill-rule="evenodd" clip-rule="evenodd" d="M8.18369 16.233C7.82166 16.4844 9.39087 17.9419 11.0602 18.127C12.7296 18.3121 13.609 18.0065 14.4396 17.7126C15.2702 17.4186 16.1596 16.5467 15.2353 16.336C14.5887 16.1882 12.7418 16.9489 11.8623 16.8325C10.9834 16.7161 11.1505 16.3686 10.2639 16.0892C9.78027 15.9367 8.54574 15.9821 8.18369 16.233V16.233Z" fill="#FF6969"/>
<path fill-rule="evenodd" clip-rule="evenodd" d="M9.31467 16.7912C9.02069 16.9268 9.57718 17.2976 9.94617 17.0397C10.3146 16.7813 10.2756 16.506 10.2756 16.506C10.2756 16.506 9.608 16.6555 9.31467 16.7912V16.7912Z" fill="#ED2B2B"/>
<path fill-rule="evenodd" clip-rule="evenodd" d="M10.364 17.5269C10.3541 17.7085 10.7307 17.8214 10.8832 17.5461C11.0357 17.2714 10.9211 16.9186 10.9211 16.9186C10.9211 16.9186 10.3734 17.3453 10.364 17.5269V17.5269Z" fill="#ED2B2B"/>
<path fill-rule="evenodd" clip-rule="evenodd" d="M11.63 17.765C11.6685 17.9739 12.0706 17.7702 12.0567 17.6142C12.0433 17.4582 11.8029 17.1585 11.8029 17.1585C11.8029 17.1585 11.5613 17.3919 11.63 17.765V17.765Z" fill="#ED2B2B"/>
<path fill-rule="evenodd" clip-rule="evenodd" d="M12.7144 17.8354C12.8169 17.9204 13.2871 17.7359 13.1504 17.5281C13.0142 17.3209 12.6999 17.0613 12.6999 17.0613C12.6999 17.0613 12.5648 17.712 12.7144 17.8354V17.8354Z" fill="#ED2B2B"/>
<path fill-rule="evenodd" clip-rule="evenodd" d="M14.0543 17.3098C14.1899 17.4821 14.0857 17.8313 13.7824 17.517C13.4792 17.2027 13.3401 16.9157 13.3401 16.9157C13.3401 16.9157 13.9187 17.1369 14.0543 17.3098V17.3098Z" fill="#ED2B2B"/>
<path fill-rule="evenodd" clip-rule="evenodd" d="M14.7109 16.829C14.8855 17.0595 14.8797 17.361 14.5468 17.1479C14.2138 16.9349 13.9315 16.6608 13.9315 16.6608C13.9315 16.6608 14.5363 16.5991 14.7109 16.829V16.829Z" fill="#ED2B2B"/>
<path fill-rule="evenodd" clip-rule="evenodd" d="M4.98822 13.3484C1.15887 14.8355 0 16.4385 0 16.4385C0 16.4385 5.40844 14.0707 8.73492 13.4333C10.8559 13.0265 13.3081 12.7907 14.8104 12.6726C14.6614 12.2506 14.4944 11.835 14.3145 11.424C11.4682 11.761 7.36942 12.4235 4.98822 13.3484V13.3484Z" fill="#FFD654"/>
<path fill-rule="evenodd" clip-rule="evenodd" d="M7.5615 13.3221C3.9382 14.0887 0 16.4385 0 16.4385C0 16.4385 2.2904 15.3803 3.74961 14.9397C5.20825 14.4985 8.29023 13.6335 10.9147 13.3198C12.0614 13.183 13.5742 13.0672 14.9128 12.9805C14.8424 12.7663 14.7697 12.5527 14.6899 12.3419C12.4711 12.555 9.6348 12.8839 7.5615 13.3221V13.3221Z" fill="#FEB52C"/>
<path fill-rule="evenodd" clip-rule="evenodd" d="M9.72089 14.2005C9.53113 13.6463 10.1306 13.6684 10.1306 13.6684C10.1306 13.6684 9.82388 12.8588 10.2855 12.736C10.7465 12.6138 11.1015 13.0928 11.1015 13.0928C11.1015 13.0928 11.7039 12.6091 12.066 12.821C12.4286 13.0323 12.1841 13.4176 12.0159 13.6684C11.8477 13.9199 11.4566 14.669 11.4566 14.669C11.4566 14.669 9.91061 14.7546 9.72089 14.2005V14.2005Z" fill="#5E8E11"/>
<path fill-rule="evenodd" clip-rule="evenodd" d="M11.825 13.9245C10.814 14.4315 9.99035 14.9606 9.55902 16.0362C9.08935 17.2068 9.34778 18.0752 9.34778 18.0752C9.34778 18.0752 12.9292 16.1689 13.7283 15.6625C14.5275 15.1562 15.347 14.336 15.347 14.336L15.0141 13.3541C15.0141 13.3541 12.836 13.4175 11.825 13.9245V13.9245Z" fill="#EA8B4B"/>
<path fill-rule="evenodd" clip-rule="evenodd" d="M13.3547 16.3633C14.5025 15.637 15.6125 15.2871 15.6125 15.2871L15.2819 14.1935C15.2819 14.1935 10.2087 17.2697 9.34784 18.0752C9.34784 18.0752 12.2069 17.0898 13.3547 16.3633V16.3633Z" fill="#D2742E"/>
<path fill-rule="evenodd" clip-rule="evenodd" d="M11.5224 15.8797C11.9677 15.8396 12.6836 15.4763 12.6836 15.4763C12.6836 15.4763 12.1731 15.4333 11.5224 15.5014C11.1923 15.5362 10.2448 15.8797 10.2448 15.8797C10.2448 15.8797 11.0771 15.9193 11.5224 15.8797V15.8797Z" fill="#D2742E"/>
<path fill-rule="evenodd" clip-rule="evenodd" d="M12.4805 14.9949C12.8792 14.9204 13.6912 14.7243 13.6912 14.7243C13.6912 14.7243 13.5689 14.5974 12.6836 14.5642C11.7989 14.5299 11.0684 15.038 11.0684 15.038C11.1732 15.038 11.8664 15.109 12.4805 14.9949V14.9949Z" fill="#D2742E"/>
<path fill-rule="evenodd" clip-rule="evenodd" d="M14.0462 14.1935C14.591 14.1457 15.0217 14.0573 15.0217 14.0573C15.0217 14.0573 14.4513 13.9036 13.9955 13.9042C13.5392 13.9048 12.786 14.1568 12.786 14.1568C12.786 14.1568 13.5013 14.2412 14.0462 14.1935V14.1935Z" fill="#D2742E"/>
<path fill-rule="evenodd" clip-rule="evenodd" d="M4.04297 11.0492C4.04297 11.0492 6.09179 12.2203 9.54745 12.342C13.2098 12.4706 14.6137 12.1464 14.6137 12.1464L14.3145 11.4241L4.26706 10.7331L4.04297 11.0492V11.0492Z" fill="#FF4343"/>
<path fill-rule="evenodd" clip-rule="evenodd" d="M10.3705 12.0061C13.5224 11.9636 14.4799 11.8146 14.4799 11.8146L14.1131 10.8886C14.1131 10.8886 11.3309 11.1913 9.27685 11.0777C7.22278 10.9642 4.26709 10.7331 4.26709 10.7331C4.26709 10.7331 7.21926 12.0492 10.3705 12.0061V12.0061Z" fill="#ED2B2B"/>
<path fill-rule="evenodd" clip-rule="evenodd" d="M9.8642 21.5216L10.5175 21.9882L11.0817 21.8833L10.6695 21.4408L9.8642 21.5216V21.5216Z" fill="#FFE292"/>
<path fill-rule="evenodd" clip-rule="evenodd" d="M7.56958 18.4506C7.17786 18.4943 6.71747 18.9139 6.71747 18.9139C6.71747 18.9139 7.34784 19.1089 7.78494 18.9139C8.22266 18.7183 8.34952 18.4506 8.34952 18.4506C8.34952 18.4506 7.96133 18.407 7.56958 18.4506V18.4506Z" fill="#5E8E11"/>
<path fill-rule="evenodd" clip-rule="evenodd" d="M7.14066 14.208C7.6814 14.2772 8.34958 14.2871 8.34958 14.2871C8.34958 14.2871 8.01199 13.8779 7.59463 13.6951C7.17789 13.5119 6.39386 13.5119 6.39386 13.5119C6.39386 13.5119 6.59934 14.1387 7.14066 14.208V14.208Z" fill="#5E8E11"/>
<path fill-rule="evenodd" clip-rule="evenodd" d="M15.8313 19.6718C15.7056 20.0618 15.6125 21.032 15.6125 21.032C15.6125 21.032 16.3307 20.5338 16.4803 20.3604C16.7236 20.0781 16.7585 19.7736 16.7585 19.7736L16.6212 19.1246C16.5449 19.1473 15.9576 19.2812 15.8313 19.6718V19.6718Z" fill="#5E8E11"/>
<path fill-rule="evenodd" clip-rule="evenodd" d="M13.3401 12.5602C13.8209 12.7098 14.2825 12.7162 14.2825 12.7162C14.2825 12.7162 14.0758 12.3914 13.7266 12.1312C13.1754 11.7208 12.786 11.8327 12.786 11.8327C12.786 11.8327 12.8599 12.4112 13.3401 12.5602V12.5602Z" fill="#5E8E11"/>
<path fill-rule="evenodd" clip-rule="evenodd" d="M52.9712 13.4118C53.9287 12.6545 54.2593 12.2226 54.261 11.8617C53.6854 11.2675 52.8973 10.615 51.8391 9.90838C47.3607 6.91835 44.103 6.58543 42.6717 7.27452C41.6362 7.77281 29.4939 13.7424 23.103 16.6212C17.4529 19.1665 18.2539 22.1449 18.2539 22.1449L26.0243 27.1954C27.7414 26.2426 28.7774 26.2281 30.6039 25.3544C34.2569 23.6071 38.9093 21.2637 42.4727 19.3411C45.9702 17.4541 51.037 14.942 52.9712 13.4118V13.4118Z" fill="#F9EACD"/>
<path fill-rule="evenodd" clip-rule="evenodd" d="M18.2539 22.1449C17.8965 24.8503 19.1968 26.1053 22.6548 28.5452C26.3031 31.1191 31.8356 31.2885 30.7908 26.1751C29.6523 20.6054 27.6558 16.3226 27.6558 16.3226C27.6558 16.3226 18.9424 16.9233 18.2539 22.1449V22.1449Z" fill="#D6BD94"/>
<path fill-rule="evenodd" clip-rule="evenodd" d="M22.0035 18.3383C20.053 18.9989 18.1969 21.3237 18.6247 23.7869C18.8005 24.7991 19.7469 25.7991 21.0501 26.8846C22.858 28.3892 25.6379 29.6954 26.8654 29.8327C28.4213 30.0062 29.6575 29.6203 30.0923 28.5639C30.4899 27.5982 30.5294 26.8096 29.746 24.0855C28.5743 20.0123 27.5074 17.2079 27.5074 17.2079C27.5074 17.2079 23.954 17.6777 22.0035 18.3383V18.3383Z" fill="#C4A578"/>
<path fill-rule="evenodd" clip-rule="evenodd" d="M28.5051 19.9523C27.5347 18.8988 25.9993 19.56 24.6658 19.7259C23.124 19.9174 22.1513 19.0286 20.0425 19.6206C18.9325 20.1479 17.7714 20.0437 17.0851 20.1479C15.7976 20.3446 16.5071 21.4377 16.5811 21.5198C16.8989 21.869 16.7161 22.1286 16.3179 22.3644C15.5229 22.8346 15.5176 23.8986 16.7999 23.9476C16.1107 24.4929 15.3983 25.171 15.2976 25.8649C15.1649 26.7781 16.1334 26.866 16.9705 26.8683C16.5531 27.4533 16.2173 28.2094 17.1154 28.4841C18.0944 28.7844 18.744 28.1314 19.5333 27.8462C19.2056 28.7193 18.6934 29.6308 19.8842 29.7768C20.6677 29.8729 21.1444 29.5824 21.4796 29.3566C20.9756 30.303 21.0605 30.9916 21.2829 31.1528C22.3859 31.952 23.1309 30.7565 23.4464 30.3426C23.6909 31.0085 23.6472 31.888 24.8242 31.8414C25.1733 31.828 25.4894 31.5376 25.7182 31.243C26.0331 32.2925 27.2868 32.2221 27.8054 30.952C27.9451 31.4002 28.4014 31.6452 28.6581 31.6493C30.1942 31.6732 30.3985 28.3601 30.4025 27.4696C30.4061 26.5296 29.9224 24.7077 29.746 24.0855C29.1581 22.014 28.8438 21.117 28.5051 19.9523V19.9523Z" fill="#B4E20E"/>
<path fill-rule="evenodd" clip-rule="evenodd" d="M18.297 21.0809C18.0793 21.3097 18.0822 21.6409 18.2795 21.8847C18.4279 22.0687 18.609 22.1426 18.8034 22.1734C18.4838 22.4237 18.2236 22.7381 18.18 23.121C18.1235 23.6158 18.4867 23.983 18.964 24.0261C19.6107 24.0838 20.1602 23.6036 20.535 23.1344C21.1432 22.3731 21.482 21.624 22.4075 21.1973C21.3033 20.4768 20.3452 21.0577 19.4739 20.9517C19.102 20.9063 18.5973 20.7655 18.297 21.0809V21.0809Z" fill="#A0C600"/>
<path fill-rule="evenodd" clip-rule="evenodd" d="M29.2489 25.4516C28.9969 24.7007 28.5534 22.7299 28.3648 21.3795C27.5796 21.5728 25.4976 22.2497 25.4662 23.298C25.4545 23.699 26.3969 24.1565 25.898 24.7089C25.8276 24.7869 25.1361 25.3026 25.0552 25.3777C24.5715 25.8264 23.6344 26.7455 24.1152 27.1954C24.4796 27.5371 25.5721 27.1565 25.7915 27.3357C26.1006 27.5878 26.0244 27.9574 25.5663 28.6011C25.2665 29.0219 25.2863 29.6925 25.7898 30.4486C26.5156 31.537 26.8765 30.0324 27.5255 29.5807C28.1692 29.1331 28.5825 29.533 29.1209 28.9928C29.5592 28.5534 29.6704 28.0842 29.6593 27.5144C29.6442 26.7723 29.4824 26.1477 29.2489 25.4516V25.4516Z" fill="#A0C600"/>
<path fill-rule="evenodd" clip-rule="evenodd" d="M17.141 25.5028C17.7324 25.9015 17.7516 26.1588 18.4285 26.0488C19.2795 25.9114 20.4727 25.1478 21.0675 24.5832C19.9704 23.731 18.6473 24.7322 17.62 24.7869C16.9565 24.8224 16.581 25.125 17.141 25.5028V25.5028Z" fill="#A0C600"/>
<path fill-rule="evenodd" clip-rule="evenodd" d="M20.521 26.7467C20.3039 27.0505 20.0617 27.4038 20.1618 27.7955C20.241 28.104 20.5 28.3013 20.8143 28.3293C21.3935 28.38 22.1822 27.9516 22.4173 27.4155C22.5809 27.0424 22.3777 26.7758 22.394 26.4097C22.4115 26.0208 22.5989 25.646 22.9877 25.1577C21.9831 25.2427 20.869 26.2607 20.521 26.7467V26.7467Z" fill="#A0C600"/>
<path fill-rule="evenodd" clip-rule="evenodd" d="M23.2147 25.2415C24.8084 24.6955 25.898 24.7089 25.898 24.7089L26.0912 25.4225C26.0912 25.4225 24.4568 25.5779 23.2945 26.0075C22.1327 26.4364 20.4977 27.4841 20.4977 27.4841C20.4977 27.4841 21.131 25.9562 23.2147 25.2415V25.2415Z" fill="#FF4343"/>
<path fill-rule="evenodd" clip-rule="evenodd" d="M21.2183 25.8649C22.0873 24.9964 23.8876 24.2869 23.8876 24.2869L25.025 24.862C25.025 24.862 22.7968 25.5884 21.961 26.0965C21.1252 26.6047 20.4977 27.4841 20.4977 27.4841C20.4977 27.4841 20.3487 26.7333 21.2183 25.8649V25.8649Z" fill="#ED2B2B"/>
<path fill-rule="evenodd" clip-rule="evenodd" d="M22.7567 27.7984C22.4127 27.9108 21.8876 28.3304 22.3003 28.6866C22.6175 28.9602 23.149 28.7076 23.149 28.7076C23.149 28.7076 22.9895 29.3287 23.4755 29.4032C23.9609 29.4783 24.185 28.8764 24.185 28.8764C24.185 28.8764 24.3695 29.4474 24.6931 29.4095C25.2292 29.3479 25.2752 28.9474 25.0756 28.5318C24.8753 28.1156 23.8556 27.1954 23.8556 27.1954C23.8556 27.1954 23.1006 27.6867 22.7567 27.7984V27.7984Z" fill="#5E8E11"/>
<path fill-rule="evenodd" clip-rule="evenodd" d="M22.8527 26.5994C22.4836 26.8904 21.961 27.4841 21.961 27.4841C21.961 27.4841 25.2682 27.292 26.3241 27.1239C27.3805 26.9556 29.5574 26.2909 29.5574 26.2909L30.0917 25.2694L29.8257 24.2456C29.8257 24.2456 25.7961 25.0907 25.1186 25.4074C25.1186 25.4074 23.7845 25.8649 22.8527 26.5994V26.5994Z" fill="#EA8B4B"/>
<path fill-rule="evenodd" clip-rule="evenodd" d="M24.8701 26.6815C26.1192 26.3613 30.0225 24.8742 30.0225 24.8742L30.1668 25.8945C30.1668 25.8945 28.5912 27.1075 26.8834 27.3677C25.1763 27.6273 21.961 27.4841 21.961 27.4841C21.961 27.4841 23.621 27.0016 24.8701 26.6815V26.6815Z" fill="#D2742E"/>
<path fill-rule="evenodd" clip-rule="evenodd" d="M27.994 27.2181C27.2554 27.9661 22.3626 28.2611 22.3626 28.2611C22.3626 28.2611 26.5948 28.7711 27.6599 28.3909C28.3823 28.1331 29.512 26.5959 30.1668 25.6303C30.1156 25.405 30.0615 25.1798 30.0038 24.9551C29.6168 25.4126 28.5859 26.6192 27.994 27.2181V27.2181Z" fill="white"/>
<path fill-rule="evenodd" clip-rule="evenodd" d="M28.2612 27.4993C26.7583 28.643 22.3626 28.2612 22.3626 28.2612C22.3626 28.2612 25.8841 29.7239 28.2612 28.3078C29.235 27.7274 29.8933 27.0866 30.3351 26.5307C30.2879 26.2042 30.2256 25.88 30.1511 25.5575C29.7012 26.1303 29.015 26.9248 28.2612 27.4993V27.4993Z" fill="#FFEECC"/>
<path fill-rule="evenodd" clip-rule="evenodd" d="M18.7521 23.8254C18.1177 23.8626 17.79 23.926 17.6515 24.231C17.4437 24.6874 18.2207 24.7467 18.2207 24.7467C18.2207 24.7467 17.4832 25.1041 18.006 25.5552C18.4198 25.9131 19.0554 25.3462 19.0554 25.3462C19.0554 25.3462 18.9395 26.0505 19.3493 26.0721C19.9721 26.1053 19.9349 25.274 20.0362 24.8486C20.1368 24.4231 20.3307 23.5785 20.3307 23.5785C20.3307 23.5785 19.3866 23.7881 18.7521 23.8254V23.8254Z" fill="#5E8E11"/>
<path fill-rule="evenodd" clip-rule="evenodd" d="M19.1048 21.1974C18.1048 21.5565 16.6276 22.869 16.6276 22.869C16.6276 22.869 17.4529 23.4703 18.085 23.5401C18.7922 23.6187 19.6333 23.3131 20.5931 22.869C21.4161 22.4883 24.5581 20.191 24.5581 20.191C24.5581 20.191 23.3264 19.6817 19.1048 21.1974V21.1974Z" fill="#EA8B4B"/>
<path fill-rule="evenodd" clip-rule="evenodd" d="M18.5624 22.922C19.283 22.7496 21.3341 21.3906 21.9832 21.1799C22.6321 20.9692 24.0296 20.574 24.0296 20.574C24.0296 20.574 20.897 22.9365 19.5187 23.3131C18.1398 23.6892 17.7102 23.6868 16.6276 22.869C16.6276 22.869 17.8418 23.0937 18.5624 22.922V22.922Z" fill="#D2742E"/>
<path fill-rule="evenodd" clip-rule="evenodd" d="M18.8481 22.4301C19.7252 22.1472 20.4977 21.6223 20.4977 21.6223C20.4977 21.6223 19.7625 21.7829 19.2032 21.9395C18.7567 22.0646 17.4489 22.6519 17.4489 22.6519C17.4489 22.6519 18.209 22.6368 18.8481 22.4301V22.4301Z" fill="#D2742E"/>
<path fill-rule="evenodd" clip-rule="evenodd" d="M20.5931 21.362C21.1624 21.2118 21.6658 20.9855 21.6658 20.9855C21.6658 20.9855 20.1897 20.9238 19.2218 21.5343C19.2218 21.5343 20.0238 21.5122 20.5931 21.362V21.362Z" fill="#D2742E"/>
<path fill-rule="evenodd" clip-rule="evenodd" d="M25.9452 20.4337C23.2707 20.744 21.2224 22.032 20.9244 22.8964C20.6263 23.7614 20.2701 24.7392 20.2701 24.7392L20.4977 25.5896C20.4977 25.5896 21.1909 22.3976 23.4231 21.6263C25.1338 21.0356 27.7408 21.1397 28.8904 21.2224C28.792 20.8481 28.6977 20.5577 28.5941 20.2957C28.0144 20.1951 27.1687 20.2917 25.9452 20.4337V20.4337Z" fill="#F7D48D"/>
<path fill-rule="evenodd" clip-rule="evenodd" d="M22.6786 20.7503C19.4796 22.0233 19.908 25.1344 19.908 25.1344L20.4977 25.0657C20.4977 25.0657 20.4045 22.578 23.7944 21.1228C25.267 20.4901 27.4771 20.5553 28.6977 20.6554C28.6377 20.351 28.5714 20.1363 28.505 19.9523C27.1948 19.8126 24.8305 19.8947 22.6786 20.7503V20.7503Z" fill="white"/>
<path fill-rule="evenodd" clip-rule="evenodd" d="M19.9083 25.7796L20.4976 25.5895V25.0655L19.9083 25.1342V25.7796V25.7796Z" fill="white"/>
<path fill-rule="evenodd" clip-rule="evenodd" d="M24.6932 28.8555C24.6932 28.8555 27.2874 25.4859 28.1681 24.8311C29.0487 24.1769 29.6447 23.628 29.6447 23.628L29.4428 22.706C29.4428 22.706 28.3741 23.4971 27.0389 24.8987C26.1588 25.8218 25.1629 27.0109 24.2805 28.4125L24.6932 28.8555V28.8555Z" fill="#FEB52C"/>
<path fill-rule="evenodd" clip-rule="evenodd" d="M26.4311 24.3655C25.6279 25.2089 23.4755 28.4934 23.4755 28.4934L24.2805 28.4125C24.2805 28.4125 26.281 25.5913 27.2955 24.6239C28.31 23.6571 29.4427 22.706 29.4427 22.706L29.1569 21.9901C29.1569 21.9901 27.6203 23.117 26.4311 24.3655V24.3655Z" fill="#FFD654"/>
<path fill-rule="evenodd" clip-rule="evenodd" d="M20.5454 22.4028L20.1385 22.4435C20.1385 22.4435 21.1472 24.848 23.146 25.5948C25.1448 26.3416 26.7263 26.1466 28.2966 25.5412C28.9485 25.2898 29.494 24.8253 29.9118 24.3684C29.8077 23.9051 29.6744 23.4505 29.512 23.0052L20.5454 22.4028V22.4028Z" fill="#ED2B2B"/>
<path fill-rule="evenodd" clip-rule="evenodd" d="M20.5454 22.4028C20.5454 22.4028 21.3423 23.8178 22.1688 24.4382C23.0995 25.1367 24.9487 25.7909 27.104 25.3992C28.3293 25.1763 29.2326 24.4481 29.7844 23.8608C29.7041 23.5658 29.6109 23.2753 29.5056 22.9889L20.5454 22.4028V22.4028Z" fill="#FF4343"/>
<path fill-rule="evenodd" clip-rule="evenodd" d="M21.7951 23.2048C21.4325 23.4563 23.0023 24.9137 24.6716 25.0988C26.3409 25.2845 27.2204 24.9783 28.051 24.6844C28.8816 24.3905 29.771 23.5186 28.8467 23.3078C28.1995 23.16 26.3532 23.9207 25.4737 23.8043C24.5948 23.6879 24.7618 23.3399 23.8754 23.061C23.3911 22.9086 22.1571 22.954 21.7951 23.2048V23.2048Z" fill="#FF6969"/>
<path fill-rule="evenodd" clip-rule="evenodd" d="M22.9254 23.763C22.6321 23.8986 23.1885 24.2694 23.557 24.0116C23.926 23.7531 23.8864 23.4778 23.8864 23.4778C23.8864 23.4778 23.2194 23.6274 22.9254 23.763V23.763Z" fill="#ED2B2B"/>
<path fill-rule="evenodd" clip-rule="evenodd" d="M23.9755 24.4988C23.9656 24.6804 24.3422 24.7933 24.4947 24.518C24.6472 24.2433 24.5325 23.8905 24.5325 23.8905C24.5325 23.8905 23.9848 24.3172 23.9755 24.4988V24.4988Z" fill="#ED2B2B"/>
<path fill-rule="evenodd" clip-rule="evenodd" d="M18.5996 20.3202C14.7703 21.8067 13.6114 23.4103 13.6114 23.4103C13.6114 23.4103 19.0199 21.0425 22.3463 20.4051C24.4673 19.9983 26.9195 19.7625 28.4218 19.6444C28.2728 19.2224 28.1052 18.8068 27.9259 18.3959C25.079 18.7329 20.9808 19.3953 18.5996 20.3202V20.3202Z" fill="#FFD654"/>
<path fill-rule="evenodd" clip-rule="evenodd" d="M21.1723 20.294C17.549 21.0605 13.6114 23.4103 13.6114 23.4103C13.6114 23.4103 15.9012 22.3521 17.3604 21.9115C18.8196 21.4703 21.9016 20.6054 24.5261 20.2916C25.6728 20.1549 27.1849 20.039 28.5243 19.9523C28.4539 19.7381 28.3811 19.5245 28.3013 19.3138C26.0825 19.5268 23.2462 19.8557 21.1723 20.294V20.294Z" fill="#FEB52C"/>
<path fill-rule="evenodd" clip-rule="evenodd" d="M23.3323 21.1723C23.1425 20.6182 23.742 20.6403 23.742 20.6403C23.742 20.6403 23.4352 19.8307 23.8969 19.7079C24.3578 19.5856 24.7123 20.0647 24.7123 20.0647C24.7123 20.0647 25.3147 19.581 25.6774 19.7929C26.04 20.0042 25.7955 20.3894 25.6273 20.6403C25.4591 20.8918 25.0679 21.6409 25.0679 21.6409C25.0679 21.6409 23.522 21.7265 23.3323 21.1723V21.1723Z" fill="#5E8E11"/>
<path fill-rule="evenodd" clip-rule="evenodd" d="M25.4364 20.8964C24.4254 21.4034 23.6018 21.9325 23.1705 23.0081C22.7007 24.1792 22.9592 25.0471 22.9592 25.0471C22.9592 25.0471 26.5406 23.1408 27.3397 22.6344C28.1389 22.1281 28.9584 21.3079 28.9584 21.3079L28.6249 20.326C28.6249 20.326 26.4474 20.3894 25.4364 20.8964V20.8964Z" fill="#EA8B4B"/>
<path fill-rule="evenodd" clip-rule="evenodd" d="M26.9655 23.3353C28.1133 22.6088 29.2238 22.259 29.2238 22.259L28.8932 21.1653C28.8932 21.1653 23.8195 24.2415 22.9592 25.0471C22.9592 25.0471 25.8177 24.0616 26.9655 23.3353V23.3353Z" fill="#D2742E"/>
<path fill-rule="evenodd" clip-rule="evenodd" d="M25.1338 22.8515C25.579 22.8114 26.295 22.4482 26.295 22.4482C26.295 22.4482 25.7845 22.4051 25.1338 22.4738C24.8038 22.5081 23.8556 22.8515 23.8556 22.8515C23.8556 22.8515 24.6885 22.8911 25.1338 22.8515V22.8515Z" fill="#D2742E"/>
<path fill-rule="evenodd" clip-rule="evenodd" d="M17.6544 18.021C17.6544 18.021 19.7032 19.1922 23.1589 19.3138C26.8206 19.4425 28.2245 19.1182 28.2245 19.1182L27.9259 18.3959L17.8779 17.705L17.6544 18.021V18.021Z" fill="#FF4343"/>
<path fill-rule="evenodd" clip-rule="evenodd" d="M23.9818 18.978C27.1331 18.9355 28.0912 18.7865 28.0912 18.7865L27.7244 17.8604C27.7244 17.8604 24.9422 18.1631 22.8881 18.0496C20.8341 17.9361 17.8778 17.705 17.8778 17.705C17.8778 17.705 20.83 19.021 23.9818 18.978V18.978Z" fill="#ED2B2B"/>
<path fill-rule="evenodd" clip-rule="evenodd" d="M23.4755 28.4935L24.1288 28.9601L24.6929 28.8552L24.2807 28.4127L23.4755 28.4935V28.4935Z" fill="#FFE292"/>
<path fill-rule="evenodd" clip-rule="evenodd" d="M21.181 25.4225C20.7893 25.4662 20.3289 25.8859 20.3289 25.8859C20.3289 25.8859 20.9587 26.0814 21.3964 25.8859C21.8341 25.6903 21.961 25.4225 21.961 25.4225C21.961 25.4225 21.5728 25.3789 21.181 25.4225V25.4225Z" fill="#5E8E11"/>
<path fill-rule="evenodd" clip-rule="evenodd" d="M20.7514 21.1799C21.2928 21.2491 21.961 21.259 21.961 21.259C21.961 21.259 21.6228 20.8499 21.2061 20.6671C20.7893 20.4843 20.0052 20.4843 20.0052 20.4843C20.0052 20.4843 20.2108 21.1106 20.7514 21.1799V21.1799Z" fill="#5E8E11"/>
</svg>
