<svg width="52" height="34" viewBox="0 0 52 34" fill="none" xmlns="http://www.w3.org/2000/svg">
<path fill-rule="evenodd" clip-rule="evenodd" d="M25.6489 6.67525C39.8144 6.67525 51.2978 12.7836 51.2978 20.3186C51.2978 27.8536 39.8144 33.962 25.6489 33.962C11.4834 33.962 0 27.8536 0 20.3186C0 12.7836 11.4834 6.67525 25.6489 6.67525V6.67525Z" fill="#BF6122"/>
<path fill-rule="evenodd" clip-rule="evenodd" d="M51.2979 17.5428V20.8885H0.0214233V17.5428H51.2979V17.5428Z" fill="#BF6122"/>
<path fill-rule="evenodd" clip-rule="evenodd" d="M25.6489 4.38142C39.8144 4.38142 51.2978 10.4898 51.2978 18.0248C51.2978 25.5598 39.8144 31.6681 25.6489 31.6681C11.4834 31.6681 0 25.5598 0 18.0248C0 10.4898 11.4834 4.38142 25.6489 4.38142V4.38142Z" fill="#ED9051"/>
<path fill-rule="evenodd" clip-rule="evenodd" d="M25.6245 5.80244C38.5574 5.80244 49.0784 11.1244 49.0784 17.6663C49.0784 24.2088 38.5574 29.5313 25.6245 29.5313C12.6922 29.5313 2.1712 24.2088 2.1712 17.6663C2.1712 11.1244 12.6922 5.80244 25.6245 5.80244V5.80244ZM25.6245 28.9577C38.2407 28.9577 48.5048 23.8927 48.5048 17.6663C48.5048 11.4411 38.2407 6.37555 25.6245 6.37555C13.0089 6.37555 2.74487 11.4411 2.74487 17.6663C2.74487 23.8927 13.0089 28.9577 25.6245 28.9577V28.9577Z" fill="#BF6122"/>
<path fill-rule="evenodd" clip-rule="evenodd" d="M12.338 8.32205L17.609 9.38074L18.2454 2.54605L13.7339 1.60233L12.338 8.32205V8.32205Z" fill="#FFD364"/>
<path fill-rule="evenodd" clip-rule="evenodd" d="M13.5391 3.57785L14.3188 4.58244L14.5933 3.24968L13.5391 3.57785V3.57785Z" fill="#71AA21"/>
<path fill-rule="evenodd" clip-rule="evenodd" d="M17.0855 7.02864L17.6029 8.21346L18.7096 7.2699L17.8976 6.4776L17.0855 7.02864V7.02864Z" fill="#71AA21"/>
<path fill-rule="evenodd" clip-rule="evenodd" d="M20.106 8.1683L24.9523 5.84077L21.3462 0L17.1755 1.96225L20.106 8.1683V8.1683Z" fill="#FFD364"/>
<path fill-rule="evenodd" clip-rule="evenodd" d="M18.2092 3.65694L19.4365 3.98981L18.8534 2.76031L18.2092 3.65694V3.65694Z" fill="#71AA21"/>
<path fill-rule="evenodd" clip-rule="evenodd" d="M23.1184 4.27765L24.2448 4.91229L24.5605 3.49272L23.4352 3.34879L23.1184 4.27765V4.27765Z" fill="#71AA21"/>
<path fill-rule="evenodd" clip-rule="evenodd" d="M10.2127 13.3001C13.2726 12.8555 15.0838 9.37181 15.0838 9.37181L4.29346 11.25C4.29346 11.25 6.01446 13.9099 10.2127 13.3001V13.3001Z" fill="#D37C00"/>
<path fill-rule="evenodd" clip-rule="evenodd" d="M4.29346 11.25C4.29346 11.25 5.56759 13.778 8.86702 13.6461C11.4818 13.5419 12.8201 10.8043 12.8201 10.8043L7.35396 5.8909L4.29346 11.25V11.25Z" fill="#FFD364"/>
<path fill-rule="evenodd" clip-rule="evenodd" d="M9.7455 4.92593L15.0838 9.37158L12.8199 10.8041L7.35413 5.89087L9.7455 4.92593V4.92593Z" fill="#F9BD3A"/>
<path fill-rule="evenodd" clip-rule="evenodd" d="M5.56775 11.6816L6.75871 11.2357L5.56775 9.92659V11.6816V11.6816Z" fill="#71AA21"/>
<path fill-rule="evenodd" clip-rule="evenodd" d="M10.1841 8.94968L10.7015 10.1345L11.8082 9.19099L10.9961 8.39859L10.1841 8.94968V8.94968Z" fill="#71AA21"/>
<path fill-rule="evenodd" clip-rule="evenodd" d="M23.8015 10.7479C26.8615 10.3038 28.6726 6.81958 28.6726 6.81958L17.8823 8.69781C17.8823 8.69781 19.6027 11.3576 23.8015 10.7479V10.7479Z" fill="#D37C00"/>
<path fill-rule="evenodd" clip-rule="evenodd" d="M17.8823 8.69782C17.8823 8.69782 19.1564 11.2258 22.4558 11.0945C25.0706 10.9902 26.409 8.25208 26.409 8.25208L20.9428 3.33871L17.8823 8.69782V8.69782Z" fill="#FFE3A6"/>
<path fill-rule="evenodd" clip-rule="evenodd" d="M23.3342 2.37399L28.6726 6.8197L26.4087 8.25217L20.9429 3.33897L23.3342 2.37399V2.37399Z" fill="#F9BD3A"/>
<path fill-rule="evenodd" clip-rule="evenodd" d="M19.1566 9.12964L20.3475 8.68379L19.1566 7.37466V9.12964V9.12964Z" fill="#71AA21"/>
<path fill-rule="evenodd" clip-rule="evenodd" d="M23.7728 6.3977L24.2903 7.58252L25.3969 6.63896L24.5849 5.84665L23.7728 6.3977V6.3977Z" fill="#71AA21"/>
<path fill-rule="evenodd" clip-rule="evenodd" d="M16.6769 13.6027C19.4607 14.9473 22.9117 13.0736 22.9117 13.0736L12.9188 8.59131C12.9188 8.59131 12.8562 11.7583 16.6769 13.6027V13.6027Z" fill="#D37C00"/>
<path fill-rule="evenodd" clip-rule="evenodd" d="M12.9187 8.59131C12.9187 8.59131 12.5598 11.3994 15.3678 13.1367C17.5926 14.5134 20.2339 12.9936 20.2339 12.9936L18.4542 5.86328L12.9187 8.59131V8.59131Z" fill="#FFE3A6"/>
<path fill-rule="evenodd" clip-rule="evenodd" d="M20.9761 6.40166L22.9119 13.0736L20.2341 12.9937L18.4542 5.86301L20.9761 6.40166V6.40166Z" fill="#F9BD3A"/>
<path fill-rule="evenodd" clip-rule="evenodd" d="M13.7329 9.66212L14.9693 9.95909L14.7151 8.20776L13.7329 9.66212V9.66212Z" fill="#71AA21"/>
<path fill-rule="evenodd" clip-rule="evenodd" d="M19.0875 9.98175L18.8532 11.2532L20.2983 11.0905L20.0688 9.97949L19.0875 9.98175V9.98175Z" fill="#71AA21"/>
<path fill-rule="evenodd" clip-rule="evenodd" d="M27.3506 7.95621C27.8843 8.77051 28.6484 9.48788 30.5356 9.48788C31.8526 9.48788 32.9064 9.2681 32.9064 9.2681L32.7424 6.03741L26.5994 4.58295C26.7279 4.64609 26.9544 7.35156 27.3506 7.95621V7.95621Z" fill="#D37C00"/>
<path fill-rule="evenodd" clip-rule="evenodd" d="M26.8271 3.47392C26.8271 3.47392 25.8364 5.2727 27.9868 6.75649C30.1378 8.24078 32.8906 7.42481 32.8906 7.42481L32.3056 1.93777L26.8271 3.47392V3.47392Z" fill="#FFD364"/>
<path fill-rule="evenodd" clip-rule="evenodd" d="M27.0245 4.02783L27.3185 4.79318L27.9869 3.95699L27.0245 4.02783V4.02783Z" fill="#71AA21"/>
<path fill-rule="evenodd" clip-rule="evenodd" d="M30.5359 6.0374L31.5893 5.41406L30.5359 4.79071V6.0374V6.0374Z" fill="#71AA21"/>
<path fill-rule="evenodd" clip-rule="evenodd" d="M35.9021 8.49158C34.3642 7.68404 32.4567 6.95709 30.7114 6.89568C27.7096 6.78917 23.0227 8.09539 21.8641 11.3655C21.7689 12.2621 21.9718 13.831 23.7953 15.7148C26.6704 18.6852 30.7194 19.6268 32.1642 19.1912C32.7311 19.0205 33.258 18.7607 33.7122 18.555C33.8176 18.351 33.8909 18.1363 33.9061 17.9188C37.0156 18.3003 39.8124 15.7221 39.1576 12.4892C38.8178 10.8127 37.3678 9.26077 35.9021 8.49158V8.49158Z" fill="#ED2B2B"/>
<path fill-rule="evenodd" clip-rule="evenodd" d="M21.8642 11.3655C21.7745 11.6174 21.7002 11.8783 21.6556 12.1545C21.02 16.0569 25.4036 18.4333 28.5098 19.3597C30.0172 19.8094 32.5249 20.2732 33.6091 18.7556C33.6536 18.6925 33.6779 18.622 33.7122 18.555C33.258 18.7607 32.7312 19.0204 32.1642 19.1912C30.7194 19.6268 26.6704 18.6852 23.7953 15.7148C21.9718 13.8309 21.7689 12.2621 21.8642 11.3655V11.3655Z" fill="#D32020"/>
<path fill-rule="evenodd" clip-rule="evenodd" d="M31.5821 15.5807C28.9477 14.5032 27.0627 13.9048 26.1334 12.9733C24.9624 11.7989 25.4921 10.3856 27.6527 9.68456C29.8132 8.98353 32.2105 9.13231 33.7123 9.79895C35.2146 10.465 36.0441 11.2776 36.0272 12.425C36.0148 13.2669 35.2704 14.244 33.3071 14.0034C32.0651 13.8513 29.8273 13.2427 28.9741 12.4486C28.4782 11.9871 28.1807 11.6034 28.7499 11.2055C29.6368 10.5851 31.3009 10.8223 31.7749 11.3656C31.9293 11.5419 31.8357 11.8102 31.6176 12.2796C31.3787 12.7952 31.6097 13.3497 33.422 13.4917C35.3578 13.6427 36.314 12.0885 34.7841 10.9976C33.2547 9.90602 32.0121 9.67667 29.909 9.68456C28.0387 9.69133 25.8821 10.8984 26.1571 11.7989C26.5155 12.9733 27.6149 13.3914 29.3833 14.1973C31.0828 14.9715 32.8247 15.4291 33.7123 16.4401C34.2296 17.0295 33.9061 17.9188 33.9061 17.9188C33.9061 17.9188 33.972 16.5578 31.5821 15.5807V15.5807Z" fill="#D32020"/>
<path fill-rule="evenodd" clip-rule="evenodd" d="M28.9741 15.7531C28.8952 16.0789 29.7974 16.4863 30.0172 16.5945C30.6602 16.9106 32.2775 17.9622 32.7649 17.4375C32.9571 17.2307 32.783 16.7737 31.1566 16.111C30.645 15.9019 29.1049 15.2161 28.9741 15.7531V15.7531Z" fill="#FF4343"/>
<path fill-rule="evenodd" clip-rule="evenodd" d="M24.6824 10.0999C23.2617 12.2723 25.6522 14.9546 27.9085 15.1045C27.0238 14.6148 26.1802 14.2159 25.4949 13.4298C24.267 12.0204 24.7759 10.3799 26.2591 9.41124C28.3199 8.06499 30.5323 7.91618 32.8771 8.23741C30.5678 6.88046 26.1667 7.82943 24.6824 10.0999V10.0999Z" fill="#FF4343"/>
<path fill-rule="evenodd" clip-rule="evenodd" d="M37.1796 12.3123C36.9232 14.1319 36.5107 14.3365 35.7043 14.5061C35.1633 14.6199 34.3462 14.2672 33.861 14.5061C33.5358 14.6667 33.7173 14.8205 33.9382 14.8949C35.4727 15.4094 37.5836 15.2477 37.9511 13.3187C38.0125 12.9975 38.057 12.0311 37.5115 12.0598C37.3582 12.0683 37.1999 12.1658 37.1796 12.3123V12.3123Z" fill="#FF4343"/>
<path fill-rule="evenodd" clip-rule="evenodd" d="M45.7886 6.33215C44.4756 5.1944 42.785 4.05101 41.1 3.59174C38.2018 2.80223 33.3409 3.00285 31.4655 5.92134C31.1679 6.77284 31.0062 8.3462 32.3513 10.5969C34.4713 14.146 38.1979 15.9881 39.7042 15.8946C40.2953 15.8574 40.8673 15.725 41.3564 15.6292C41.5058 15.4539 41.6264 15.2618 41.69 15.0533C44.6305 16.1358 47.9424 14.2655 48.0438 10.9683C48.0962 9.25853 47.039 7.41638 45.7886 6.33215V6.33215Z" fill="#ED2B2B"/>
<path fill-rule="evenodd" clip-rule="evenodd" d="M31.4655 5.92136C31.3207 6.14621 31.1888 6.38288 31.0817 6.64154C29.5709 10.2954 33.2952 13.6107 36.1078 15.2229C37.4726 16.0051 39.8079 17.0301 41.2099 15.8005C41.268 15.7492 41.3074 15.6861 41.3565 15.6292C40.8673 15.725 40.2953 15.8574 39.7042 15.8946C38.1979 15.9882 34.4713 14.146 32.3513 10.5969C31.0062 8.34622 31.1679 6.77286 31.4655 5.92136V5.92136Z" fill="#D32020"/>
<path fill-rule="evenodd" clip-rule="evenodd" d="M39.9623 12.2463C37.644 10.5952 35.9461 9.58199 35.2541 8.46228C34.3823 7.05178 35.2214 5.79625 37.4851 5.60803C39.7487 5.41926 42.0479 6.11183 43.3581 7.10419C44.6683 8.09654 45.2899 9.07709 45.0109 10.19C44.8064 11.0072 43.8591 11.7876 42.0023 11.1052C40.8279 10.673 38.7891 9.56904 38.1399 8.60147C37.7623 8.03851 37.56 7.59726 38.2053 7.33972C39.2106 6.93851 40.7766 7.54993 41.1136 8.18672C41.2235 8.39407 41.0713 8.63361 40.7518 9.04101C40.4013 9.48845 40.4994 10.0807 42.2316 10.633C44.0811 11.2224 45.3671 9.92857 44.1273 8.51639C42.8881 7.10419 41.7307 6.59644 39.6817 6.12366C37.8592 5.70326 35.4834 6.38514 35.5454 7.32452C35.626 8.54962 36.6009 9.2078 38.1382 10.3969C39.6152 11.5391 41.2071 12.3827 41.84 13.5695C42.2091 14.2621 41.6901 15.0533 41.6901 15.0533C41.6901 15.0533 42.0654 13.7442 39.9623 12.2463V12.2463Z" fill="#D32020"/>
<path fill-rule="evenodd" clip-rule="evenodd" d="M37.3842 11.8181C37.2331 12.1167 38.0181 12.7203 38.2075 12.8758C38.7609 13.33 40.0953 14.7236 40.6898 14.324C40.9237 14.1668 40.8589 13.6822 39.4269 12.665C38.9767 12.345 37.6344 11.325 37.3842 11.8181V11.8181Z" fill="#FF4343"/>
<path fill-rule="evenodd" clip-rule="evenodd" d="M34.4978 5.33359C32.6184 7.1239 34.3327 10.2813 36.4949 10.9429C35.7454 10.2639 35.0157 9.68286 34.5282 8.76094C33.6548 7.10811 34.5254 5.62718 36.1906 5.02309C38.505 4.18399 40.6926 4.54518 42.9016 5.39388C40.9637 3.54497 36.4622 3.46212 34.4978 5.33359V5.33359Z" fill="#FF4343"/>
<path fill-rule="evenodd" clip-rule="evenodd" d="M46.1588 10.3439C45.4932 12.0564 45.0452 12.1618 44.2214 12.1426C43.6686 12.1297 42.9534 11.5994 42.4266 11.7211C42.0732 11.8028 42.2147 11.9944 42.413 12.1167C43.7891 12.9688 45.8809 13.2939 46.68 11.4997C46.813 11.201 47.0773 10.2706 46.5397 10.1743C46.3887 10.1472 46.2123 10.2058 46.1588 10.3439V10.3439Z" fill="#FF4343"/>
<path fill-rule="evenodd" clip-rule="evenodd" d="M18.6318 16.2434C19.1654 17.0577 19.9296 17.7745 21.8168 17.7745C23.1338 17.7745 24.187 17.5553 24.187 17.5553L24.0236 14.3246L17.8806 12.8702C18.0091 12.9327 18.2356 15.6382 18.6318 16.2434V16.2434Z" fill="#D37C00"/>
<path fill-rule="evenodd" clip-rule="evenodd" d="M18.1083 11.7612C18.1083 11.7612 17.1176 13.5599 19.268 15.0437C21.4184 16.528 24.1712 15.7115 24.1712 15.7115L23.5863 10.225L18.1083 11.7612V11.7612Z" fill="#FFD364"/>
<path fill-rule="evenodd" clip-rule="evenodd" d="M18.3055 12.315L18.5996 13.0803L19.268 12.2441L18.3055 12.315V12.315Z" fill="#71AA21"/>
<path fill-rule="evenodd" clip-rule="evenodd" d="M21.817 14.3245L22.8704 13.7012L21.817 13.0778V14.3245V14.3245Z" fill="#71AA21"/>
<path fill-rule="evenodd" clip-rule="evenodd" d="M21.2995 21.385C22.5601 21.6088 23.93 21.8798 25.1968 21.54C26.1109 21.2949 26.8412 20.4721 27.7806 20.3425C28.0883 20.3003 28.3481 20.3448 28.5633 20.4501C28.5825 19.9728 28.5081 19.4217 28.3143 18.7979C27.5287 16.2716 21.3057 15.6906 18.3788 13.898C14.6595 11.6208 14.3389 11.5222 12.4894 10.7062C11.6987 10.3574 10.6562 10.7519 9.97491 11.6101C10.1524 13.1424 10.2832 14.6193 11.3781 15.8422C12.1473 16.701 13.0873 17.4454 13.9793 18.1724C16.2092 19.9903 18.4881 20.8857 21.2995 21.385V21.385Z" fill="#FF871A"/>
<path fill-rule="evenodd" clip-rule="evenodd" d="M16.194 21.1991C20.3793 23.2064 23.1287 23.5664 26.4929 22.7144C27.5439 22.4484 28.5058 21.9063 28.5633 20.4502C28.3481 20.3448 28.0883 20.3003 27.7806 20.3425C26.8412 20.4721 26.1109 21.2949 25.1968 21.54C23.93 21.8798 22.5601 21.6087 21.2995 21.385C18.4881 20.8858 16.2092 19.9903 13.9793 18.1724C13.0873 17.4454 12.1473 16.701 11.3781 15.8422C10.2831 14.6194 10.1524 13.1424 9.97491 11.6101C9.42153 12.3072 9.10597 13.3092 9.36292 14.4746C9.93658 17.0735 11.8937 19.1366 16.194 21.1991V21.1991Z" fill="#E2660A"/>
<path fill-rule="evenodd" clip-rule="evenodd" d="M14.5727 13.2021C13.0304 13.9589 12.2307 14.7794 12.2307 14.7794C12.2307 14.7794 13.5127 14.1246 14.6206 13.7955C15.6468 13.4912 17.2404 13.1993 17.2404 13.1993L16.5315 12.7794C16.5315 12.7794 15.4467 12.7733 14.5727 13.2021V13.2021Z" fill="#FF9945"/>
<path fill-rule="evenodd" clip-rule="evenodd" d="M16.5636 14.4447C15.0213 15.2015 14.2216 16.022 14.2216 16.022C14.2216 16.022 15.5036 15.3672 16.6115 15.0381C17.6377 14.7338 19.0877 14.2818 19.0877 14.2818L18.5506 14C18.5506 14 17.4377 14.0164 16.5636 14.4447V14.4447Z" fill="#FF9945"/>
<path fill-rule="evenodd" clip-rule="evenodd" d="M14.7356 14.4193C14.7699 15.4004 14.9999 16.9304 14.9999 16.9304L15.4191 12.1314L14.9334 11.862C14.9334 11.862 14.6826 12.8922 14.7356 14.4193V14.4193Z" fill="#FF9945"/>
<path fill-rule="evenodd" clip-rule="evenodd" d="M16.9023 15.6624C16.9367 16.643 17.1666 18.1729 17.1666 18.1729L17.5859 13.4168L17.0195 13.0747C17.0195 13.0747 16.8488 14.1353 16.9023 15.6624V15.6624Z" fill="#FF9945"/>
<path fill-rule="evenodd" clip-rule="evenodd" d="M18.5715 15.619C17.0286 16.3753 16.2295 17.1963 16.2295 17.1963C16.2295 17.1963 17.5109 16.541 18.6188 16.2124C19.645 15.9076 21.366 15.1699 21.366 15.1699L20.696 14.9389C20.696 14.9389 19.4455 15.1902 18.5715 15.619V15.619Z" fill="#FF9945"/>
<path fill-rule="evenodd" clip-rule="evenodd" d="M18.9096 16.8363C18.944 17.8168 19.1739 19.3468 19.1739 19.3468L19.5932 14.5106L19.0274 14.2486C19.0274 14.2486 18.8566 15.3091 18.9096 16.8363V16.8363Z" fill="#FF9945"/>
<path fill-rule="evenodd" clip-rule="evenodd" d="M20.7399 16.5162C19.1975 17.2725 18.3979 18.0935 18.3979 18.0935C18.3979 18.0935 19.6799 17.4381 20.7878 17.1096C21.814 16.8047 23.6697 15.9127 23.6697 15.9127L22.9117 15.6686C22.9117 15.6686 21.6139 16.0873 20.7399 16.5162V16.5162Z" fill="#FF9945"/>
<path fill-rule="evenodd" clip-rule="evenodd" d="M21.0786 17.7334C21.113 18.7139 21.3429 20.2439 21.3429 20.2439L21.7267 15.2888L21.1355 15.0905C21.1355 15.0905 21.0251 16.2063 21.0786 17.7334V17.7334Z" fill="#FF9945"/>
<path fill-rule="evenodd" clip-rule="evenodd" d="M22.8012 17.3299C21.2583 18.0867 20.4592 18.9072 20.4592 18.9072C20.4592 18.9072 21.7413 18.2524 22.8491 17.9233C23.8753 17.619 25.7986 16.6954 25.7986 16.6954L25.0621 16.3979C25.0621 16.3979 23.6753 16.9011 22.8012 17.3299V17.3299Z" fill="#FF9945"/>
<path fill-rule="evenodd" clip-rule="evenodd" d="M23.2921 18.4412C23.3265 19.4223 23.5564 20.9522 23.5564 20.9522L23.9402 15.9966L23.349 15.7982C23.349 15.7982 23.2386 16.914 23.2921 18.4412V18.4412Z" fill="#FF9945"/>
<path fill-rule="evenodd" clip-rule="evenodd" d="M14.979 23.3607C16.2396 23.5844 17.6101 23.8555 18.8763 23.5157C19.7904 23.2706 20.5207 22.4478 21.4601 22.3182C21.7683 22.2759 22.0275 22.3199 22.2434 22.4258C22.262 21.9485 22.1882 21.3974 21.9937 20.7736C21.2082 18.2467 14.9858 17.6657 12.0582 15.8737C8.33954 13.5966 8.01834 13.4979 6.16885 12.682C5.37878 12.3331 4.3357 12.7276 3.65497 13.5853C3.83192 15.1175 3.96265 16.5945 5.05814 17.8179C5.82679 18.6767 6.76732 19.4211 7.6588 20.1481C9.88867 21.966 12.1681 22.8614 14.979 23.3607V23.3607Z" fill="#FF7E27"/>
<path fill-rule="evenodd" clip-rule="evenodd" d="M9.87398 23.1748C14.0587 25.1821 17.2567 24.7972 20.1729 24.6901C21.256 24.6501 22.1853 23.8815 22.2433 22.4259C22.0275 22.3199 21.7683 22.276 21.46 22.3183C20.5206 22.4479 19.7903 23.2706 18.8763 23.5157C17.61 23.8555 16.2395 23.5845 14.9789 23.3608C12.1681 22.8615 9.88862 21.9661 7.65875 20.1481C6.76727 19.4212 5.82675 18.6768 5.05811 17.8179C3.9626 16.5945 3.83186 15.1175 3.65493 13.5853C3.10098 14.2824 2.78597 15.2849 3.04293 16.4497C3.61659 19.0492 5.57372 21.1123 9.87398 23.1748V23.1748Z" fill="#E2660A"/>
<path fill-rule="evenodd" clip-rule="evenodd" d="M8.25277 15.1778C6.70985 15.9341 5.91077 16.7551 5.91077 16.7551C5.91077 16.7551 7.19222 16.0997 8.30067 15.7712C9.32629 15.4669 10.9205 15.175 10.9205 15.175L10.211 14.7552C10.211 14.7552 9.1268 14.749 8.25277 15.1778V15.1778Z" fill="#FF9945"/>
<path fill-rule="evenodd" clip-rule="evenodd" d="M10.2437 16.4204C8.70075 17.1772 7.90167 17.9977 7.90167 17.9977C7.90167 17.9977 9.18313 17.3429 10.2916 17.0138C11.3172 16.7095 12.7677 16.257 12.7677 16.257L12.2301 15.9752C12.2301 15.9752 11.1177 15.9915 10.2437 16.4204V16.4204Z" fill="#FF9945"/>
<path fill-rule="evenodd" clip-rule="evenodd" d="M8.41562 16.395C8.44944 17.3761 8.67935 18.9055 8.67935 18.9055L9.09918 14.1071L8.61342 13.8372C8.61342 13.8372 8.36209 14.8679 8.41562 16.395V16.395Z" fill="#FF9945"/>
<path fill-rule="evenodd" clip-rule="evenodd" d="M10.5818 17.6376C10.6162 18.6187 10.8461 20.1487 10.8461 20.1487L11.2653 15.3919L10.6996 15.0504C10.6996 15.0504 10.5288 16.1105 10.5818 17.6376V17.6376Z" fill="#FF9945"/>
<path fill-rule="evenodd" clip-rule="evenodd" d="M12.2509 17.5942C10.7086 18.351 9.90894 19.1715 9.90894 19.1715C9.90894 19.1715 11.191 18.5167 12.2988 18.1882C13.325 17.8833 15.046 17.1451 15.046 17.1451L14.376 16.914C14.376 16.914 13.125 17.1659 12.2509 17.5942V17.5942Z" fill="#FF9945"/>
<path fill-rule="evenodd" clip-rule="evenodd" d="M12.5896 18.8119C12.6234 19.7925 12.8533 21.3224 12.8533 21.3224L13.2732 16.4863L12.7068 16.2242C12.7068 16.2242 12.5361 17.2848 12.5896 18.8119V18.8119Z" fill="#FF9945"/>
<path fill-rule="evenodd" clip-rule="evenodd" d="M14.42 18.4913C12.877 19.2481 12.0779 20.0686 12.0779 20.0686C12.0779 20.0686 13.3594 19.4138 14.4673 19.0847C15.4935 18.7804 17.3492 17.8884 17.3492 17.8884L16.5912 17.6443C16.5912 17.6443 15.294 18.063 14.42 18.4913V18.4913Z" fill="#FF9945"/>
<path fill-rule="evenodd" clip-rule="evenodd" d="M14.7581 19.7091C14.7925 20.6896 15.0224 22.2196 15.0224 22.2196L15.4061 17.2645L14.8156 17.0662C14.8156 17.0662 14.7051 18.182 14.7581 19.7091V19.7091Z" fill="#FF9945"/>
<path fill-rule="evenodd" clip-rule="evenodd" d="M16.4808 19.3056C14.9384 20.0619 14.1388 20.8829 14.1388 20.8829C14.1388 20.8829 15.4208 20.2281 16.5287 19.899C17.5549 19.5947 19.4782 18.6711 19.4782 18.6711L18.7417 18.3735C18.7417 18.3735 17.3554 18.8768 16.4808 19.3056V19.3056Z" fill="#FF9945"/>
<path fill-rule="evenodd" clip-rule="evenodd" d="M16.9717 20.4169C17.006 21.3979 17.2359 22.9274 17.2359 22.9274L17.6203 17.9723L17.0291 17.7739C17.0291 17.7739 16.9187 18.8897 16.9717 20.4169V20.4169Z" fill="#FF9945"/>
<path fill-rule="evenodd" clip-rule="evenodd" d="M19.5931 25.0344C21.1361 26.0014 26.6868 25.665 30.5261 25.1826C34.3648 24.7002 41.4855 22.2675 42.6204 20.2912C43.876 18.1042 43.3288 16.6965 41.3277 16.3815C39.8394 16.1476 37.4918 17.5288 34.3563 18.9173C31.1651 20.3307 27.3467 20.9747 22.675 20.5865C17.6602 20.1701 17.898 23.9716 19.5931 25.0344V25.0344Z" fill="#F73131"/>
<path fill-rule="evenodd" clip-rule="evenodd" d="M24.6203 21.9564C25.1112 22.7014 25.6488 23.6763 25.6488 23.6763C25.6488 23.6763 25.2188 22.2715 24.8965 21.6257C24.5736 20.981 24.2986 20.6812 24.2986 20.6812L23.2775 20.631C23.2775 20.631 24.1295 21.2109 24.6203 21.9564V21.9564Z" fill="#D61818"/>
<path fill-rule="evenodd" clip-rule="evenodd" d="M26.4963 22.0156C26.9871 22.7611 27.5247 23.5022 27.5247 23.5022C27.5247 23.5022 27.0948 22.3312 26.7724 21.6853C26.4495 21.0407 25.9953 20.6908 25.9953 20.6908H25.1534C25.1534 20.6908 26.0055 21.2706 26.4963 22.0156V22.0156Z" fill="#D61818"/>
<path fill-rule="evenodd" clip-rule="evenodd" d="M28.3723 21.9564C28.8631 22.7014 29.4007 23.4424 29.4007 23.4424C29.4007 23.4424 28.9708 22.2714 28.6484 21.6256C28.3255 20.981 27.7806 20.5837 27.7806 20.5837L27.0294 20.6428C27.0294 20.6428 27.8815 21.2109 28.3723 21.9564V21.9564Z" fill="#D61818"/>
<path fill-rule="evenodd" clip-rule="evenodd" d="M30.1767 21.7648C30.6675 22.5104 31.253 23.0237 31.253 23.0237C31.253 23.0237 30.7751 22.0798 30.4522 21.4346C30.1299 20.7894 29.4751 20.3633 29.4751 20.3633L28.8484 20.4591C28.8484 20.4591 29.6858 21.0198 30.1767 21.7648V21.7648Z" fill="#D61818"/>
<path fill-rule="evenodd" clip-rule="evenodd" d="M32.158 21.2751C32.6489 22.0201 33.1808 22.5182 33.1808 22.5182C33.1808 22.5182 32.9977 21.7006 32.5317 20.9522C32.1501 20.3396 31.5105 19.921 31.5105 19.921L30.8958 20.0652C30.8958 20.0652 31.6672 20.5296 32.158 21.2751V21.2751Z" fill="#D61818"/>
<path fill-rule="evenodd" clip-rule="evenodd" d="M34.309 20.6389C34.7998 21.3839 35.3318 21.8821 35.3318 21.8821C35.3318 21.8821 35.1486 21.065 34.6826 20.316C34.3011 19.7035 33.5843 19.2391 33.5843 19.2391L33.0884 19.4257C33.0884 19.4257 33.8176 19.8934 34.309 20.6389V20.6389Z" fill="#D61818"/>
<path fill-rule="evenodd" clip-rule="evenodd" d="M36.2447 19.8494C36.7356 20.5944 37.2675 21.0925 37.2675 21.0925C37.2675 21.0925 37.0844 20.2749 36.6184 19.5265C36.2368 18.914 35.4366 18.4271 35.4366 18.4271L35.0444 18.608C35.0444 18.608 35.7533 19.1039 36.2447 19.8494V19.8494Z" fill="#D61818"/>
<path fill-rule="evenodd" clip-rule="evenodd" d="M37.8935 19.0751C38.3844 19.8201 38.9163 20.3183 38.9163 20.3183C38.9163 20.3183 38.7332 19.5006 38.2672 18.7522C37.8856 18.1397 37.086 17.6528 37.086 17.6528L36.6932 17.8331C36.6932 17.8331 37.4027 18.3296 37.8935 19.0751V19.0751Z" fill="#D61818"/>
<path fill-rule="evenodd" clip-rule="evenodd" d="M34.5186 28.1992C37.6113 27.4767 40.6284 26.264 43.2301 24.4252C44.4536 23.5608 45.6026 22.5425 46.3346 21.2154C46.5927 20.7471 46.7375 20.2631 46.8344 19.7711C46.5668 18.777 45.8488 18.027 44.573 18.4062C43.2065 18.8126 41.7148 20.6846 40.4317 21.3236C38.5912 22.241 36.4848 22.6315 34.5237 23.0874C30.8777 23.9355 27.1731 24.5227 23.4414 24.8282C21.7604 24.9657 20.0778 25.0316 18.3911 25.0643C17.4388 25.0829 16.3765 25.0981 15.5245 25.5878C15.0843 25.8408 14.8037 26.1603 14.6482 26.5097C16.2278 29.8559 21.1028 29.2248 24.2636 29.2231C27.7051 29.2214 31.16 28.9842 34.5186 28.1992V28.1992Z" fill="#FF4343"/>
<path fill-rule="evenodd" clip-rule="evenodd" d="M23.4944 30.65C26.7933 30.6066 30.086 30.2104 33.3042 29.4823C36.3219 28.7993 39.4095 27.8898 42.1747 26.4793C44.1442 25.4751 46.1284 24.0117 46.8052 21.8026C46.9939 21.1873 47.0109 20.4271 46.8345 19.7711C46.7376 20.2631 46.5927 20.7471 46.3346 21.2154C45.6026 22.5425 44.4536 23.5608 43.2302 24.4253C40.6284 26.264 37.6113 27.4767 34.5186 28.1992C31.16 28.9842 27.7051 29.2214 24.2636 29.2231C21.1028 29.2248 16.2278 29.8559 14.6482 26.5097C14.2351 27.4401 14.7367 28.588 15.6981 29.3003C17.8102 30.8663 21.0059 30.6832 23.4944 30.65V30.65Z" fill="#ED2B2B"/>
<path fill-rule="evenodd" clip-rule="evenodd" d="M20.3505 26.2173C21.8337 27.1403 22.6925 28.0898 22.6925 28.0898C22.6925 28.0898 22.2941 26.792 21.1361 26.0014C19.9775 25.2113 18.944 25.0485 18.944 25.0485L17.7341 25.0755C17.7341 25.0755 18.8673 25.2948 20.3505 26.2173V26.2173Z" fill="#D61818"/>
<path fill-rule="evenodd" clip-rule="evenodd" d="M23.9458 26.0707C25.429 26.9932 26.2878 27.9428 26.2878 27.9428C26.2878 27.9428 25.8798 26.7622 24.7212 25.9716C23.5632 25.1815 22.5804 24.8552 22.5804 24.8552L21.3328 24.9657C21.3328 24.9657 22.4626 25.1477 23.9458 26.0707V26.0707Z" fill="#D61818"/>
<path fill-rule="evenodd" clip-rule="evenodd" d="M27.234 25.8082C28.7166 26.7312 29.5754 27.6808 29.5754 27.6808C29.5754 27.6808 29.1674 26.5002 28.0088 25.7095C26.8508 24.9195 25.868 24.5932 25.868 24.5932L24.6204 24.7036C24.6204 24.7036 25.7508 24.8857 27.234 25.8082V25.8082Z" fill="#D61818"/>
<path fill-rule="evenodd" clip-rule="evenodd" d="M30.3942 25.4249C31.8774 26.3474 32.7362 27.297 32.7362 27.297C32.7362 27.297 32.3277 26.1164 31.1696 25.3257C30.011 24.5357 28.9245 24.1756 28.9245 24.1756L27.7806 24.3199C27.7806 24.3199 28.911 24.5019 30.3942 25.4249V25.4249Z" fill="#D61818"/>
<path fill-rule="evenodd" clip-rule="evenodd" d="M33.7201 24.9048C35.2033 25.8278 36.0621 26.7774 36.0621 26.7774C36.0621 26.7774 35.6536 25.5968 34.4955 24.8062C33.3369 24.0161 32.2645 23.5777 32.2645 23.5777L31.1065 23.8003C31.1065 23.8003 32.2369 23.9823 33.7201 24.9048V24.9048Z" fill="#D61818"/>
<path fill-rule="evenodd" clip-rule="evenodd" d="M37.3469 23.9863C38.8301 24.9087 39.6151 25.7788 39.6151 25.7788C39.6151 25.7788 39.277 24.6366 38.119 23.8465C36.9604 23.0559 35.9009 22.7792 35.9009 22.7792L34.8021 23.0232C34.8021 23.0232 35.8637 23.0638 37.3469 23.9863V23.9863Z" fill="#D61818"/>
<path fill-rule="evenodd" clip-rule="evenodd" d="M40.5878 23.0136C41.5187 23.5168 42.5099 24.4066 42.5099 24.4066C42.5099 24.4066 42.4237 23.5833 41.2651 22.7927C40.1071 22.0026 38.9113 21.9564 38.9113 21.9564L37.9854 22.2494C37.9854 22.2494 39.051 22.1824 40.5878 23.0136V23.0136Z" fill="#D61818"/>
<path fill-rule="evenodd" clip-rule="evenodd" d="M43.3496 21.6025C43.9819 22.0021 44.4739 22.2759 44.4739 22.2759C44.4739 22.2759 44.2056 21.5338 43.1451 20.9984C42.4593 20.6524 41.685 20.4411 41.685 20.4411L41.179 20.8474C41.179 20.8474 42.7174 21.2024 43.3496 21.6025V21.6025Z" fill="#D61818"/>
</svg>
