<svg width="53" height="30" viewBox="0 0 53 30" fill="none" xmlns="http://www.w3.org/2000/svg">
<path fill-rule="evenodd" clip-rule="evenodd" d="M26.2499 1.70789C40.7474 1.70789 52.4999 7.95936 52.4999 15.6709C52.4999 23.3825 40.7474 29.634 26.2499 29.634C11.7525 29.634 0 23.3825 0 15.6709C0 7.95936 11.7525 1.70789 26.2499 1.70789V1.70789Z" fill="#A34843"/>
<path fill-rule="evenodd" clip-rule="evenodd" d="M52.5 14.0386V16.2542H0.0219727V14.0386H52.5V14.0386Z" fill="#A34843"/>
<path fill-rule="evenodd" clip-rule="evenodd" d="M26.2499 0.0755157C40.7474 0.0755157 52.4999 6.32699 52.4999 14.0386C52.4999 21.7501 40.7474 28.0016 26.2499 28.0016C11.7525 28.0016 0 21.7501 0 14.0386C0 6.32699 11.7525 0.0755157 26.2499 0.0755157V0.0755157Z" fill="#C15F5F"/>
<path fill-rule="evenodd" clip-rule="evenodd" d="M26.2253 1.52948C39.4605 1.52948 50.2283 6.97624 50.2283 13.6719C50.2283 20.3671 39.4605 25.8148 26.2253 25.8148C12.9897 25.8148 2.22192 20.3671 2.22192 13.6719C2.22192 6.97624 12.9897 1.52948 26.2253 1.52948V1.52948ZM26.2253 25.2279C39.1367 25.2279 49.6414 20.0442 49.6414 13.6719C49.6414 7.30058 39.1367 2.11642 26.2253 2.11642C13.3136 2.11642 2.80884 7.30058 2.80884 13.6719C2.80884 20.0442 13.3136 25.2279 26.2253 25.2279V25.2279Z" fill="#A34843"/>
<path fill-rule="evenodd" clip-rule="evenodd" d="M50.8626 12.5165C50.8626 14.5979 50.547 16.5231 48.701 18.4309C46.8546 20.3381 43.4777 22.2283 40.6532 23.3271C38.0365 24.3452 35.98 24.0844 32.6058 24.5193C30.7631 24.7571 28.5228 25.4532 26.5422 25.4532C22.0717 25.4532 18.4276 24.4466 14.8282 23.3271C12.212 22.5135 10.6581 22.4932 7.4876 20.556C5.89591 19.5835 5.29517 18.2033 4.21989 17.0902C2.75679 15.5755 2.2219 14.1266 2.2219 12.5165C2.2219 10.5005 3.38699 8.27676 4.93352 6.57589C5.80655 5.61582 6.83847 4.60505 8.0736 3.77582C6.3718 4.71056 5.00864 6.0157 3.89374 7.2416C2.29329 9.00235 1.08722 11.304 1.08722 13.3909C1.08722 15.0572 1.64099 16.5568 3.15524 18.125C4.26828 19.2771 4.89022 20.7057 6.53764 21.7124C9.81915 23.7177 11.4279 23.738 14.1358 24.5806C17.8614 25.7393 21.6336 26.7813 26.2607 26.7813C28.3104 26.7813 30.6295 26.0608 32.5372 25.8148C36.0297 25.3647 38.1581 25.6342 40.867 24.5806C43.7905 23.4432 47.2858 21.4871 49.1967 19.5121C51.1077 17.5376 51.4348 15.5451 51.4348 13.3909C51.4348 11.7845 50.8967 10.5014 49.9186 9.26125C50.5318 10.2393 50.8626 11.2786 50.8626 12.5165V12.5165Z" fill="#F4B12C"/>
<path fill-rule="evenodd" clip-rule="evenodd" d="M2.22192 12.5165C2.22192 14.1266 2.75683 15.5755 4.21994 17.0903C5.29519 18.2033 5.89595 19.5835 7.48762 20.556C10.6581 22.4932 12.212 22.5135 14.8283 23.3271C18.4276 24.4466 22.0717 25.4532 26.5423 25.4532C28.5228 25.4532 30.7631 24.7571 32.6059 24.5194C35.98 24.0845 38.0365 24.3452 40.6532 23.3271C43.4777 22.2283 46.8546 20.3381 48.7011 18.4309C50.547 16.5231 50.8626 14.5979 50.8626 12.5165C50.8626 11.2786 50.5319 10.2393 49.9187 9.26127C49.3612 8.5541 48.6614 7.86078 47.8336 7.12921C46.2986 5.77245 44.3342 3.93799 42.0252 2.95028C39.5379 1.88608 36.6862 0.888672 33.53 0.567122C30.5222 0.260284 27.9465 0 25.4191 0C19.4135 0 15.6257 1.52948 10.6153 2.77335C9.69245 3.00233 8.84805 3.35061 8.07359 3.77583C6.83851 4.60507 5.80655 5.61581 4.93354 6.57591C3.38701 8.27679 2.22192 10.5005 2.22192 12.5165V12.5165Z" fill="#FFCA61"/>
<path opacity="0.5" fill-rule="evenodd" clip-rule="evenodd" d="M10.0739 3.4985C8.74295 4.0329 7.82526 5.06484 6.81129 6.03783C5.01552 7.76081 2.63097 9.35066 3.48187 12.1719C3.59244 12.5391 4.14803 12.3871 4.05683 12.0134C3.85687 11.1943 4.87961 9.37461 5.45593 8.75129C5.78209 8.39887 6.21606 8.11555 6.58141 7.80412C7.47791 7.04122 8.32697 6.17603 9.30592 5.52001C11.1464 4.2872 13.465 4.02138 15.4465 3.01799C15.6045 2.93829 15.5326 2.67017 15.3553 2.68077C15.0254 2.70104 11.4988 2.92678 10.0739 3.4985V3.4985Z" fill="#FFE3A6"/>
<path opacity="0.5" fill-rule="evenodd" clip-rule="evenodd" d="M34.4122 2.37441C31.9304 1.60782 29.6417 0.732045 26.9421 0.934748C26.1161 0.996942 22.8208 0.855049 22.9424 2.29978C23.076 3.89192 26.1506 2.62502 26.8361 2.49188C28.9788 2.07496 30.9299 2.57435 32.9896 3.1023C34.1026 3.38747 34.7997 3.62565 35.8085 3.06222C35.9711 2.97146 35.9578 2.6651 35.7528 2.63424C35.3013 2.56559 34.8558 2.47484 34.4122 2.37441V2.37441Z" fill="#FFE3A6"/>
<path opacity="0.5" fill-rule="evenodd" clip-rule="evenodd" d="M41.9749 20.6067C40.8274 20.7629 38.0157 21.4378 38.6317 22.4513C38.9988 23.0553 40.515 22.3375 40.9753 22.2159C41.8754 21.9773 42.7433 21.6778 43.3611 20.9467C43.4823 20.8034 43.4915 20.5528 43.298 20.4561C42.8217 20.217 42.4066 20.4026 41.9749 20.6067V20.6067Z" fill="#FFE3A6"/>
<path opacity="0.5" fill-rule="evenodd" clip-rule="evenodd" d="M47.0255 17.7721C46.5091 18.2194 45.0201 19.5877 44.8957 19.7047C44.711 19.8788 44.945 20.1354 45.1519 20.0373C45.8466 19.7084 46.6477 19.4329 47.2618 18.9639C47.8123 18.5433 48.3002 17.8882 48.6241 17.2787C48.7347 17.0704 48.5536 16.8779 48.3412 16.9101C47.8427 16.9861 47.3968 17.4505 47.0255 17.7721V17.7721Z" fill="#FFE3A6"/>
<path opacity="0.5" fill-rule="evenodd" clip-rule="evenodd" d="M29.8911 23.2184C29.4663 22.936 28.6467 23.1027 28.21 23.27C27.7843 23.433 27.3494 23.6546 27.3434 24.1651C27.342 24.2816 27.4319 24.4138 27.5512 24.4378C28.4989 24.6281 29.4516 24.4355 30.2292 23.8532C30.4531 23.6855 30.4075 23.3989 30.1559 23.293C30.0652 23.2547 29.9772 23.2317 29.8911 23.2184V23.2184Z" fill="#FFE3A6"/>
<path opacity="0.5" fill-rule="evenodd" clip-rule="evenodd" d="M43.2487 4.52214C43.0405 4.44613 42.7972 4.68476 42.876 4.89484C43.0156 5.26569 43.2483 5.46748 43.5615 5.6992C43.9978 6.02169 44.188 6.43124 44.4631 6.8818C44.9422 7.66728 45.5937 7.97456 46.5086 7.81746C46.7108 7.78291 46.7569 7.54058 46.6841 7.38671C46.2773 6.52706 43.6767 4.67739 43.2487 4.52214V4.52214Z" fill="#FFE3A6"/>
<path opacity="0.5" fill-rule="evenodd" clip-rule="evenodd" d="M49.527 11.0161C48.9626 11.3372 49.2427 11.7651 49.2588 12.3092C49.2704 12.6865 48.9585 13.4678 49.4441 13.6881C50.2678 14.0612 49.9163 11.4961 49.7274 11.1409C49.7246 11.0723 49.5887 10.9806 49.527 11.0161V11.0161Z" fill="#FFE3A6"/>
<path opacity="0.5" fill-rule="evenodd" clip-rule="evenodd" d="M6.47864 18.0093C6.369 17.9435 6.19714 17.9573 6.10916 18.0568C5.70792 18.511 6.22434 18.9823 6.57585 19.2643C6.97572 19.5844 7.51244 19.9691 8.04822 19.8636C8.17674 19.8383 8.1984 19.6734 8.12099 19.5877C8.03163 19.4891 7.05452 18.3549 6.47864 18.0093V18.0093Z" fill="#FFE3A6"/>
<path opacity="0.5" fill-rule="evenodd" clip-rule="evenodd" d="M11.4799 6.0793C11.0929 6.74362 9.29212 7.8935 7.75756 8.42329C5.49282 9.20509 4.65434 10.4591 4.67828 12.3373C4.69258 13.4619 6.9905 14.5247 7.11952 16.0781C7.35401 18.892 9.85139 20.474 12.0834 20.6749C14.3155 20.8758 21.9081 21.7119 23.1082 22.4352C24.3083 23.1585 28.3615 21.7727 30.049 22.4762C31.737 23.1797 36.4236 20.1437 37.3648 20.3248C38.3065 20.5054 43.5523 20.0258 45.5793 18.4452C47.6064 16.8645 47.571 17.2285 48.1146 14.8794C48.4559 13.4052 49.1967 11.4998 48.1146 10.1873C46.8739 8.68312 44.9431 8.81303 43.7532 7.16283C42.5632 5.51265 42.0813 5.06393 39.1993 4.2545C36.3167 3.44506 31.2196 4.51156 29.9283 4.49728C28.637 4.48346 27.4148 2.64623 24.5092 2.5914C21.6041 2.53657 14.6504 4.10384 14.6504 4.10384C12.8482 4.14254 11.8669 5.41497 11.4799 6.0793V6.0793Z" fill="#EF622B"/>
<path opacity="0.8" fill-rule="evenodd" clip-rule="evenodd" d="M12.6906 8.80013C11.1446 9.4815 7.69355 8.75959 7.76678 12.3977C7.83956 16.0362 9.62519 16.9382 10.8253 18.2945C12.0259 19.6508 17.3892 20.574 18.9698 20.5238C20.5505 20.474 26.0631 21.9008 28.8623 20.7274C31.6619 19.5545 33.5074 20.3639 35.4455 19.9203C37.3837 19.4771 41.2535 18.4949 42.2864 17.175C43.3192 15.8556 47.7704 14.3455 45.9336 12.0932C44.0973 9.84037 42.6664 9.72289 41.8095 8.85771C40.9526 7.99254 42.056 6.61046 38.47 6.00143C34.8844 5.39194 30.6871 6.34372 29.1833 5.40898C27.6797 4.47423 27.113 3.79381 24.0273 4.10385C20.9416 4.41388 19.3799 4.07205 17.8002 4.68431C16.2204 5.29612 14.2367 8.11923 12.6906 8.80013V8.80013Z" fill="#ED2B2B"/>
<path fill-rule="evenodd" clip-rule="evenodd" d="M27.3864 21.7107V22.2078H18.1778V21.7107H27.3864V21.7107Z" fill="#5E8E11"/>
<path fill-rule="evenodd" clip-rule="evenodd" d="M22.782 24.57C20.239 24.57 18.1779 23.4731 18.1779 22.1206C18.1779 20.768 20.239 19.6715 22.782 19.6715C25.3251 19.6715 27.3862 20.768 27.3862 22.1206C27.3862 23.4731 25.3251 24.57 22.782 24.57V24.57Z" fill="#5E8E11"/>
<path fill-rule="evenodd" clip-rule="evenodd" d="M22.7821 19.2862C25.325 19.2862 27.3864 20.3827 27.3864 21.7353C27.3864 23.0879 25.325 24.1844 22.7821 24.1844C20.2392 24.1844 18.1778 23.0879 18.1778 21.7353C18.1778 20.3827 20.2392 19.2862 22.7821 19.2862V19.2862Z" fill="#BED134"/>
<path fill-rule="evenodd" clip-rule="evenodd" d="M22.7821 19.6716C25.0598 19.6716 26.9063 20.5955 26.9063 21.7353C26.9063 22.875 25.0598 23.799 22.7821 23.799C20.5043 23.799 18.6578 22.875 18.6578 21.7353C18.6578 20.5955 20.5043 19.6716 22.7821 19.6716V19.6716Z" fill="#71AA21"/>
<path fill-rule="evenodd" clip-rule="evenodd" d="M20.5505 20.4741C19.0196 20.5934 19.2256 21.1398 19.6324 21.5544C20.0129 21.9423 21.3397 21.8875 22.5688 21.5544C22.5688 21.5544 21.6963 20.3847 20.5505 20.4741V20.4741Z" fill="#5E8E11"/>
<path fill-rule="evenodd" clip-rule="evenodd" d="M25.1108 20.6095C26.2948 20.604 26.3625 21.1305 25.965 21.5544C25.4729 22.0791 24.1448 21.8667 22.9156 21.5341C22.9156 21.5341 23.9614 20.6145 25.1108 20.6095V20.6095Z" fill="#5E8E11"/>
<path fill-rule="evenodd" clip-rule="evenodd" d="M20.3815 22.3173C19.8747 22.5016 20.3169 23.2064 21.3793 23.217C22.7614 23.2308 22.5688 21.7354 22.5688 21.7354C22.5688 21.7354 20.8882 22.133 20.3815 22.3173V22.3173Z" fill="#5E8E11"/>
<path fill-rule="evenodd" clip-rule="evenodd" d="M25.0699 22.3173C25.6808 22.5905 24.8303 23.2064 23.7684 23.217C22.3859 23.2308 22.8825 21.7354 22.8825 21.7354C22.8825 21.7354 24.5774 22.0971 25.0699 22.3173V22.3173Z" fill="#5E8E11"/>
<path fill-rule="evenodd" clip-rule="evenodd" d="M21.9252 20.4694C21.7718 20.2285 22.115 19.8949 22.9157 19.8903C24.0218 19.8843 24.1139 20.2082 23.7454 20.6122C23.3764 21.0167 22.7821 21.3346 22.7821 21.3346C22.7821 21.3346 22.0786 20.7104 21.9252 20.4694V20.4694Z" fill="#5E8E11"/>
<path fill-rule="evenodd" clip-rule="evenodd" d="M35.5462 11.3387V11.8358H26.3376V11.3387H35.5462V11.3387Z" fill="#5E8E11"/>
<path fill-rule="evenodd" clip-rule="evenodd" d="M30.9418 14.1976C28.3988 14.1976 26.3376 13.1011 26.3376 11.7485C26.3376 10.3959 28.3988 9.2995 30.9418 9.2995C33.4848 9.2995 35.546 10.3959 35.546 11.7485C35.546 13.1011 33.4848 14.1976 30.9418 14.1976V14.1976Z" fill="#5E8E11"/>
<path fill-rule="evenodd" clip-rule="evenodd" d="M30.9418 13.8124C28.3988 13.8124 26.3376 12.716 26.3376 11.3634C26.3376 10.0108 28.3988 8.91391 30.9418 8.91391C33.4848 8.91391 35.546 10.0108 35.546 11.3634C35.546 12.716 33.4848 13.8124 30.9418 13.8124V13.8124Z" fill="#BED134"/>
<path fill-rule="evenodd" clip-rule="evenodd" d="M30.9419 13.4268C28.6642 13.4268 26.8177 12.5031 26.8177 11.3634C26.8177 10.2236 28.6642 9.2995 30.9419 9.2995C33.2195 9.2995 35.066 10.2236 35.066 11.3634C35.066 12.5031 33.2195 13.4268 30.9419 13.4268V13.4268Z" fill="#71AA21"/>
<path fill-rule="evenodd" clip-rule="evenodd" d="M28.7102 10.102C27.1798 10.2214 27.3853 10.7677 27.7921 11.1824C28.1726 11.5703 29.4994 11.5154 30.7285 11.1824C30.7285 11.1824 29.856 10.0127 28.7102 10.102V10.102Z" fill="#5E8E11"/>
<path fill-rule="evenodd" clip-rule="evenodd" d="M33.2706 10.2375C34.4546 10.2319 34.5223 10.7585 34.1248 11.1823C33.6331 11.7071 32.3045 11.4947 31.0759 11.1621C31.0759 11.1621 32.1216 10.2425 33.2706 10.2375V10.2375Z" fill="#5E8E11"/>
<path fill-rule="evenodd" clip-rule="evenodd" d="M28.5411 11.9453C28.0344 12.1295 28.4771 12.8344 29.539 12.845C30.9211 12.8588 30.7285 11.3634 30.7285 11.3634C30.7285 11.3634 29.0479 11.761 28.5411 11.9453V11.9453Z" fill="#5E8E11"/>
<path fill-rule="evenodd" clip-rule="evenodd" d="M33.2296 11.9453C33.8405 12.2184 32.9901 12.8344 31.9282 12.845C30.5456 12.8588 31.0422 11.3634 31.0422 11.3634C31.0422 11.3634 32.7376 11.725 33.2296 11.9453V11.9453Z" fill="#5E8E11"/>
<path fill-rule="evenodd" clip-rule="evenodd" d="M30.0849 10.0974C29.9315 9.85647 30.2748 9.52293 31.0759 9.51833C32.1815 9.51234 32.2737 9.8362 31.9052 10.2402C31.5366 10.6447 30.9419 10.9626 30.9419 10.9626C30.9419 10.9626 30.2384 10.3384 30.0849 10.0974V10.0974Z" fill="#5E8E11"/>
<path fill-rule="evenodd" clip-rule="evenodd" d="M16.554 7.98518V8.48236H7.34552V7.98518H16.554V7.98518Z" fill="#5E8E11"/>
<path fill-rule="evenodd" clip-rule="evenodd" d="M11.9498 10.8442C9.40683 10.8442 7.3457 9.74776 7.3457 8.39517C7.3457 7.04258 9.40683 5.94614 11.9498 5.94614C14.4929 5.94614 16.554 7.04258 16.554 8.39517C16.554 9.74776 14.4929 10.8442 11.9498 10.8442V10.8442Z" fill="#5E8E11"/>
<path fill-rule="evenodd" clip-rule="evenodd" d="M11.9498 10.4591C9.40683 10.4591 7.3457 9.36217 7.3457 8.00958C7.3457 6.65699 9.40683 5.56055 11.9498 5.56055C14.4929 5.56055 16.554 6.65699 16.554 8.00958C16.554 9.36217 14.4929 10.4591 11.9498 10.4591V10.4591Z" fill="#BED134"/>
<path fill-rule="evenodd" clip-rule="evenodd" d="M11.9498 10.0735C9.67213 10.0735 7.82568 9.14933 7.82568 8.00957C7.82568 6.86983 9.67213 5.94614 11.9498 5.94614C14.2274 5.94614 16.0739 6.86983 16.0739 8.00957C16.0739 9.14933 14.2274 10.0735 11.9498 10.0735V10.0735Z" fill="#71AA21"/>
<path fill-rule="evenodd" clip-rule="evenodd" d="M9.71825 6.74868C8.18736 6.868 8.39331 7.41438 8.80009 7.829C9.18063 8.2169 10.5074 8.16208 11.7365 7.829C11.7365 7.829 10.864 6.6593 9.71825 6.74868V6.74868Z" fill="#5E8E11"/>
<path fill-rule="evenodd" clip-rule="evenodd" d="M14.2787 6.88366C15.4626 6.87859 15.5299 7.40516 15.1328 7.829C14.6408 8.35372 13.3126 8.14135 12.0835 7.80872C12.0835 7.80872 13.1292 6.88919 14.2787 6.88366V6.88366Z" fill="#5E8E11"/>
<path fill-rule="evenodd" clip-rule="evenodd" d="M9.54916 8.5919C9.04242 8.77617 9.48466 9.48103 10.5466 9.49163C11.9291 9.50544 11.7365 8.00958 11.7365 8.00958C11.7365 8.00958 10.0559 8.40762 9.54916 8.5919V8.5919Z" fill="#5E8E11"/>
<path fill-rule="evenodd" clip-rule="evenodd" d="M14.2377 8.5919C14.8481 8.86509 13.9981 9.48103 12.9362 9.49163C11.5537 9.50544 12.0503 8.00958 12.0503 8.00958C12.0503 8.00958 13.7452 8.37169 14.2377 8.5919V8.5919Z" fill="#5E8E11"/>
<path fill-rule="evenodd" clip-rule="evenodd" d="M11.093 6.74361C10.9391 6.50313 11.2824 6.16959 12.0835 6.16498C13.1896 6.15853 13.2818 6.48286 12.9127 6.88689C12.5442 7.29091 11.9499 7.60925 11.9499 7.60925C11.9499 7.60925 11.2464 6.98455 11.093 6.74361V6.74361Z" fill="#5E8E11"/>
<path fill-rule="evenodd" clip-rule="evenodd" d="M20.7869 15.0215V15.5186H11.5782V15.0215H20.7869V15.0215Z" fill="#5E8E11"/>
<path fill-rule="evenodd" clip-rule="evenodd" d="M16.1827 17.8808C13.6397 17.8808 11.5781 16.7839 11.5781 15.4313C11.5781 14.0787 13.6397 12.9823 16.1827 12.9823C18.7252 12.9823 20.7868 14.0787 20.7868 15.4313C20.7868 16.7839 18.7252 17.8808 16.1827 17.8808V17.8808Z" fill="#5E8E11"/>
<path fill-rule="evenodd" clip-rule="evenodd" d="M16.1827 17.4952C13.6397 17.4952 11.5781 16.3988 11.5781 15.0462C11.5781 13.6936 13.6397 12.5967 16.1827 12.5967C18.7252 12.5967 20.7868 13.6936 20.7868 15.0462C20.7868 16.3988 18.7252 17.4952 16.1827 17.4952V17.4952Z" fill="#BED134"/>
<path fill-rule="evenodd" clip-rule="evenodd" d="M16.1827 17.1096C13.9046 17.1096 12.0586 16.1859 12.0586 15.0462C12.0586 13.9064 13.9046 12.9823 16.1827 12.9823C18.4604 12.9823 20.3068 13.9064 20.3068 15.0462C20.3068 16.1859 18.4604 17.1096 16.1827 17.1096V17.1096Z" fill="#71AA21"/>
<path fill-rule="evenodd" clip-rule="evenodd" d="M13.9511 13.7848C12.4202 13.9046 12.6261 14.4505 13.0329 14.8651C13.4135 15.2531 14.7403 15.1982 15.9694 14.8651C15.9694 14.8651 15.0968 13.6955 13.9511 13.7848V13.7848Z" fill="#5E8E11"/>
<path fill-rule="evenodd" clip-rule="evenodd" d="M18.5115 13.9203C19.6954 13.9147 19.7627 14.4413 19.3656 14.8651C18.8736 15.3899 17.5454 15.1779 16.3163 14.8449C16.3163 14.8449 17.3621 13.9253 18.5115 13.9203V13.9203Z" fill="#5E8E11"/>
<path fill-rule="evenodd" clip-rule="evenodd" d="M13.782 15.628C13.2752 15.8123 13.7175 16.5172 14.7794 16.5278C16.1619 16.5416 15.9693 15.0462 15.9693 15.0462C15.9693 15.0462 14.2887 15.4438 13.782 15.628V15.628Z" fill="#5E8E11"/>
<path fill-rule="evenodd" clip-rule="evenodd" d="M18.47 15.628C19.0809 15.9012 18.2309 16.5172 17.169 16.5278C15.7865 16.5416 16.2831 15.0462 16.2831 15.0462C16.2831 15.0462 17.978 15.4078 18.47 15.628V15.628Z" fill="#5E8E11"/>
<path fill-rule="evenodd" clip-rule="evenodd" d="M15.3258 13.7802C15.1719 13.5392 15.5152 13.2057 16.3163 13.2011C17.4224 13.1951 17.5145 13.519 17.1455 13.9235C16.777 14.3275 16.1827 14.6454 16.1827 14.6454C16.1827 14.6454 15.4792 14.0207 15.3258 13.7802V13.7802Z" fill="#5E8E11"/>
<path fill-rule="evenodd" clip-rule="evenodd" d="M26.3011 7.46518V7.96231H17.0925V7.46518H26.3011V7.46518Z" fill="#5E8E11"/>
<path fill-rule="evenodd" clip-rule="evenodd" d="M21.6967 10.3246C19.1541 10.3246 17.0925 9.22764 17.0925 7.87506C17.0925 6.52247 19.1541 5.42603 21.6967 5.42603C24.2397 5.42603 26.3013 6.52247 26.3013 7.87506C26.3013 9.22764 24.2397 10.3246 21.6967 10.3246V10.3246Z" fill="#5E8E11"/>
<path fill-rule="evenodd" clip-rule="evenodd" d="M21.6968 5.04065C24.2397 5.04065 26.3011 6.13716 26.3011 7.48977C26.3011 8.84239 24.2397 9.9389 21.6968 9.9389C19.1539 9.9389 17.0925 8.84239 17.0925 7.48977C17.0925 6.13716 19.1539 5.04065 21.6968 5.04065V5.04065Z" fill="#BED134"/>
<path fill-rule="evenodd" clip-rule="evenodd" d="M21.6967 9.55336C19.419 9.55336 17.5726 8.62967 17.5726 7.48992C17.5726 6.35017 19.419 5.42603 21.6967 5.42603C23.9748 5.42603 25.8212 6.35017 25.8212 7.48992C25.8212 8.62967 23.9748 9.55336 21.6967 9.55336V9.55336Z" fill="#71AA21"/>
<path fill-rule="evenodd" clip-rule="evenodd" d="M19.465 6.22854C17.9346 6.34785 18.1401 6.89423 18.5469 7.30886C18.9279 7.69676 20.2542 7.64194 21.4834 7.30886C21.4834 7.30886 20.6113 6.13916 19.465 6.22854V6.22854Z" fill="#5E8E11"/>
<path fill-rule="evenodd" clip-rule="evenodd" d="M24.0259 6.36398C25.2094 6.35845 25.2772 6.88502 24.88 7.30886C24.388 7.83358 23.0594 7.62166 21.8307 7.28859C21.8307 7.28859 22.8765 6.36905 24.0259 6.36398V6.36398Z" fill="#5E8E11"/>
<path fill-rule="evenodd" clip-rule="evenodd" d="M19.2961 8.07178C18.7893 8.25606 19.232 8.96092 20.2939 8.97151C21.6765 8.98533 21.4834 7.48993 21.4834 7.48993C21.4834 7.48993 19.8028 7.88751 19.2961 8.07178V8.07178Z" fill="#5E8E11"/>
<path fill-rule="evenodd" clip-rule="evenodd" d="M23.9845 8.07178C24.5954 8.34497 23.7449 8.96092 22.683 8.97151C21.3009 8.98533 21.7971 7.48993 21.7971 7.48993C21.7971 7.48993 23.4924 7.85157 23.9845 8.07178V8.07178Z" fill="#5E8E11"/>
<path fill-rule="evenodd" clip-rule="evenodd" d="M20.8398 6.22393C20.6864 5.98299 21.0296 5.64945 21.8307 5.64484C22.9364 5.63885 23.0285 5.96272 22.66 6.36674C22.2914 6.77123 21.6966 7.08911 21.6966 7.08911C21.6966 7.08911 20.9936 6.46441 20.8398 6.22393V6.22393Z" fill="#5E8E11"/>
<path fill-rule="evenodd" clip-rule="evenodd" d="M35.4338 4.63065V5.12778H26.2252V4.63065H35.4338V4.63065Z" fill="#5E8E11"/>
<path fill-rule="evenodd" clip-rule="evenodd" d="M30.8295 2.59154C33.3724 2.59154 35.4338 3.68805 35.4338 5.04066C35.4338 6.39328 33.3724 7.48979 30.8295 7.48979C28.2866 7.48979 26.2252 6.39328 26.2252 5.04066C26.2252 3.68805 28.2866 2.59154 30.8295 2.59154V2.59154Z" fill="#5E8E11"/>
<path fill-rule="evenodd" clip-rule="evenodd" d="M30.8295 2.20607C33.3724 2.20607 35.4338 3.30258 35.4338 4.6552C35.4338 6.00781 33.3724 7.10432 30.8295 7.10432C28.2866 7.10432 26.2252 6.00781 26.2252 4.6552C26.2252 3.30258 28.2866 2.20607 30.8295 2.20607V2.20607Z" fill="#BED134"/>
<path fill-rule="evenodd" clip-rule="evenodd" d="M30.8294 6.71873C28.5518 6.71873 26.7053 5.79504 26.7053 4.65529C26.7053 3.51555 28.5518 2.5914 30.8294 2.5914C33.1071 2.5914 34.9535 3.51555 34.9535 4.65529C34.9535 5.79504 33.1071 6.71873 30.8294 6.71873V6.71873Z" fill="#71AA21"/>
<path fill-rule="evenodd" clip-rule="evenodd" d="M28.5978 3.39391C27.0674 3.51369 27.2729 4.05961 27.6797 4.47423C28.0602 4.86214 29.387 4.80731 30.6161 4.47423C30.6161 4.47423 29.7436 3.30454 28.5978 3.39391V3.39391Z" fill="#5E8E11"/>
<path fill-rule="evenodd" clip-rule="evenodd" d="M33.1582 3.52936C34.3422 3.52383 34.4099 4.0504 34.0123 4.47423C33.5208 4.99942 32.1922 4.78704 30.963 4.45396C30.963 4.45396 32.0093 3.53442 33.1582 3.52936V3.52936Z" fill="#5E8E11"/>
<path fill-rule="evenodd" clip-rule="evenodd" d="M28.4288 5.23714C27.922 5.42142 28.3648 6.12628 29.4267 6.13687C30.8087 6.15069 30.6162 4.65529 30.6162 4.65529C30.6162 4.65529 28.9355 5.05286 28.4288 5.23714V5.23714Z" fill="#5E8E11"/>
<path fill-rule="evenodd" clip-rule="evenodd" d="M33.1173 5.23714C33.7282 5.51033 32.8778 6.12674 31.8158 6.13687C30.4333 6.15069 30.9299 4.65529 30.9299 4.65529C30.9299 4.65529 32.6248 5.01739 33.1173 5.23714V5.23714Z" fill="#5E8E11"/>
<path fill-rule="evenodd" clip-rule="evenodd" d="M29.9726 3.3893C29.8192 3.14836 30.1624 2.81482 30.9631 2.81067C32.0692 2.80423 32.1613 3.12809 31.7928 3.53258C31.4242 3.9366 30.8295 4.25448 30.8295 4.25448C30.8295 4.25448 30.126 3.63025 29.9726 3.3893V3.3893Z" fill="#5E8E11"/>
<path fill-rule="evenodd" clip-rule="evenodd" d="M46.4139 9.23398V9.73106H37.2053V9.23398H46.4139V9.23398Z" fill="#5E8E11"/>
<path fill-rule="evenodd" clip-rule="evenodd" d="M41.8096 12.0931C39.2666 12.0931 37.2054 10.9967 37.2054 9.6441C37.2054 8.29151 39.2666 7.19461 41.8096 7.19461C44.3526 7.19461 46.4137 8.29151 46.4137 9.6441C46.4137 10.9967 44.3526 12.0931 41.8096 12.0931V12.0931Z" fill="#5E8E11"/>
<path fill-rule="evenodd" clip-rule="evenodd" d="M41.8096 6.80939C44.3525 6.80939 46.4139 7.9059 46.4139 9.25851C46.4139 10.6111 44.3525 11.7076 41.8096 11.7076C39.2667 11.7076 37.2053 10.6111 37.2053 9.25851C37.2053 7.9059 39.2667 6.80939 41.8096 6.80939V6.80939Z" fill="#BED134"/>
<path fill-rule="evenodd" clip-rule="evenodd" d="M41.8095 11.3224C39.5319 11.3224 37.6854 10.3983 37.6854 9.25851C37.6854 8.11876 39.5319 7.19461 41.8095 7.19461C44.0872 7.19461 45.9337 8.11876 45.9337 9.25851C45.9337 10.3983 44.0872 11.3224 41.8095 11.3224V11.3224Z" fill="#71AA21"/>
<path fill-rule="evenodd" clip-rule="evenodd" d="M39.578 7.99761C38.0471 8.11693 38.2531 8.66285 38.6598 9.07793C39.0403 9.46583 40.3672 9.41055 41.5963 9.07793C41.5963 9.07793 40.7237 7.90823 39.578 7.99761V7.99761Z" fill="#5E8E11"/>
<path fill-rule="evenodd" clip-rule="evenodd" d="M44.1383 8.13258C45.3223 8.12705 45.3896 8.65408 44.9924 9.07792C44.5004 9.60218 43.1722 9.39027 41.9431 9.05718C41.9431 9.05718 42.9889 8.13811 44.1383 8.13258V8.13258Z" fill="#5E8E11"/>
<path fill-rule="evenodd" clip-rule="evenodd" d="M39.4088 9.84037C38.9021 10.0246 39.3444 10.7295 40.4067 10.7401C41.7888 10.7539 41.5962 9.25851 41.5962 9.25851C41.5962 9.25851 39.9156 9.65609 39.4088 9.84037V9.84037Z" fill="#5E8E11"/>
<path fill-rule="evenodd" clip-rule="evenodd" d="M44.0973 9.84037C44.7082 10.1136 43.8578 10.73 42.7959 10.7401C41.4134 10.7539 41.91 9.25851 41.91 9.25851C41.91 9.25851 43.6048 9.62062 44.0973 9.84037V9.84037Z" fill="#5E8E11"/>
<path fill-rule="evenodd" clip-rule="evenodd" d="M40.9527 7.99254C40.7993 7.7516 41.1425 7.41852 41.9431 7.41391C43.0493 7.40747 43.1414 7.73133 42.7729 8.13582C42.4038 8.53984 41.8095 8.85772 41.8095 8.85772C41.8095 8.85772 41.1061 8.23348 40.9527 7.99254V7.99254Z" fill="#5E8E11"/>
<path fill-rule="evenodd" clip-rule="evenodd" d="M21.9483 19.623V20.1882H11.48V19.623H21.9483V19.623Z" fill="#ED2B2B"/>
<path fill-rule="evenodd" clip-rule="evenodd" d="M16.7143 22.8733C13.8235 22.8733 11.4799 21.6267 11.4799 20.0893C11.4799 18.5515 13.8235 17.3049 16.7143 17.3049C19.6047 17.3049 21.9482 18.5515 21.9482 20.0893C21.9482 21.6267 19.6047 22.8733 16.7143 22.8733V22.8733Z" fill="#ED2B2B"/>
<path fill-rule="evenodd" clip-rule="evenodd" d="M16.7143 22.4352C13.8235 22.4352 11.4799 21.1885 11.4799 19.6508C11.4799 18.1134 13.8235 16.8668 16.7143 16.8668C19.6047 16.8668 21.9482 18.1134 21.9482 19.6508C21.9482 21.1885 19.6047 22.4352 16.7143 22.4352V22.4352Z" fill="#FF6969"/>
<path fill-rule="evenodd" clip-rule="evenodd" d="M16.7143 21.9971C14.1247 21.9971 12.0258 20.9467 12.0258 19.6508C12.0258 18.3553 14.1247 17.3049 16.7143 17.3049C19.3033 17.3049 21.4023 18.3553 21.4023 19.6508C21.4023 20.9467 19.3033 21.9971 16.7143 21.9971V21.9971Z" fill="#FF4343"/>
<path fill-rule="evenodd" clip-rule="evenodd" d="M13.5531 18.2977C15.2775 17.263 17.5998 17.6025 18.0776 17.7159C18.7497 17.8757 18.0398 18.4986 17.2446 18.5575C16.8825 18.5843 16.0266 18.6898 15.5184 18.9123C14.9103 19.1786 14.6754 19.5798 14.6952 19.7853C14.7316 20.1617 13.9769 20.8315 13.596 20.8435C13.1482 20.8578 11.8287 19.3329 13.5531 18.2977V18.2977Z" fill="#ED2B2B"/>
<path fill-rule="evenodd" clip-rule="evenodd" d="M14.778 21.3949C16.5346 21.9082 18.3175 21.6156 19.5913 21.014C20.8651 20.4123 21.1678 19.4209 20.4251 18.7243C19.8857 18.2185 19.3499 18.1752 19.0477 18.371C18.3456 18.8271 18.9624 19.6365 17.5974 19.9055C16.794 20.064 15.7238 19.9424 15.1751 20.2312C14.6923 20.486 13.9501 21.1526 14.778 21.3949V21.3949Z" fill="#ED2B2B"/>
<path fill-rule="evenodd" clip-rule="evenodd" d="M17.0602 17.8333C16.7705 17.8402 17.1358 18.2977 17.1358 18.2977C17.1358 18.2977 17.5002 17.8227 17.0602 17.8333V17.8333Z" fill="#FF6969"/>
<path fill-rule="evenodd" clip-rule="evenodd" d="M16.1703 17.8292C15.8607 17.8776 16.6411 18.3585 16.6411 18.3585C16.6411 18.3585 16.6411 17.755 16.1703 17.8292V17.8292Z" fill="#FF6969"/>
<path fill-rule="evenodd" clip-rule="evenodd" d="M15.2995 17.9761C14.9586 18.0849 15.9454 18.4161 15.9454 18.4161C15.9454 18.4161 15.6405 17.8679 15.2995 17.9761V17.9761Z" fill="#FF6969"/>
<path fill-rule="evenodd" clip-rule="evenodd" d="M14.4058 18.2254C13.9363 18.4203 15.2364 18.6833 15.2364 18.6833C15.2364 18.6833 14.8748 18.0305 14.4058 18.2254V18.2254Z" fill="#FF6969"/>
<path fill-rule="evenodd" clip-rule="evenodd" d="M13.5885 18.7243C13.2384 18.9496 14.6868 19.0689 14.6868 19.0689C14.6868 19.0689 14.1137 18.3871 13.5885 18.7243V18.7243Z" fill="#FF6969"/>
<path fill-rule="evenodd" clip-rule="evenodd" d="M13.243 19.3789C12.9592 19.5812 13.7691 19.8636 14.3675 19.4669C14.3675 19.4669 13.5272 19.1772 13.243 19.3789V19.3789Z" fill="#FF6969"/>
<path fill-rule="evenodd" clip-rule="evenodd" d="M13.4347 20.1193C13.2965 20.2137 13.4347 20.4427 13.712 20.3893C14.193 20.2962 14.3036 19.9055 14.3036 19.9055C14.3036 19.9055 13.712 19.93 13.4347 20.1193V20.1193Z" fill="#FF6969"/>
<path fill-rule="evenodd" clip-rule="evenodd" d="M19.6231 18.6308C19.9635 18.6497 20.1271 18.8699 19.7221 18.8985C19.3176 18.9266 19.0196 18.8496 19.0196 18.8496C19.0196 18.8496 19.2822 18.6119 19.6231 18.6308V18.6308Z" fill="#FF6969"/>
<path fill-rule="evenodd" clip-rule="evenodd" d="M14.9872 20.8007C14.8734 20.9923 15.3138 21.1913 15.4483 20.8435C15.5833 20.4957 15.5183 20.3607 15.5183 20.3607C15.4912 20.375 15.1005 20.609 14.9872 20.8007V20.8007Z" fill="#FF6969"/>
<path fill-rule="evenodd" clip-rule="evenodd" d="M15.9951 20.8435C16.0094 21.1416 16.396 21.213 16.3697 20.8435C16.343 20.474 16.1435 20.3607 16.1435 20.3607C16.1435 20.3607 15.9809 20.5454 15.9951 20.8435V20.8435Z" fill="#FF6969"/>
<path fill-rule="evenodd" clip-rule="evenodd" d="M16.8967 20.8435C16.975 21.0849 17.5357 21.2125 17.3086 20.7868C17.0815 20.3607 16.8115 20.2838 16.8115 20.2838C16.8115 20.2838 16.8189 20.6021 16.8967 20.8435V20.8435Z" fill="#FF6969"/>
<path fill-rule="evenodd" clip-rule="evenodd" d="M18.0683 20.8435C18.3664 21.1061 18.6787 20.9075 18.4018 20.609C18.125 20.3109 17.615 20.2257 17.615 20.2257C17.615 20.2257 17.7702 20.5809 18.0683 20.8435V20.8435Z" fill="#FF6969"/>
<path fill-rule="evenodd" clip-rule="evenodd" d="M18.9698 20.5238C19.3246 20.7228 19.6798 20.5312 19.2536 20.2824C18.8279 20.0341 18.3166 19.9608 18.3166 19.9608C18.3166 19.9608 18.6146 20.3252 18.9698 20.5238V20.5238Z" fill="#FF6969"/>
<path fill-rule="evenodd" clip-rule="evenodd" d="M19.8147 20.0271C20.1906 20.0861 20.4321 19.6862 20.0064 19.6153C19.5802 19.5443 18.8348 19.56 18.8348 19.56C18.8348 19.56 19.4384 19.9682 19.8147 20.0271V20.0271Z" fill="#FF6969"/>
<path fill-rule="evenodd" clip-rule="evenodd" d="M19.8857 19.1113C20.1907 19.1468 20.4538 19.3527 20.1271 19.367C19.8005 19.3808 19.0721 19.2375 19.0721 19.2375C19.0721 19.2375 19.5803 19.0758 19.8857 19.1113V19.1113Z" fill="#FF6969"/>
<path fill-rule="evenodd" clip-rule="evenodd" d="M36.9688 20.819V21.3841H26.5005V20.819H36.9688V20.819Z" fill="#ED2B2B"/>
<path fill-rule="evenodd" clip-rule="evenodd" d="M31.7347 24.0692C28.8438 24.0692 26.5003 22.8226 26.5003 21.2848C26.5003 19.7475 28.8438 18.5009 31.7347 18.5009C34.6255 18.5009 36.9686 19.7475 36.9686 21.2848C36.9686 22.8226 34.6255 24.0692 31.7347 24.0692V24.0692Z" fill="#ED2B2B"/>
<path fill-rule="evenodd" clip-rule="evenodd" d="M31.7347 23.6311C28.8438 23.6311 26.5003 22.3845 26.5003 20.8467C26.5003 19.3094 28.8438 18.0628 31.7347 18.0628C34.6255 18.0628 36.9686 19.3094 36.9686 20.8467C36.9686 22.3845 34.6255 23.6311 31.7347 23.6311V23.6311Z" fill="#FF6969"/>
<path fill-rule="evenodd" clip-rule="evenodd" d="M31.7347 23.193C29.1451 23.193 27.0463 22.1426 27.0463 20.8467C27.0463 19.5513 29.1451 18.5009 31.7347 18.5009C34.3238 18.5009 36.4232 19.5513 36.4232 20.8467C36.4232 22.1426 34.3238 23.193 31.7347 23.193V23.193Z" fill="#FF4343"/>
<path fill-rule="evenodd" clip-rule="evenodd" d="M28.5734 19.4941C30.2982 18.459 32.6201 18.7985 33.0978 18.9123C33.77 19.0717 33.0601 19.6945 32.2649 19.7535C31.9028 19.7802 31.0468 19.8857 30.5387 20.1082C29.9306 20.3745 29.6956 20.7758 29.7154 20.9812C29.7518 21.3576 28.9972 22.0275 28.6162 22.0394C28.1684 22.0533 26.849 20.5288 28.5734 19.4941V19.4941Z" fill="#ED2B2B"/>
<path fill-rule="evenodd" clip-rule="evenodd" d="M29.7984 22.5904C31.555 23.1041 33.3379 22.8116 34.6117 22.2099C35.8855 21.6082 36.1886 20.6173 35.4455 19.9203C34.9061 19.4144 34.3703 19.3711 34.0681 19.5669C33.3659 20.023 33.9833 20.8324 32.6178 21.1015C31.8144 21.26 30.7442 21.1383 30.1955 21.4272C29.7127 21.6815 28.971 22.3486 29.7984 22.5904V22.5904Z" fill="#ED2B2B"/>
<path fill-rule="evenodd" clip-rule="evenodd" d="M32.0806 19.0293C31.7909 19.0362 32.1562 19.4941 32.1562 19.4941C32.1562 19.4941 32.5206 19.0187 32.0806 19.0293V19.0293Z" fill="#FF6969"/>
<path fill-rule="evenodd" clip-rule="evenodd" d="M31.1906 19.0251C30.881 19.0735 31.6619 19.5545 31.6619 19.5545C31.6619 19.5545 31.6619 18.951 31.1906 19.0251V19.0251Z" fill="#FF6969"/>
<path fill-rule="evenodd" clip-rule="evenodd" d="M30.3199 19.1721C29.979 19.2808 30.9658 19.6121 30.9658 19.6121C30.9658 19.6121 30.6608 19.0634 30.3199 19.1721V19.1721Z" fill="#FF6969"/>
<path fill-rule="evenodd" clip-rule="evenodd" d="M29.4262 19.4214C28.9567 19.6162 30.2568 19.8793 30.2568 19.8793C30.2568 19.8793 29.8952 19.2265 29.4262 19.4214V19.4214Z" fill="#FF6969"/>
<path fill-rule="evenodd" clip-rule="evenodd" d="M28.6089 19.9203C28.2588 20.1451 29.7072 20.2649 29.7072 20.2649C29.7072 20.2649 29.1341 19.583 28.6089 19.9203V19.9203Z" fill="#FF6969"/>
<path fill-rule="evenodd" clip-rule="evenodd" d="M28.2634 20.5749C27.9796 20.7771 28.7895 21.0595 29.3879 20.6629C29.3879 20.6629 28.5476 20.3731 28.2634 20.5749V20.5749Z" fill="#FF6969"/>
<path fill-rule="evenodd" clip-rule="evenodd" d="M28.455 21.3152C28.3168 21.4097 28.455 21.6386 28.7324 21.5852C29.2133 21.4921 29.3239 21.1015 29.3239 21.1015C29.3239 21.1015 28.7324 21.1259 28.455 21.3152V21.3152Z" fill="#FF6969"/>
<path fill-rule="evenodd" clip-rule="evenodd" d="M34.6435 19.8268C34.9839 19.8456 35.1475 20.0659 34.743 20.094C34.3381 20.1225 34.04 20.0456 34.04 20.0456C34.04 20.0456 34.3026 19.8074 34.6435 19.8268V19.8268Z" fill="#FF6969"/>
<path fill-rule="evenodd" clip-rule="evenodd" d="M30.0075 21.9966C29.8938 22.1883 30.3342 22.3873 30.4692 22.0395C30.6037 21.6916 30.5388 21.5567 30.5388 21.5567C30.5115 21.5709 30.1209 21.805 30.0075 21.9966V21.9966Z" fill="#FF6969"/>
<path fill-rule="evenodd" clip-rule="evenodd" d="M31.0155 22.0395C31.0298 22.3375 31.4163 22.4089 31.39 22.0395C31.3633 21.67 31.1638 21.5567 31.1638 21.5567C31.1638 21.5567 31.0012 21.7414 31.0155 22.0395V22.0395Z" fill="#FF6969"/>
<path fill-rule="evenodd" clip-rule="evenodd" d="M31.9171 22.0394C31.9955 22.2808 32.5561 22.4085 32.329 21.9828C32.1019 21.5566 31.8319 21.4797 31.8319 21.4797C31.8319 21.4797 31.8393 21.798 31.9171 22.0394V22.0394Z" fill="#FF6969"/>
<path fill-rule="evenodd" clip-rule="evenodd" d="M33.0887 22.0395C33.3867 22.302 33.6991 22.103 33.4222 21.805C33.1454 21.5069 32.6354 21.4217 32.6354 21.4217C32.6354 21.4217 32.7906 21.7769 33.0887 22.0395V22.0395Z" fill="#FF6969"/>
<path fill-rule="evenodd" clip-rule="evenodd" d="M33.9903 21.7197C34.3455 21.9188 34.7003 21.7271 34.2741 21.4783C33.8485 21.23 33.337 21.1568 33.337 21.1568C33.337 21.1568 33.6356 21.5212 33.9903 21.7197V21.7197Z" fill="#FF6969"/>
<path fill-rule="evenodd" clip-rule="evenodd" d="M34.8351 21.2231C35.2115 21.2821 35.4529 20.8822 35.0268 20.8112C34.6006 20.7403 33.8552 20.756 33.8552 20.756C33.8552 20.756 34.4588 21.1641 34.8351 21.2231V21.2231Z" fill="#FF6969"/>
<path fill-rule="evenodd" clip-rule="evenodd" d="M34.9061 20.3073C35.2115 20.3427 35.4742 20.5487 35.1476 20.5629C34.8209 20.5768 34.0925 20.4335 34.0925 20.4335C34.0925 20.4335 34.6007 20.2718 34.9061 20.3073V20.3073Z" fill="#FF6969"/>
<path fill-rule="evenodd" clip-rule="evenodd" d="M13.0737 13.6621V14.2273H2.60535V13.6621H13.0737V13.6621Z" fill="#ED2B2B"/>
<path fill-rule="evenodd" clip-rule="evenodd" d="M7.83952 16.9124C4.94869 16.9124 2.60516 15.6658 2.60516 14.1285C2.60516 12.5907 4.94869 11.344 7.83952 11.344C10.7304 11.344 13.0734 12.5907 13.0734 14.1285C13.0734 15.6658 10.7304 16.9124 7.83952 16.9124V16.9124Z" fill="#ED2B2B"/>
<path fill-rule="evenodd" clip-rule="evenodd" d="M7.83952 16.4743C4.94869 16.4743 2.60516 15.2277 2.60516 13.6899C2.60516 12.1526 4.94869 10.9059 7.83952 10.9059C10.7304 10.9059 13.0734 12.1526 13.0734 13.6899C13.0734 15.2277 10.7304 16.4743 7.83952 16.4743V16.4743Z" fill="#FF6969"/>
<path fill-rule="evenodd" clip-rule="evenodd" d="M7.83951 16.0362C5.24997 16.0362 3.15106 14.9858 3.15106 13.6899C3.15106 12.3944 5.24997 11.3441 7.83951 11.3441C10.4286 11.3441 12.528 12.3944 12.528 13.6899C12.528 14.9858 10.4286 16.0362 7.83951 16.0362V16.0362Z" fill="#FF4343"/>
<path fill-rule="evenodd" clip-rule="evenodd" d="M4.67828 12.3373C6.40312 11.3021 8.725 11.6417 9.20274 11.7554C9.87489 11.9149 9.16498 12.5377 8.37027 12.5967C8.00772 12.6234 7.15174 12.7289 6.64361 12.9514C6.03551 13.2177 5.801 13.6189 5.82081 13.8244C5.85675 14.2008 5.1026 14.8706 4.72115 14.8826C4.27381 14.8964 2.95395 13.372 4.67828 12.3373V12.3373Z" fill="#ED2B2B"/>
<path fill-rule="evenodd" clip-rule="evenodd" d="M5.90325 15.4336C7.66032 15.9473 9.44275 15.6548 10.7166 15.0531C11.9908 14.4514 12.2935 13.46 11.5504 12.7635C11.0109 12.2576 10.4751 12.2143 10.1734 12.4101C9.47083 12.8662 10.0882 13.6756 8.72269 13.9447C7.91923 14.1031 6.84904 13.9815 6.30081 14.2704C5.81755 14.5247 5.07584 15.1918 5.90325 15.4336V15.4336Z" fill="#ED2B2B"/>
<path fill-rule="evenodd" clip-rule="evenodd" d="M8.18553 11.8725C7.89577 11.8794 8.26109 12.3373 8.26109 12.3373C8.26109 12.3373 8.6255 11.8619 8.18553 11.8725V11.8725Z" fill="#FF6969"/>
<path fill-rule="evenodd" clip-rule="evenodd" d="M7.29546 11.8683C6.98633 11.9167 7.76674 12.3977 7.76674 12.3977C7.76674 12.3977 7.76674 11.7942 7.29546 11.8683V11.8683Z" fill="#FF6969"/>
<path fill-rule="evenodd" clip-rule="evenodd" d="M6.42477 12.0153C6.08386 12.124 7.07068 12.4553 7.07068 12.4553C7.07068 12.4553 6.7657 11.9066 6.42477 12.0153V12.0153Z" fill="#FF6969"/>
<path fill-rule="evenodd" clip-rule="evenodd" d="M5.53104 12.2645C5.0616 12.4594 6.36166 12.7225 6.36166 12.7225C6.36166 12.7225 6.0005 12.0697 5.53104 12.2645V12.2645Z" fill="#FF6969"/>
<path fill-rule="evenodd" clip-rule="evenodd" d="M4.71378 12.7634C4.36412 12.9883 5.81209 13.108 5.81209 13.108C5.81209 13.108 5.23944 12.4262 4.71378 12.7634V12.7634Z" fill="#FF6969"/>
<path fill-rule="evenodd" clip-rule="evenodd" d="M4.36816 13.4181C4.08438 13.6203 4.89427 13.9027 5.49271 13.5061C5.49271 13.5061 4.6524 13.2163 4.36816 13.4181V13.4181Z" fill="#FF6969"/>
<path fill-rule="evenodd" clip-rule="evenodd" d="M4.55988 14.1584C4.42166 14.2529 4.55988 14.4818 4.8372 14.4284C5.31818 14.3353 5.42874 13.9447 5.42874 13.9447C5.42874 13.9447 4.8372 13.9691 4.55988 14.1584V14.1584Z" fill="#FF6969"/>
<path fill-rule="evenodd" clip-rule="evenodd" d="M10.7483 12.6699C11.0892 12.6888 11.2523 12.909 10.8478 12.9376C10.4428 12.9657 10.1448 12.8888 10.1448 12.8888C10.1448 12.8888 10.4074 12.651 10.7483 12.6699V12.6699Z" fill="#FF6969"/>
<path fill-rule="evenodd" clip-rule="evenodd" d="M6.1124 14.8398C5.99905 15.0314 6.43903 15.2304 6.57397 14.8826C6.70898 14.5348 6.64355 14.3998 6.64355 14.3998C6.61636 14.4141 6.22617 14.6481 6.1124 14.8398V14.8398Z" fill="#FF6969"/>
<path fill-rule="evenodd" clip-rule="evenodd" d="M7.12041 14.8826C7.13467 15.1807 7.52119 15.2521 7.49495 14.8826C7.4682 14.5136 7.26874 14.3998 7.26874 14.3998C7.26874 14.3998 7.1066 14.5846 7.12041 14.8826V14.8826Z" fill="#FF6969"/>
<path fill-rule="evenodd" clip-rule="evenodd" d="M8.022 14.8826C8.10033 15.124 8.66098 15.2516 8.43385 14.826C8.20673 14.3998 7.93677 14.3229 7.93677 14.3229C7.93677 14.3229 7.94414 14.6412 8.022 14.8826V14.8826Z" fill="#FF6969"/>
<path fill-rule="evenodd" clip-rule="evenodd" d="M9.19351 14.8826C9.49158 15.1452 9.80394 14.9462 9.52705 14.6481C9.25018 14.3501 8.74017 14.2648 8.74017 14.2648C8.74017 14.2648 8.89543 14.62 9.19351 14.8826V14.8826Z" fill="#FF6969"/>
<path fill-rule="evenodd" clip-rule="evenodd" d="M10.0951 14.5629C10.4503 14.7619 10.805 14.5703 10.3793 14.3215C9.9532 14.0732 9.44183 13.9999 9.44183 13.9999C9.44183 13.9999 9.74036 14.3643 10.0951 14.5629V14.5629Z" fill="#FF6969"/>
<path fill-rule="evenodd" clip-rule="evenodd" d="M10.94 14.0663C11.3164 14.1252 11.5578 13.7254 11.1316 13.6544C10.7055 13.5835 9.96008 13.5991 9.96008 13.5991C9.96008 13.5991 10.5636 14.0073 10.94 14.0663V14.0663Z" fill="#FF6969"/>
<path fill-rule="evenodd" clip-rule="evenodd" d="M11.011 13.1504C11.3164 13.1859 11.579 13.3918 11.2524 13.4056C10.9257 13.4199 10.1974 13.2767 10.1974 13.2767C10.1974 13.2767 10.7055 13.115 11.011 13.1504V13.1504Z" fill="#FF6969"/>
<path fill-rule="evenodd" clip-rule="evenodd" d="M24.5731 4.07579V4.64097H14.1049V4.07579H24.5731V4.07579Z" fill="#ED2B2B"/>
<path fill-rule="evenodd" clip-rule="evenodd" d="M19.3389 7.32591C16.4481 7.32591 14.105 6.07974 14.105 4.54195C14.105 3.00417 16.4481 1.758 19.3389 1.758C22.2297 1.758 24.5733 3.00417 24.5733 4.54195C24.5733 6.07974 22.2297 7.32591 19.3389 7.32591V7.32591Z" fill="#ED2B2B"/>
<path fill-rule="evenodd" clip-rule="evenodd" d="M19.3389 6.88778C16.4481 6.88778 14.105 5.64115 14.105 4.10383C14.105 2.56604 16.4481 1.31941 19.3389 1.31941C22.2297 1.31941 24.5733 2.56604 24.5733 4.10383C24.5733 5.64115 22.2297 6.88778 19.3389 6.88778V6.88778Z" fill="#FF6969"/>
<path fill-rule="evenodd" clip-rule="evenodd" d="M19.3388 6.44969C16.7498 6.44969 14.6504 5.39932 14.6504 4.10385C14.6504 2.80792 16.7498 1.75801 19.3388 1.75801C21.9284 1.75801 24.0273 2.80792 24.0273 4.10385C24.0273 5.39932 21.9284 6.44969 19.3388 6.44969V6.44969Z" fill="#FF4343"/>
<path fill-rule="evenodd" clip-rule="evenodd" d="M16.178 2.7508C17.9024 1.71609 20.2243 2.05516 20.7025 2.16895C21.3747 2.32881 20.6647 2.95166 19.8696 3.01017C19.5075 3.03689 18.6515 3.14285 18.1429 3.36536C17.5348 3.63118 17.3003 4.0329 17.3201 4.23792C17.3565 4.61476 16.6019 5.28414 16.2204 5.29612C15.7731 5.31041 14.4532 3.78552 16.178 2.7508V2.7508Z" fill="#ED2B2B"/>
<path fill-rule="evenodd" clip-rule="evenodd" d="M17.4026 5.84754C19.1597 6.36121 20.9426 6.06822 22.2164 5.46655C23.4901 4.86489 23.7928 3.87395 23.0502 3.17738C22.5103 2.67108 21.9749 2.62777 21.6727 2.82403C20.9702 3.28011 21.5875 4.08909 20.2225 4.35813C19.4186 4.51661 18.3488 4.39545 17.8002 4.6843C17.3174 4.9386 16.5752 5.60568 17.4026 5.84754V5.84754Z" fill="#ED2B2B"/>
<path fill-rule="evenodd" clip-rule="evenodd" d="M19.6848 2.28596C19.3955 2.29287 19.7608 2.7508 19.7608 2.7508C19.7608 2.7508 20.1252 2.27536 19.6848 2.28596V2.28596Z" fill="#FF6969"/>
<path fill-rule="evenodd" clip-rule="evenodd" d="M18.7952 2.28181C18.4856 2.33019 19.2661 2.81161 19.2661 2.81161C19.2661 2.81161 19.2661 2.2081 18.7952 2.28181V2.28181Z" fill="#FF6969"/>
<path fill-rule="evenodd" clip-rule="evenodd" d="M17.9241 2.42922C17.5837 2.53748 18.5704 2.86872 18.5704 2.86872C18.5704 2.86872 18.265 2.3205 17.9241 2.42922V2.42922Z" fill="#FF6969"/>
<path fill-rule="evenodd" clip-rule="evenodd" d="M17.0303 2.67798C16.5613 2.87285 17.861 3.13591 17.861 3.13591C17.861 3.13591 17.4998 2.48357 17.0303 2.67798V2.67798Z" fill="#FF6969"/>
<path fill-rule="evenodd" clip-rule="evenodd" d="M16.2135 3.17738C15.8634 3.4022 17.3114 3.52152 17.3114 3.52152C17.3114 3.52152 16.7388 2.83969 16.2135 3.17738V3.17738Z" fill="#FF6969"/>
<path fill-rule="evenodd" clip-rule="evenodd" d="M15.868 3.83204C15.5838 4.03382 16.3937 4.31669 16.9921 3.91957C16.9921 3.91957 16.1518 3.6298 15.868 3.83204V3.83204Z" fill="#FF6969"/>
<path fill-rule="evenodd" clip-rule="evenodd" d="M16.0592 4.57188C15.921 4.66633 16.0592 4.89529 16.337 4.84185C16.8175 4.74879 16.9285 4.35812 16.9285 4.35812C16.9285 4.35812 16.337 4.38254 16.0592 4.57188V4.57188Z" fill="#FF6969"/>
<path fill-rule="evenodd" clip-rule="evenodd" d="M22.2477 3.0834C22.5886 3.10275 22.7517 3.3225 22.3472 3.35106C21.9427 3.37917 21.6442 3.30269 21.6442 3.30269C21.6442 3.30269 21.9068 3.06452 22.2477 3.0834V3.0834Z" fill="#FF6969"/>
<path fill-rule="evenodd" clip-rule="evenodd" d="M17.6117 5.25373C17.4984 5.44538 17.9384 5.6444 18.0733 5.29611C18.2083 4.94829 18.1429 4.81331 18.1429 4.81331C18.1157 4.82759 17.7255 5.06208 17.6117 5.25373V5.25373Z" fill="#FF6969"/>
<path fill-rule="evenodd" clip-rule="evenodd" d="M18.6201 5.29611C18.634 5.59418 19.0205 5.66559 18.9942 5.29611C18.968 4.9271 18.768 4.81331 18.768 4.81331C18.768 4.81331 18.6059 4.99805 18.6201 5.29611V5.29611Z" fill="#FF6969"/>
<path fill-rule="evenodd" clip-rule="evenodd" d="M19.5217 5.2961C19.5996 5.5375 20.1607 5.66557 19.9331 5.23944C19.706 4.81329 19.4365 4.73636 19.4365 4.73636C19.4365 4.73636 19.4434 5.05516 19.5217 5.2961V5.2961Z" fill="#FF6969"/>
<path fill-rule="evenodd" clip-rule="evenodd" d="M20.6929 5.29611C20.9914 5.55871 21.3037 5.36015 21.0269 5.06208C20.75 4.76355 20.24 4.67879 20.24 4.67879C20.24 4.67879 20.3948 5.03398 20.6929 5.29611V5.29611Z" fill="#FF6969"/>
<path fill-rule="evenodd" clip-rule="evenodd" d="M21.5944 4.97684C21.9496 5.1754 22.3043 4.98375 21.8786 4.73544C21.4525 4.48667 20.9416 4.41388 20.9416 4.41388C20.9416 4.41388 21.2397 4.77783 21.5944 4.97684V4.97684Z" fill="#FF6969"/>
<path fill-rule="evenodd" clip-rule="evenodd" d="M22.4393 4.47975C22.8157 4.53872 23.0571 4.13884 22.631 4.06789C22.2053 3.99694 21.4599 4.01261 21.4599 4.01261C21.4599 4.01261 22.0634 4.42078 22.4393 4.47975V4.47975Z" fill="#FF6969"/>
<path fill-rule="evenodd" clip-rule="evenodd" d="M22.5102 3.56391C22.8157 3.59938 23.0783 3.80531 22.7516 3.81959C22.425 3.83388 21.6967 3.69014 21.6967 3.69014C21.6967 3.69014 22.2053 3.52844 22.5102 3.56391V3.56391Z" fill="#FF6969"/>
<path fill-rule="evenodd" clip-rule="evenodd" d="M41.1647 5.34167V5.9068H30.6964V5.34167H41.1647V5.34167Z" fill="#ED2B2B"/>
<path fill-rule="evenodd" clip-rule="evenodd" d="M35.9307 8.5919C33.0399 8.5919 30.6963 7.34527 30.6963 5.80794C30.6963 4.27016 33.0399 3.02353 35.9307 3.02353C38.8215 3.02353 41.1646 4.27016 41.1646 5.80794C41.1646 7.34527 38.8215 8.5919 35.9307 8.5919V8.5919Z" fill="#ED2B2B"/>
<path fill-rule="evenodd" clip-rule="evenodd" d="M35.9307 8.15379C33.0399 8.15379 30.6963 6.90716 30.6963 5.36983C30.6963 3.83205 33.0399 2.58542 35.9307 2.58542C38.8215 2.58542 41.1646 3.83205 41.1646 5.36983C41.1646 6.90716 38.8215 8.15379 35.9307 8.15379V8.15379Z" fill="#FF6969"/>
<path fill-rule="evenodd" clip-rule="evenodd" d="M35.9306 7.71568C33.3411 7.71568 31.2422 6.6653 31.2422 5.36984C31.2422 4.07392 33.3411 3.02354 35.9306 3.02354C38.5197 3.02354 40.6191 4.07392 40.6191 5.36984C40.6191 6.6653 38.5197 7.71568 35.9306 7.71568V7.71568Z" fill="#FF4343"/>
<path fill-rule="evenodd" clip-rule="evenodd" d="M32.7694 4.01676C34.4942 2.98205 36.8161 3.32112 37.2939 3.43491C37.966 3.59477 37.2561 4.21762 36.4609 4.27613C36.0988 4.30285 35.2429 4.40881 34.7347 4.63086C34.1266 4.89715 33.8917 5.2984 33.9115 5.50387C33.9479 5.88072 33.1933 6.5501 32.8123 6.56208C32.3649 6.57636 31.0451 5.05147 32.7694 4.01676V4.01676Z" fill="#ED2B2B"/>
<path fill-rule="evenodd" clip-rule="evenodd" d="M33.9944 7.11354C35.751 7.62675 37.5339 7.33421 38.8077 6.73255C40.082 6.13089 40.3847 5.13994 39.6416 4.44291C39.1021 3.93708 38.5663 3.89377 38.2646 4.09003C37.562 4.54565 38.1793 5.35508 36.8139 5.62413C36.0104 5.7826 34.9402 5.66098 34.3915 5.95029C33.9088 6.2046 33.1671 6.87122 33.9944 7.11354V7.11354Z" fill="#ED2B2B"/>
<path fill-rule="evenodd" clip-rule="evenodd" d="M36.2767 3.55195C35.9869 3.55886 36.3522 4.01678 36.3522 4.01678C36.3522 4.01678 36.7166 3.54135 36.2767 3.55195V3.55195Z" fill="#FF6969"/>
<path fill-rule="evenodd" clip-rule="evenodd" d="M35.3866 3.54781C35.077 3.59618 35.8579 4.0776 35.8579 4.0776C35.8579 4.0776 35.8579 3.4741 35.3866 3.54781V3.54781Z" fill="#FF6969"/>
<path fill-rule="evenodd" clip-rule="evenodd" d="M34.516 3.69476C34.175 3.80348 35.1618 4.13472 35.1618 4.13472C35.1618 4.13472 34.8569 3.5865 34.516 3.69476V3.69476Z" fill="#FF6969"/>
<path fill-rule="evenodd" clip-rule="evenodd" d="M33.6222 3.94399C33.1528 4.13886 34.4529 4.40191 34.4529 4.40191C34.4529 4.40191 34.0917 3.74912 33.6222 3.94399V3.94399Z" fill="#FF6969"/>
<path fill-rule="evenodd" clip-rule="evenodd" d="M32.8048 4.44292C32.4547 4.6682 33.9031 4.78752 33.9031 4.78752C33.9031 4.78752 33.33 4.1057 32.8048 4.44292V4.44292Z" fill="#FF6969"/>
<path fill-rule="evenodd" clip-rule="evenodd" d="M32.4594 5.09803C32.1756 5.29981 32.9854 5.58222 33.5839 5.18556C33.5839 5.18556 32.7436 4.89579 32.4594 5.09803V5.09803Z" fill="#FF6969"/>
<path fill-rule="evenodd" clip-rule="evenodd" d="M32.651 5.83788C32.5128 5.93232 32.651 6.16128 32.9284 6.10784C33.4093 6.01478 33.5199 5.62411 33.5199 5.62411C33.5199 5.62411 32.9284 5.64853 32.651 5.83788V5.83788Z" fill="#FF6969"/>
<path fill-rule="evenodd" clip-rule="evenodd" d="M38.8394 4.3494C39.1799 4.36829 39.3435 4.5885 38.939 4.61706C38.5341 4.64516 38.236 4.56822 38.236 4.56822C38.236 4.56822 38.4986 4.33051 38.8394 4.3494V4.3494Z" fill="#FF6969"/>
<path fill-rule="evenodd" clip-rule="evenodd" d="M34.2035 6.51926C34.0898 6.71137 34.5302 6.91039 34.6652 6.5621C34.7997 6.21428 34.7347 6.0793 34.7347 6.0793C34.7076 6.09358 34.3173 6.32761 34.2035 6.51926V6.51926Z" fill="#FF6969"/>
<path fill-rule="evenodd" clip-rule="evenodd" d="M35.2115 6.5621C35.2258 6.86017 35.6123 6.93158 35.5861 6.5621C35.5594 6.19309 35.3599 6.0793 35.3599 6.0793C35.3599 6.0793 35.1972 6.26404 35.2115 6.5621V6.5621Z" fill="#FF6969"/>
<path fill-rule="evenodd" clip-rule="evenodd" d="M36.1131 6.56209C36.1913 6.80349 36.752 6.9311 36.525 6.50542C36.2978 6.07928 36.0278 6.00235 36.0278 6.00235C36.0278 6.00235 36.0352 6.32069 36.1131 6.56209V6.56209Z" fill="#FF6969"/>
<path fill-rule="evenodd" clip-rule="evenodd" d="M37.2846 6.56209C37.5827 6.82469 37.895 6.62613 37.6182 6.3276C37.3413 6.02954 36.8313 5.94431 36.8313 5.94431C36.8313 5.94431 36.9865 6.2995 37.2846 6.56209V6.56209Z" fill="#FF6969"/>
<path fill-rule="evenodd" clip-rule="evenodd" d="M38.1862 6.24238C38.5414 6.4414 38.8961 6.24975 38.47 6.00144C38.0443 5.75266 37.533 5.67941 37.533 5.67941C37.533 5.67941 37.8315 6.04382 38.1862 6.24238V6.24238Z" fill="#FF6969"/>
<path fill-rule="evenodd" clip-rule="evenodd" d="M39.0312 5.74574C39.4076 5.80471 39.649 5.40483 39.2228 5.33388C38.7967 5.26294 38.0513 5.2786 38.0513 5.2786C38.0513 5.2786 38.6548 5.68677 39.0312 5.74574V5.74574Z" fill="#FF6969"/>
<path fill-rule="evenodd" clip-rule="evenodd" d="M39.102 4.8299C39.4075 4.86538 39.6701 5.0713 39.3435 5.08558C39.0168 5.09987 38.2885 4.95613 38.2885 4.95613C38.2885 4.95613 38.7966 4.79443 39.102 4.8299V4.8299Z" fill="#FF6969"/>
<path fill-rule="evenodd" clip-rule="evenodd" d="M48.4557 15.195V15.7601H37.9874V15.195H48.4557V15.195Z" fill="#ED2B2B"/>
<path fill-rule="evenodd" clip-rule="evenodd" d="M43.2216 18.4451C40.3308 18.4451 37.9877 17.199 37.9877 15.6612C37.9877 14.1234 40.3308 12.8768 43.2216 12.8768C46.1124 12.8768 48.456 14.1234 48.456 15.6612C48.456 17.199 46.1124 18.4451 43.2216 18.4451V18.4451Z" fill="#ED2B2B"/>
<path fill-rule="evenodd" clip-rule="evenodd" d="M43.2216 18.007C40.3308 18.007 37.9877 16.7609 37.9877 15.2231C37.9877 13.6853 40.3308 12.4387 43.2216 12.4387C46.1124 12.4387 48.456 13.6853 48.456 15.2231C48.456 16.7609 46.1124 18.007 43.2216 18.007V18.007Z" fill="#FF6969"/>
<path fill-rule="evenodd" clip-rule="evenodd" d="M43.2215 17.5689C40.6324 17.5689 38.5331 16.5185 38.5331 15.2231C38.5331 13.9271 40.6324 12.8768 43.2215 12.8768C45.8111 12.8768 47.91 13.9271 47.91 15.2231C47.91 16.5185 45.8111 17.5689 43.2215 17.5689V17.5689Z" fill="#FF4343"/>
<path fill-rule="evenodd" clip-rule="evenodd" d="M40.0603 13.87C41.7851 12.8353 44.107 13.1744 44.5852 13.2882C45.2574 13.448 44.5475 14.0709 43.7523 14.1294C43.3902 14.1561 42.5342 14.2621 42.0256 14.4846C41.4175 14.7504 41.183 15.1517 41.2028 15.3571C41.2392 15.734 40.4846 16.4034 40.1031 16.4153C39.6558 16.4296 38.336 14.9047 40.0603 13.87V13.87Z" fill="#ED2B2B"/>
<path fill-rule="evenodd" clip-rule="evenodd" d="M41.2853 16.9668C43.0423 17.4805 44.8247 17.1875 46.099 16.5858C47.3728 15.9841 47.6755 14.9932 46.9324 14.2966C46.3929 13.7903 45.8576 13.747 45.5554 13.9433C44.8528 14.3994 45.4702 15.2088 44.1051 15.4778C43.3012 15.6359 42.2315 15.5147 41.6828 15.8035C41.2 16.0578 40.4578 16.7249 41.2853 16.9668V16.9668Z" fill="#ED2B2B"/>
<path fill-rule="evenodd" clip-rule="evenodd" d="M43.5675 13.4052C43.2782 13.4121 43.643 13.87 43.643 13.87C43.643 13.87 44.0079 13.3946 43.5675 13.4052V13.4052Z" fill="#FF6969"/>
<path fill-rule="evenodd" clip-rule="evenodd" d="M42.6779 13.401C42.3683 13.4494 43.1487 13.9308 43.1487 13.9308C43.1487 13.9308 43.1487 13.3273 42.6779 13.401V13.401Z" fill="#FF6969"/>
<path fill-rule="evenodd" clip-rule="evenodd" d="M41.8067 13.5485C41.4663 13.6567 42.453 13.9884 42.453 13.9884C42.453 13.9884 42.1476 13.4398 41.8067 13.5485V13.5485Z" fill="#FF6969"/>
<path fill-rule="evenodd" clip-rule="evenodd" d="M40.913 13.7972C40.444 13.9921 41.7437 14.2552 41.7437 14.2552C41.7437 14.2552 41.3825 13.6024 40.913 13.7972V13.7972Z" fill="#FF6969"/>
<path fill-rule="evenodd" clip-rule="evenodd" d="M40.0963 14.2966C39.7461 14.5214 41.1941 14.6408 41.1941 14.6408C41.1941 14.6408 40.6214 13.9589 40.0963 14.2966V14.2966Z" fill="#FF6969"/>
<path fill-rule="evenodd" clip-rule="evenodd" d="M39.7506 14.9513C39.4664 15.1531 40.2763 15.4355 40.8747 15.0388C40.8747 15.0388 40.0345 14.7495 39.7506 14.9513V14.9513Z" fill="#FF6969"/>
<path fill-rule="evenodd" clip-rule="evenodd" d="M39.9419 15.6911C39.8037 15.7856 39.9419 16.015 40.2197 15.9611C40.7002 15.868 40.8112 15.4778 40.8112 15.4778C40.8112 15.4778 40.2197 15.5018 39.9419 15.6911V15.6911Z" fill="#FF6969"/>
<path fill-rule="evenodd" clip-rule="evenodd" d="M46.1304 14.2026C46.4713 14.2215 46.6344 14.4417 46.2299 14.4703C45.8249 14.4989 45.5269 14.4219 45.5269 14.4219C45.5269 14.4219 45.7894 14.1837 46.1304 14.2026V14.2026Z" fill="#FF6969"/>
<path fill-rule="evenodd" clip-rule="evenodd" d="M41.4944 16.373C41.3811 16.5646 41.821 16.7636 41.956 16.4154C42.091 16.0675 42.0256 15.9326 42.0256 15.9326C41.9984 15.9468 41.6082 16.1813 41.4944 16.373V16.373Z" fill="#FF6969"/>
<path fill-rule="evenodd" clip-rule="evenodd" d="M42.5029 16.4153C42.5167 16.7134 42.9032 16.7848 42.877 16.4153C42.8507 16.0463 42.6508 15.9325 42.6508 15.9325C42.6508 15.9325 42.4886 16.1173 42.5029 16.4153V16.4153Z" fill="#FF6969"/>
<path fill-rule="evenodd" clip-rule="evenodd" d="M43.4044 16.4153C43.4823 16.6567 44.0434 16.7844 43.8158 16.3587C43.5887 15.9325 43.3192 15.8556 43.3192 15.8556C43.3192 15.8556 43.3261 16.1744 43.4044 16.4153V16.4153Z" fill="#FF6969"/>
<path fill-rule="evenodd" clip-rule="evenodd" d="M44.5755 16.4153C44.8741 16.6779 45.1864 16.4794 44.9095 16.1813C44.6327 15.8828 44.1227 15.7976 44.1227 15.7976C44.1227 15.7976 44.2775 16.1528 44.5755 16.4153V16.4153Z" fill="#FF6969"/>
<path fill-rule="evenodd" clip-rule="evenodd" d="M45.4771 16.0961C45.8322 16.2946 46.187 16.103 45.7613 15.8547C45.3352 15.6059 44.8243 15.5331 44.8243 15.5331C44.8243 15.5331 45.1223 15.8971 45.4771 16.0961V16.0961Z" fill="#FF6969"/>
<path fill-rule="evenodd" clip-rule="evenodd" d="M46.322 15.599C46.6984 15.658 46.9398 15.2581 46.5137 15.1871C46.088 15.1162 45.3426 15.1319 45.3426 15.1319C45.3426 15.1319 45.9461 15.54 46.322 15.599V15.599Z" fill="#FF6969"/>
<path fill-rule="evenodd" clip-rule="evenodd" d="M46.3929 14.6831C46.6984 14.7186 46.961 14.9245 46.6343 14.9388C46.3077 14.9531 45.5793 14.8094 45.5793 14.8094C45.5793 14.8094 46.088 14.6477 46.3929 14.6831V14.6831Z" fill="#FF6969"/>
<path fill-rule="evenodd" clip-rule="evenodd" d="M30.0881 14.7355V15.3006H19.6198V14.7355H30.0881V14.7355Z" fill="#ED2B2B"/>
<path fill-rule="evenodd" clip-rule="evenodd" d="M24.8538 17.9859C21.963 17.9859 19.6199 16.7392 19.6199 15.2014C19.6199 13.6641 21.963 12.4175 24.8538 12.4175C27.7446 12.4175 30.0882 13.6641 30.0882 15.2014C30.0882 16.7392 27.7446 17.9859 24.8538 17.9859V17.9859Z" fill="#ED2B2B"/>
<path fill-rule="evenodd" clip-rule="evenodd" d="M24.8538 17.5477C21.963 17.5477 19.6199 16.3011 19.6199 14.7633C19.6199 13.226 21.963 11.9794 24.8538 11.9794C27.7446 11.9794 30.0882 13.226 30.0882 14.7633C30.0882 16.3011 27.7446 17.5477 24.8538 17.5477V17.5477Z" fill="#FF6969"/>
<path fill-rule="evenodd" clip-rule="evenodd" d="M24.8539 12.4174C27.4433 12.4174 29.5423 13.4678 29.5423 14.7634C29.5423 16.0591 27.4433 17.1095 24.8539 17.1095C22.2646 17.1095 20.1655 16.0591 20.1655 14.7634C20.1655 13.4678 22.2646 12.4174 24.8539 12.4174V12.4174Z" fill="#FF4343"/>
<path fill-rule="evenodd" clip-rule="evenodd" d="M21.693 13.4103C23.4174 12.3756 25.7397 12.7151 26.2174 12.8284C26.8896 12.9883 26.1797 13.6111 25.3845 13.6701C25.0224 13.6968 24.1665 13.8023 23.6579 14.0248C23.0497 14.2911 22.8152 14.6924 22.8351 14.8974C22.8715 15.2742 22.1168 15.9441 21.7354 15.956C21.2881 15.9699 19.9682 14.445 21.693 13.4103V13.4103Z" fill="#ED2B2B"/>
<path fill-rule="evenodd" clip-rule="evenodd" d="M22.9175 16.507C24.6747 17.0207 26.4575 16.7277 27.7313 16.126C29.0051 15.5248 29.3078 14.5334 28.5652 13.8369C28.0252 13.331 27.4899 13.2873 27.1877 13.4835C26.4851 13.9396 27.1025 14.749 25.7375 15.0181C24.934 15.1766 23.8638 15.0549 23.3151 15.3438C22.8323 15.5981 22.0901 16.2652 22.9175 16.507V16.507Z" fill="#ED2B2B"/>
<path fill-rule="evenodd" clip-rule="evenodd" d="M25.1998 12.9459C24.9105 12.9528 25.2758 13.4103 25.2758 13.4103C25.2758 13.4103 25.6402 12.9353 25.1998 12.9459V12.9459Z" fill="#FF6969"/>
<path fill-rule="evenodd" clip-rule="evenodd" d="M24.3102 12.9417C24.0006 12.9901 24.781 13.4711 24.781 13.4711C24.781 13.4711 24.781 12.8676 24.3102 12.9417V12.9417Z" fill="#FF6969"/>
<path fill-rule="evenodd" clip-rule="evenodd" d="M23.4395 13.0887C23.0986 13.1974 24.0854 13.5286 24.0854 13.5286C24.0854 13.5286 23.7799 12.98 23.4395 13.0887V13.0887Z" fill="#FF6969"/>
<path fill-rule="evenodd" clip-rule="evenodd" d="M22.5453 13.3379C22.0763 13.5328 23.3759 13.7959 23.3759 13.7959C23.3759 13.7959 23.0147 13.1431 22.5453 13.3379V13.3379Z" fill="#FF6969"/>
<path fill-rule="evenodd" clip-rule="evenodd" d="M21.7285 13.8369C21.3784 14.0617 22.8263 14.1815 22.8263 14.1815C22.8263 14.1815 22.2537 13.4996 21.7285 13.8369V13.8369Z" fill="#FF6969"/>
<path fill-rule="evenodd" clip-rule="evenodd" d="M21.383 14.4915C21.0987 14.6933 21.9086 14.9761 22.5071 14.5795C22.5071 14.5795 21.6668 14.2897 21.383 14.4915V14.4915Z" fill="#FF6969"/>
<path fill-rule="evenodd" clip-rule="evenodd" d="M21.5741 15.2318C21.436 15.3263 21.5741 15.5552 21.8519 15.5013C22.3324 15.4083 22.4435 15.0181 22.4435 15.0181C22.4435 15.0181 21.8519 15.042 21.5741 15.2318V15.2318Z" fill="#FF6969"/>
<path fill-rule="evenodd" clip-rule="evenodd" d="M27.7625 13.7433C28.1035 13.7622 28.2665 13.9824 27.8621 14.0105C27.4576 14.0391 27.1591 13.9622 27.1591 13.9622C27.1591 13.9622 27.4221 13.724 27.7625 13.7433V13.7433Z" fill="#FF6969"/>
<path fill-rule="evenodd" clip-rule="evenodd" d="M23.1267 15.9132C23.0133 16.1049 23.4533 16.3039 23.5883 15.956C23.7233 15.6082 23.6578 15.4732 23.6578 15.4732C23.6311 15.4875 23.2404 15.7215 23.1267 15.9132V15.9132Z" fill="#FF6969"/>
<path fill-rule="evenodd" clip-rule="evenodd" d="M24.135 15.956C24.1493 16.2541 24.5354 16.3251 24.5091 15.956C24.4828 15.5866 24.2829 15.4732 24.2829 15.4732C24.2829 15.4732 24.1208 15.658 24.135 15.956V15.956Z" fill="#FF6969"/>
<path fill-rule="evenodd" clip-rule="evenodd" d="M25.0367 15.956C25.1146 16.1974 25.6757 16.3251 25.4485 15.8989C25.2209 15.4732 24.9515 15.3963 24.9515 15.3963C24.9515 15.3963 24.9584 15.7146 25.0367 15.956V15.956Z" fill="#FF6969"/>
<path fill-rule="evenodd" clip-rule="evenodd" d="M26.2078 15.956C26.5063 16.2186 26.8187 16.0196 26.5418 15.7216C26.2649 15.4235 25.7549 15.3383 25.7549 15.3383C25.7549 15.3383 25.9097 15.6935 26.2078 15.956V15.956Z" fill="#FF6969"/>
<path fill-rule="evenodd" clip-rule="evenodd" d="M27.1098 15.6363C27.4646 15.8353 27.8198 15.6437 27.3936 15.3949C26.9675 15.1466 26.4565 15.0733 26.4565 15.0733C26.4565 15.0733 26.7546 15.4378 27.1098 15.6363V15.6363Z" fill="#FF6969"/>
<path fill-rule="evenodd" clip-rule="evenodd" d="M27.9543 15.1392C28.3307 15.1987 28.5721 14.7988 28.146 14.7278C27.7203 14.6569 26.9749 14.6725 26.9749 14.6725C26.9749 14.6725 27.5784 15.0807 27.9543 15.1392V15.1392Z" fill="#FF6969"/>
<path fill-rule="evenodd" clip-rule="evenodd" d="M28.0252 14.2238C28.3306 14.2593 28.5932 14.4652 28.2666 14.4791C27.9404 14.4933 27.2116 14.3501 27.2116 14.3501C27.2116 14.3501 27.7202 14.1884 28.0252 14.2238V14.2238Z" fill="#FF6969"/>
<path fill-rule="evenodd" clip-rule="evenodd" d="M40.9831 18.8182V19.3154H31.7745V18.8182H40.9831V18.8182Z" fill="#5E8E11"/>
<path fill-rule="evenodd" clip-rule="evenodd" d="M36.3789 21.6774C33.8359 21.6774 31.7743 20.5809 31.7743 19.2283C31.7743 17.8757 33.8359 16.7793 36.3789 16.7793C38.9214 16.7793 40.983 17.8757 40.983 19.2283C40.983 20.5809 38.9214 21.6774 36.3789 21.6774V21.6774Z" fill="#5E8E11"/>
<path fill-rule="evenodd" clip-rule="evenodd" d="M36.3789 21.2922C33.8359 21.2922 31.7743 20.1953 31.7743 18.8427C31.7743 17.4901 33.8359 16.3937 36.3789 16.3937C38.9214 16.3937 40.983 17.4901 40.983 18.8427C40.983 20.1953 38.9214 21.2922 36.3789 21.2922V21.2922Z" fill="#BED134"/>
<path fill-rule="evenodd" clip-rule="evenodd" d="M36.3789 20.9066C34.1012 20.9066 32.2543 19.9825 32.2543 18.8427C32.2543 17.703 34.1012 16.7793 36.3789 16.7793C38.6566 16.7793 40.503 17.703 40.503 18.8427C40.503 19.9825 38.6566 20.9066 36.3789 20.9066V20.9066Z" fill="#71AA21"/>
<path fill-rule="evenodd" clip-rule="evenodd" d="M34.1473 17.5818C32.6164 17.7011 32.8224 18.247 33.2292 18.6621C33.6097 19.05 34.9365 18.9947 36.1656 18.6621C36.1656 18.6621 35.293 17.4924 34.1473 17.5818V17.5818Z" fill="#5E8E11"/>
<path fill-rule="evenodd" clip-rule="evenodd" d="M38.7076 17.7168C39.8916 17.7113 39.9589 18.2383 39.5618 18.6621C39.0698 19.1868 37.7415 18.9745 36.5125 18.6414C36.5125 18.6414 37.5582 17.7223 38.7076 17.7168V17.7168Z" fill="#5E8E11"/>
<path fill-rule="evenodd" clip-rule="evenodd" d="M33.9782 19.425C33.4715 19.6093 33.9137 20.3142 34.9756 20.3243C36.3582 20.3381 36.1656 18.8427 36.1656 18.8427C36.1656 18.8427 34.485 19.2403 33.9782 19.425V19.425Z" fill="#5E8E11"/>
<path fill-rule="evenodd" clip-rule="evenodd" d="M38.6662 19.425C39.2771 19.6978 38.4271 20.3142 37.3647 20.3248C35.9827 20.3381 36.4793 18.8427 36.4793 18.8427C36.4793 18.8427 38.1742 19.2048 38.6662 19.425V19.425Z" fill="#5E8E11"/>
<path fill-rule="evenodd" clip-rule="evenodd" d="M35.522 17.5767C35.3681 17.3358 35.7113 17.0027 36.5125 16.9981C37.6181 16.9917 37.7108 17.316 37.3417 17.72C36.9732 18.124 36.3789 18.4419 36.3789 18.4419C36.3789 18.4419 35.6754 17.8177 35.522 17.5767V17.5767Z" fill="#5E8E11"/>
<path fill-rule="evenodd" clip-rule="evenodd" d="M15.9454 11.0718C16.1827 12.5967 17.9292 12.2747 17.9292 12.2747C17.9292 12.2747 16.8664 9.91822 16.1827 8.86693C16.1827 8.86693 15.8602 10.524 15.9454 11.0718V11.0718Z" fill="#71AA21"/>
<path fill-rule="evenodd" clip-rule="evenodd" d="M11.8084 9.56809C11.7471 8.7195 11.0865 7.93678 10.1241 7.67742C8.94109 7.35815 7.80041 7.90177 7.51707 8.95215C7.48761 9.06225 7.44154 9.5386 7.45673 9.62153C7.45673 9.62245 7.5733 9.94125 7.72438 10.0924C8.3141 10.6843 9.64641 10.9363 10.6996 10.6558C11.3804 10.4747 11.7762 10.1145 11.8126 9.72288C11.8167 9.67405 11.8158 9.61739 11.8084 9.56809V9.56809Z" fill="#344144"/>
<path opacity="0.5" fill-rule="evenodd" clip-rule="evenodd" d="M10.0232 9.10049C9.52522 8.96643 9.18614 8.61953 9.2654 8.32561C9.34465 8.03169 9.81224 7.90223 10.3098 8.03676C10.8073 8.17082 11.1469 8.51772 11.0676 8.81118C10.9884 9.1051 10.5208 9.23455 10.0232 9.10049V9.10049Z" fill="white"/>
<path fill-rule="evenodd" clip-rule="evenodd" d="M38.2018 10.8484C38.1405 10.0002 37.4804 9.21704 36.518 8.95768C35.3345 8.63888 34.1938 9.18203 33.9105 10.2324C33.881 10.3425 33.8354 10.8193 33.8502 10.9018C33.8502 10.9027 33.9667 11.2215 34.1178 11.3731C34.7075 11.9646 36.0398 12.2171 37.093 11.9365C37.7743 11.755 38.1696 11.3952 38.206 11.0036C38.2101 10.9552 38.2092 10.8976 38.2018 10.8484V10.8484Z" fill="#344144"/>
<path opacity="0.5" fill-rule="evenodd" clip-rule="evenodd" d="M36.4167 10.3808C35.9192 10.2467 35.5797 9.8998 35.6589 9.60587C35.7381 9.31241 36.2057 9.18296 36.7033 9.31702C37.2013 9.45108 37.5404 9.79798 37.4612 10.0919C37.3819 10.3858 36.9143 10.5153 36.4167 10.3808V10.3808Z" fill="white"/>
<path fill-rule="evenodd" clip-rule="evenodd" d="M48.1076 16.4255C48.0464 15.5774 47.3862 14.7946 46.4233 14.5348C45.2403 14.216 44.0996 14.7592 43.8163 15.8095C43.7868 15.9201 43.7407 16.3965 43.7559 16.4789C43.7559 16.4803 43.8725 16.7986 44.0236 16.9502C44.6133 17.5417 45.9456 17.7942 46.9987 17.5136C47.6797 17.3321 48.0753 16.9723 48.1118 16.5807C48.116 16.5324 48.115 16.4748 48.1076 16.4255V16.4255Z" fill="#344144"/>
<path opacity="0.5" fill-rule="evenodd" clip-rule="evenodd" d="M46.3224 15.9579C45.8244 15.8238 45.4854 15.4769 45.5646 15.1835C45.6438 14.8896 46.1114 14.7601 46.609 14.8942C47.1065 15.0282 47.446 15.3751 47.3668 15.669C47.2876 15.963 46.82 16.0924 46.3224 15.9579V15.9579Z" fill="white"/>
<path fill-rule="evenodd" clip-rule="evenodd" d="M42.8428 11.889C42.9041 11.0409 43.5643 10.2577 44.5267 9.99836C45.7102 9.67957 46.8509 10.2227 47.1342 11.2731C47.1637 11.3832 47.2093 11.86 47.1945 11.9425C47.1945 11.9434 47.0775 12.2622 46.9268 12.4138C46.3372 13.0053 45.0049 13.2578 43.9517 12.9772C43.2704 12.7957 42.8751 12.4359 42.8387 12.0443C42.8351 11.9959 42.8354 11.9383 42.8428 11.889V11.889Z" fill="#344144"/>
<path opacity="0.5" fill-rule="evenodd" clip-rule="evenodd" d="M44.628 11.4214C45.1256 11.2874 45.4651 10.9405 45.3859 10.6465C45.3066 10.3531 44.839 10.2236 44.3415 10.3577C43.8434 10.4918 43.5044 10.8387 43.5836 11.1326C43.6628 11.4265 44.1305 11.556 44.628 11.4214V11.4214Z" fill="white"/>
<path fill-rule="evenodd" clip-rule="evenodd" d="M9.18343 19.2938C9.24513 18.4456 9.9053 17.6629 10.8677 17.4035C12.0512 17.0843 13.1919 17.6279 13.4747 18.6783C13.5047 18.7884 13.5503 19.2647 13.5351 19.3472C13.5351 19.3486 13.4185 19.6674 13.2679 19.8185C12.6778 20.41 11.3459 20.6625 10.2923 20.3819C9.6114 20.2008 9.21565 19.8406 9.17926 19.449C9.17558 19.4002 9.17603 19.3435 9.18343 19.2938V19.2938Z" fill="#344144"/>
<path opacity="0.5" fill-rule="evenodd" clip-rule="evenodd" d="M10.9691 18.8266C11.4666 18.6926 11.8057 18.3457 11.7265 18.0517C11.6472 17.7578 11.1796 17.6284 10.6821 17.7624C10.1845 17.8969 9.84546 18.2438 9.9247 18.5378C10.0035 18.8312 10.4715 18.9607 10.9691 18.8266V18.8266Z" fill="white"/>
<path fill-rule="evenodd" clip-rule="evenodd" d="M29.1875 5.25373C29.2488 4.40559 29.9094 3.62288 30.8718 3.36351C32.0549 3.04425 33.1955 3.58787 33.4789 4.63779C33.5088 4.74835 33.5544 5.22471 33.5392 5.30717C33.5392 5.30855 33.4226 5.62735 33.2715 5.77845C32.6819 6.36998 31.3495 6.62244 30.2964 6.34188C29.6155 6.16083 29.2198 5.80056 29.1834 5.40898C29.1793 5.36015 29.1801 5.30348 29.1875 5.25373V5.25373Z" fill="#344144"/>
<path opacity="0.5" fill-rule="evenodd" clip-rule="evenodd" d="M30.9727 4.78659C31.4707 4.65207 31.8098 4.30516 31.7306 4.0117C31.6513 3.71778 31.1837 3.58833 30.6862 3.72239C30.1887 3.85645 29.8492 4.20382 29.9283 4.49727C30.0076 4.79119 30.4752 4.92065 30.9727 4.78659V4.78659Z" fill="white"/>
<path fill-rule="evenodd" clip-rule="evenodd" d="M22.6803 18.9662C22.7415 18.1176 23.4017 17.3349 24.3641 17.0755C25.5476 16.7567 26.6883 17.2999 26.9711 18.3503C27.0011 18.4604 27.0467 18.9372 27.032 19.0196C27.0315 19.0206 26.9149 19.3394 26.7643 19.4905C26.1742 20.0825 24.8423 20.3345 23.7887 20.0544C23.1078 19.8728 22.7125 19.513 22.6756 19.121C22.672 19.0722 22.6729 19.0155 22.6803 18.9662V18.9662Z" fill="#344144"/>
<path opacity="0.5" fill-rule="evenodd" clip-rule="evenodd" d="M24.4654 18.4986C24.963 18.3645 25.302 18.0176 25.2228 17.7237C25.144 17.4298 24.6759 17.3008 24.1784 17.4349C23.6809 17.5689 23.3418 17.9158 23.421 18.2097C23.5003 18.5037 23.9679 18.6327 24.4654 18.4986V18.4986Z" fill="white"/>
<path fill-rule="evenodd" clip-rule="evenodd" d="M16.8208 11.1865C16.882 10.3384 17.5422 9.55565 18.5046 9.29628C19.6881 8.97702 20.8288 9.52018 21.1116 10.5706C21.1416 10.6811 21.1872 11.1575 21.172 11.2399C21.172 11.2413 21.0554 11.5601 20.9048 11.7112C20.3147 12.3028 18.9828 12.5552 17.9292 12.2746C17.2483 12.0931 16.853 11.7333 16.8161 11.3418C16.8125 11.2929 16.8129 11.2358 16.8208 11.1865V11.1865Z" fill="#344144"/>
<path opacity="0.5" fill-rule="evenodd" clip-rule="evenodd" d="M18.6059 10.7194C19.1035 10.5853 19.4425 10.2379 19.3633 9.94447C19.284 9.65055 18.8165 9.5211 18.3189 9.65516C17.8214 9.78968 17.4823 10.1366 17.5615 10.43C17.6403 10.724 18.1084 10.8534 18.6059 10.7194V10.7194Z" fill="white"/>
<path fill-rule="evenodd" clip-rule="evenodd" d="M33.5839 14.2538C32.6883 14.8578 32.3829 15.6142 32.3829 15.6142C32.3829 15.6142 34.8752 15.7787 35.8265 14.9398C35.8265 14.9398 34.479 13.6498 33.5839 14.2538V14.2538Z" fill="#71AA21"/>
<path fill-rule="evenodd" clip-rule="evenodd" d="M13.624 9.66899C12.5778 9.32302 11.4735 10.1486 11.0672 11.1561C10.8539 11.685 10.6862 12.1503 11.1819 12.5469C11.4413 12.7542 11.7333 12.7561 12.0494 12.7671C12.5741 12.7856 12.9698 12.9394 13.4646 13.0878C14.0036 13.2495 14.7159 13.2803 15.0881 12.7681C15.4373 12.2876 15.1503 11.4804 14.9411 10.9995C14.6845 10.4098 14.2524 9.87631 13.624 9.66899V9.66899Z" fill="#FFE3A6"/>
<path fill-rule="evenodd" clip-rule="evenodd" d="M15.0231 5.27768C14.7319 5.52968 14.6094 5.99037 14.8255 6.33174C15.0577 6.69891 15.6547 6.95183 16.0611 7.05825C16.5042 7.17388 16.9843 7.13933 17.3713 6.88042C18.136 6.36814 17.9775 5.29611 17.2413 4.83864C16.6918 4.49681 15.5184 4.8497 15.0231 5.27768V5.27768Z" fill="#FFE3A6"/>
<path fill-rule="evenodd" clip-rule="evenodd" d="M23.8499 5.06991C23.0921 5.34126 22.5628 6.09126 21.7432 6.15852C21.4115 6.10185 21.0287 6.1576 20.7716 6.40223C20.6657 6.50312 20.6247 6.66758 20.6642 6.80717C20.9195 7.69861 22.4886 8.45184 23.3487 8.42282C24.0287 8.39978 24.7713 7.99391 25.4181 7.79121C25.9207 7.63365 26.4201 7.38903 26.6749 6.90254C27.1365 6.02169 26.4888 5.20397 25.6263 4.95934C25.0459 4.79441 24.4115 4.86951 23.8499 5.06991V5.06991Z" fill="#FFE3A6"/>
<path fill-rule="evenodd" clip-rule="evenodd" d="M29.3257 6.89287C28.7849 7.09695 28.2772 7.44892 28.7899 8.02617C29.1747 8.45876 30.0158 8.64119 30.5327 8.84758C31.0529 9.05581 31.5398 9.37369 31.995 8.93511C32.247 8.69232 32.4267 8.46244 32.7312 8.24546C32.9334 8.10126 33.1366 7.97273 33.2757 7.75574C33.5148 7.38212 33.5254 6.90208 33.1859 6.5842C32.3069 5.76187 30.3494 6.50635 29.3257 6.89287V6.89287Z" fill="#FFE3A6"/>
<path fill-rule="evenodd" clip-rule="evenodd" d="M26.9117 8.37675C26.4644 8.37398 25.9967 8.63842 25.865 9.08437C25.5255 10.2338 27.1457 10.7945 27.9722 10.3089C28.3808 10.0684 28.6223 9.35157 28.1417 9.02171C27.6299 8.67067 27.2609 8.37813 26.9117 8.37675V8.37675Z" fill="#FFE3A6"/>
<path fill-rule="evenodd" clip-rule="evenodd" d="M19.2274 17.0967C19.074 16.9557 18.8966 16.8396 18.7077 16.7655C18.0379 16.5033 17.3371 16.589 16.6894 16.2191C16.2453 15.9657 15.9214 15.581 15.3732 15.5764C14.8978 15.5723 13.8221 16.5738 13.8189 16.9594C13.8165 17.2741 14.0289 17.456 14.2777 17.5887C14.602 17.7624 14.7527 17.6541 15.0093 17.9845C15.1475 18.1623 15.1904 18.4101 15.2728 18.617C15.5672 19.3559 15.9984 20.0645 16.9046 20.0014C17.4777 19.9613 18.0153 19.578 18.4976 19.3016C18.7243 19.1717 18.9777 19.0473 19.1947 18.886C19.7433 19.0238 20.4173 18.9754 20.7725 18.8644C21.5608 18.6184 22.1979 17.5643 21.5359 16.8475C20.854 16.1085 19.9626 16.7973 19.2274 17.0967V17.0967Z" fill="#FFE3A6"/>
<path fill-rule="evenodd" clip-rule="evenodd" d="M16.4642 13.4001C15.9454 14.2648 16.8106 14.8043 17.1593 14.9858C17.5772 15.2028 18.0752 15.4189 18.5428 15.2245C19.2444 14.9324 19.2771 14.0009 18.8574 13.4586C18.3548 12.8091 16.9014 12.6718 16.4642 13.4001V13.4001Z" fill="#FFE3A6"/>
<path fill-rule="evenodd" clip-rule="evenodd" d="M35.3235 14.6716C34.5675 15.7298 35.3387 16.9663 36.5273 17.163C37.5118 17.3257 39.5466 16.8903 39.7184 15.6764C39.8788 14.5431 38.7446 14.0847 37.7499 13.9534C36.858 13.8359 35.8533 13.9295 35.3235 14.6716V14.6716Z" fill="#FFE3A6"/>
<path fill-rule="evenodd" clip-rule="evenodd" d="M38.7713 10.577C38.54 11.0036 38.5469 11.5666 38.8855 11.936C39.6185 12.7363 41.2327 12.3963 41.8644 11.6403C42.6051 10.7544 42.1338 9.39211 40.9494 9.27924C40.4933 9.23548 38.9431 10.2591 38.7713 10.577V10.577Z" fill="#FFE3A6"/>
<path fill-rule="evenodd" clip-rule="evenodd" d="M39.8958 7.18218C39.606 7.10801 38.2041 7.46873 38.1415 7.85571C38.0084 8.67804 38.8952 9.15255 39.588 9.16545C40.3275 9.17882 41.0346 8.61677 40.6781 7.8313C40.5311 7.50789 40.2395 7.26971 39.8958 7.18218V7.18218Z" fill="#FFE3A6"/>
<path fill-rule="evenodd" clip-rule="evenodd" d="M33.1214 12.7676C33.8285 12.886 34.9605 12.5188 34.9572 11.6265C34.9536 10.7705 32.4335 10.7138 32.089 11.0916C31.4168 11.8292 32.4359 12.6524 33.1214 12.7676V12.7676Z" fill="#FFE3A6"/>
<path fill-rule="evenodd" clip-rule="evenodd" d="M34.0966 17.0691C33.049 16.8088 32.4298 15.7469 31.3039 15.8063C30.3756 15.8556 29.0787 16.5116 28.3578 17.0668C27.8805 17.4339 27.5359 17.9504 27.8308 18.5571C28.1772 19.2693 30.6732 19.8254 31.2117 19.8397C32.2764 19.8673 34.0695 19.8917 35.0447 19.3983C35.528 19.1542 35.9223 18.6561 35.8057 18.0798C35.627 17.1934 34.7637 17.2349 34.0966 17.0691V17.0691Z" fill="#FFE3A6"/>
<path fill-rule="evenodd" clip-rule="evenodd" d="M23.0156 10.6258C22.6324 10.6429 22.2518 10.7645 21.9413 10.9925C21.4645 11.3427 21.3682 11.814 20.7209 11.8458C20.334 11.8646 20.0446 11.7117 19.6991 11.9775C19.4536 12.1669 19.3541 12.4506 19.3905 12.7538C19.4439 13.1993 20.6394 14.2589 21.0955 14.3344C21.9924 14.4828 23.4146 14.5601 24.195 13.9829C24.8644 13.4881 25.1284 12.5184 24.8344 11.7435C24.5502 10.9958 23.7947 10.5908 23.0156 10.6258V10.6258Z" fill="#FFE3A6"/>
<path fill-rule="evenodd" clip-rule="evenodd" d="M6.5229 12.3212C6.85094 12.5654 7.29411 12.6999 7.68156 12.5105C7.98561 12.3617 8.19246 12.0328 8.16389 11.6919C8.09019 10.8226 6.6436 10.8442 6.35246 11.9015C6.30455 12.0747 6.38979 12.2221 6.5229 12.3212V12.3212Z" fill="#FFE3A6"/>
<path fill-rule="evenodd" clip-rule="evenodd" d="M10.055 13.1237C9.82695 12.9671 8.74017 12.7224 8.71068 13.448C8.6918 13.9207 9.23955 14.4169 9.6597 14.5297C10.1568 14.6638 10.7566 14.2326 10.5875 13.6839C10.5092 13.4301 10.2627 13.2661 10.055 13.1237V13.1237Z" fill="#FFE3A6"/>
<path fill-rule="evenodd" clip-rule="evenodd" d="M19.2541 5.36844C19.2034 5.53107 19.308 5.71719 19.4771 5.76095C20.1451 5.93371 20.8209 5.54074 21.0347 4.89347C21.083 4.74605 21.0029 4.56269 20.8698 4.48806C20.4892 4.27522 19.5733 4.34847 19.2541 5.36844V5.36844Z" fill="#FFE3A6"/>
<path fill-rule="evenodd" clip-rule="evenodd" d="M15.4137 8.61999C15.241 8.80518 15.0692 9.30273 15.2714 9.44094C15.7639 9.77724 16.4332 9.78876 16.9501 9.49622C17.192 9.35986 17.4219 9.14979 17.4491 8.85909C17.4772 8.55779 17.2588 8.2846 16.9787 8.19201C16.7005 8.09941 15.6321 8.38596 15.4137 8.61999V8.61999Z" fill="#FFE3A6"/>
<path fill-rule="evenodd" clip-rule="evenodd" d="M19.8438 19.8714C19.7171 19.982 19.255 20.5344 19.2334 20.8334C19.2255 20.9389 19.3002 21.0803 19.3992 21.1231C19.9714 21.3728 21.1586 21.2885 21.3465 20.5487C21.4346 20.2027 21.2309 19.8429 20.9338 19.6706C20.5546 19.4499 20.1492 19.6052 19.8438 19.8714V19.8714Z" fill="#FFE3A6"/>
<path fill-rule="evenodd" clip-rule="evenodd" d="M40.8062 14.6067C40.7315 15.2682 41.733 15.4037 42.196 15.3719C42.7696 15.3323 43.3979 14.8412 43.2285 14.2017C43.0884 13.6756 40.8605 14.122 40.8062 14.6067V14.6067Z" fill="#FFE3A6"/>
<path opacity="0.5" fill-rule="evenodd" clip-rule="evenodd" d="M11.7582 11.145C11.76 11.533 12.0466 11.6776 12.3861 11.7393C12.8164 11.8177 13.2517 11.9227 13.5659 11.5334C13.8456 11.1865 13.4194 10.7028 13.1845 10.3697C12.8431 9.88552 11.7563 10.6636 11.7582 11.145V11.145Z" fill="white"/>
<path opacity="0.5" fill-rule="evenodd" clip-rule="evenodd" d="M23.8126 5.74712C23.6435 5.80886 23.4243 5.93094 23.2681 6.01662C23.0889 6.11521 22.8691 6.11383 22.7065 6.20919C22.5586 6.29626 22.4771 6.41881 22.5153 6.59894C22.6475 7.21442 23.3832 6.88273 23.6666 6.63994C24.0738 6.29074 24.5566 5.95812 25.1205 6.08389C25.3707 6.14009 25.5232 6.17326 25.7249 5.98345C25.8396 5.8752 25.8157 5.66189 25.6743 5.58726C25.1537 5.31315 24.3125 5.34954 23.8126 5.74712V5.74712Z" fill="white"/>
<path opacity="0.5" fill-rule="evenodd" clip-rule="evenodd" d="M15.9389 5.35002C15.8514 5.37489 15.7358 5.49513 15.6584 5.55042C15.5432 5.63288 15.4741 5.8296 15.6086 5.93786C15.9481 6.21197 16.453 6.80718 16.9437 6.57545C17.4026 6.35939 17.4445 5.74391 17.1556 5.37812C16.864 5.0091 16.2153 4.8861 15.9389 5.35002V5.35002Z" fill="white"/>
<path opacity="0.5" fill-rule="evenodd" clip-rule="evenodd" d="M22.572 11.251C22.3937 11.2731 22.2224 11.3178 22.0703 11.4367C21.834 11.6209 21.6589 11.9899 21.8322 12.2733C21.9377 12.447 22.0865 12.4497 22.2445 12.5336C22.3518 12.5911 22.4324 12.7072 22.5481 12.7676C22.8729 12.9376 23.287 12.8556 23.5381 12.5971C24.0342 12.0872 23.7426 11.0032 22.9378 11.0948C22.8019 11.11 22.6747 11.1672 22.572 11.251V11.251Z" fill="white"/>
<path opacity="0.5" fill-rule="evenodd" clip-rule="evenodd" d="M20.8116 12.4792C20.6693 12.4539 20.5569 12.5156 20.4905 12.6073C20.3486 12.6446 20.2754 12.8874 20.3219 13.0131C20.4224 13.2836 20.778 13.5393 21.0544 13.6001C21.3972 13.6752 21.7275 13.39 21.6423 13.0325C21.5557 12.6685 21.1323 12.5354 20.8116 12.4792V12.4792Z" fill="white"/>
<path opacity="0.5" fill-rule="evenodd" clip-rule="evenodd" d="M16.3725 16.806C16.0145 16.5176 15.2673 16.1818 15.1383 16.7346C15.0848 16.9622 15.2543 17.1538 15.4584 17.2225C15.5128 17.2409 15.7455 17.2566 15.7464 17.2579C15.8044 17.3169 15.8136 17.5408 15.8629 17.6228C16.1375 18.078 16.9138 18.1351 16.9912 17.5178C17.0211 17.2791 16.9783 17.0073 16.753 16.8742C16.6397 16.8069 16.5065 16.8005 16.3725 16.806V16.806Z" fill="white"/>
<path opacity="0.5" fill-rule="evenodd" clip-rule="evenodd" d="M18.2838 17.1405C17.9342 17.1068 17.6302 17.8066 17.5274 18.0287C17.4131 18.2761 17.3058 18.517 17.4648 18.775C17.608 19.0081 17.8983 19.1044 18.1576 19.0358C18.5787 18.9238 19.055 18.4677 19.138 18.0356C19.2246 17.5855 18.897 17.0972 18.4175 17.1115C18.3682 17.1128 18.3244 17.1244 18.2838 17.1405V17.1405Z" fill="white"/>
<path opacity="0.5" fill-rule="evenodd" clip-rule="evenodd" d="M20.1589 17.1958C20.0474 17.2543 19.947 17.3386 19.8728 17.4252C19.7401 17.5791 19.7719 17.7689 19.9318 17.8859C20.3045 18.1586 20.9453 17.9776 21.0582 17.5044C21.1254 17.2239 20.9034 16.9797 20.6237 16.9921C20.462 16.9995 20.2879 17.0787 20.1589 17.1958V17.1958Z" fill="white"/>
<path opacity="0.5" fill-rule="evenodd" clip-rule="evenodd" d="M26.4437 9.49808C26.4492 9.792 26.7127 9.98641 26.9928 9.97996C27.2365 9.97397 27.5503 9.87078 27.6263 9.61187C27.706 9.34052 27.2932 8.76374 26.8671 8.82777C26.5989 8.86785 26.4386 9.22673 26.4437 9.49808V9.49808Z" fill="white"/>
<path opacity="0.5" fill-rule="evenodd" clip-rule="evenodd" d="M31.6905 6.58236C31.5439 6.57868 31.397 6.59987 31.2583 6.65101C30.9953 6.74821 30.8718 6.98178 30.5866 7.03937C30.2172 7.11354 29.5201 7.14441 29.704 7.73639C29.856 8.22749 30.6654 8.18971 31.0519 8.17958C31.3104 8.17267 31.5887 8.18465 31.7886 7.99254C31.883 7.90224 31.942 7.79628 31.9646 7.66453C31.9848 7.58897 31.9848 7.51388 31.9646 7.43832C32.0111 7.41621 32.059 7.35863 32.1078 7.33605C32.3709 7.21674 32.3649 6.77079 32.1078 6.64962C31.9701 6.58466 31.8268 6.56578 31.6905 6.58236V6.58236Z" fill="white"/>
<path opacity="0.5" fill-rule="evenodd" clip-rule="evenodd" d="M32.61 11.3468C32.3289 11.778 32.997 12.0913 33.3112 12.195C33.7184 12.329 34.2362 12.0936 34.1957 11.6094C34.1519 11.093 33.5595 11.0732 33.1725 11.1685C32.9712 11.1031 32.7422 11.1437 32.61 11.3468V11.3468Z" fill="white"/>
<path opacity="0.5" fill-rule="evenodd" clip-rule="evenodd" d="M40.1022 10.325C40.0612 10.3568 40.0215 10.3996 39.9852 10.4466C39.7525 10.6318 39.3946 11.0289 39.6876 11.3026C39.9386 11.5362 40.3233 11.3906 40.5735 11.2381C40.7315 11.1418 40.8752 11.0197 40.983 10.8686C41.0922 10.7157 41.1194 10.5623 41.1678 10.3867C41.2277 10.1679 41.0079 9.90025 40.7715 9.99054C40.5421 10.0785 40.2975 10.1734 40.1022 10.325V10.325Z" fill="white"/>
<path opacity="0.5" fill-rule="evenodd" clip-rule="evenodd" d="M31.4587 16.6651C30.7732 16.3905 29.6514 16.923 29.5883 17.6698C29.5717 17.8647 29.7781 18.0702 29.9725 18.054C30.8275 17.9812 31.443 18.482 32.2538 18.6046C32.6625 18.6668 33.4765 18.8386 33.7032 18.3443C33.9515 17.8048 33.2858 17.5017 32.9265 17.2957C32.4496 17.023 31.9931 16.6835 31.4587 16.6651V16.6651Z" fill="white"/>
<path opacity="0.5" fill-rule="evenodd" clip-rule="evenodd" d="M37.6494 14.5131C37.4536 14.5058 37.2717 14.5076 37.1021 14.5555C37.0091 14.5537 36.9151 14.5578 36.8188 14.574C36.5894 14.6131 36.2964 14.6491 36.208 14.902C35.9873 15.5299 36.9911 15.6428 37.3772 15.6027C37.7729 15.5612 38.5759 15.4004 38.3045 14.8062C38.1866 14.5472 37.9005 14.5228 37.6494 14.5131V14.5131Z" fill="white"/>
<path opacity="0.5" fill-rule="evenodd" clip-rule="evenodd" d="M41.605 14.4611C41.5755 14.5449 41.6114 14.6725 41.6782 14.7186C41.7676 14.7799 41.9579 14.7868 42.0302 14.7089C42.1026 14.6311 42.3246 14.4408 41.9178 14.2833C41.7828 14.2307 41.6534 14.3229 41.605 14.4611V14.4611Z" fill="white"/>
<path fill-rule="evenodd" clip-rule="evenodd" d="M7.83954 16.9124C7.16876 18.0384 7.34569 18.8496 7.34569 18.8496C7.34569 18.8496 9.38701 18.3558 9.6344 17.3049C9.88223 16.2541 9.76109 15.4124 9.76109 15.4124C9.76109 15.4124 8.50984 15.7865 7.83954 16.9124V16.9124Z" fill="#71AA21"/>
<path fill-rule="evenodd" clip-rule="evenodd" d="M6.5911 15.4285C8.19109 15.0231 9.41699 14.7274 9.41699 14.7274C9.41699 14.7274 8.26388 14.1377 7.10294 14.1418C5.94198 14.1464 4.72485 14.2142 4.72485 14.2142C4.72485 14.2142 4.99159 15.8335 6.5911 15.4285V15.4285Z" fill="#71AA21"/>
<path fill-rule="evenodd" clip-rule="evenodd" d="M28.9641 15.7602C29.8108 16.0694 31.907 15.0734 31.907 15.0734C31.907 15.0734 30.8326 14.287 29.4289 14.2552C28.0251 14.2238 26.9748 14.6726 26.9748 14.6726C26.9748 14.6726 28.1173 15.4507 28.9641 15.7602V15.7602Z" fill="#71AA21"/>
<path fill-rule="evenodd" clip-rule="evenodd" d="M25.0882 14.1727C25.9488 14.1004 27.1591 13.9622 27.1591 13.9622C27.1591 13.9622 27.2263 15.2033 25.7549 15.3383C24.283 15.4732 23.3151 15.3438 23.3151 15.3438C23.3151 15.3438 24.2277 14.2446 25.0882 14.1727V14.1727Z" fill="#71AA21"/>
<path fill-rule="evenodd" clip-rule="evenodd" d="M30.5544 22.4352C31.9272 22.8484 32.9357 22.338 32.9357 22.338C32.9357 22.338 32.8251 21.4387 31.7346 21.1015C30.6437 20.7643 29.3879 20.6629 29.3879 20.6629C29.3879 20.6629 29.1815 22.022 30.5544 22.4352V22.4352Z" fill="#71AA21"/>
<path fill-rule="evenodd" clip-rule="evenodd" d="M23.2386 2.64207C22.3472 3.35107 21.8787 4.73545 21.8787 4.73545C21.8787 4.73545 24.6631 4.65206 25.0883 3.2898C25.5135 1.92753 24.9515 1.35167 24.9515 1.35167C24.9515 1.35167 24.1301 1.9326 23.2386 2.64207V2.64207Z" fill="#71AA21"/>
<path fill-rule="evenodd" clip-rule="evenodd" d="M15.3512 4.02783C16.5969 3.6883 18.1429 3.36535 18.1429 3.36535C18.1429 3.36535 17.4058 2.49465 16.1781 2.75079C14.9499 3.00694 13.5342 3.52153 13.5342 3.52153C13.5342 3.52153 14.1054 4.36736 15.3512 4.02783V4.02783Z" fill="#71AA21"/>
<path fill-rule="evenodd" clip-rule="evenodd" d="M11.0861 6.13686C11.6242 7.30932 12.3212 7.38073 12.3212 7.38073C12.3212 7.38073 13.2145 6.14147 12.6907 5.42602C12.1669 4.71056 11.0861 4.41388 11.0861 4.41388C11.0861 4.41388 10.548 4.96441 11.0861 6.13686V6.13686Z" fill="#71AA21"/>
<path fill-rule="evenodd" clip-rule="evenodd" d="M36.4231 5.56054C36.0532 6.28659 35.5861 7.2416 35.5861 7.2416C35.5861 7.2416 37.5141 6.61276 37.9876 5.94614C38.4608 5.27952 38.7501 4.07758 38.7501 4.07758C38.5764 4.14253 36.7926 4.83495 36.4231 5.56054V5.56054Z" fill="#71AA21"/>
<path fill-rule="evenodd" clip-rule="evenodd" d="M33.9114 5.50388C34.2035 6.51925 34.5504 7.20982 34.5504 7.20982C34.5504 7.20982 35.434 5.62504 35.434 5.12796C35.434 4.63088 34.5159 3.69475 34.5159 3.69475C34.5159 3.69475 33.6198 4.48806 33.9114 5.50388V5.50388Z" fill="#71AA21"/>
<path fill-rule="evenodd" clip-rule="evenodd" d="M42.4532 18.7884C43.1147 19.5738 44.1227 20.005 44.1227 20.005C44.1227 20.005 44.693 18.7884 43.785 17.6021C42.877 16.4153 41.9561 16.4153 41.9561 16.4153C41.9561 16.4153 41.7911 18.0033 42.4532 18.7884V18.7884Z" fill="#71AA21"/>
<path fill-rule="evenodd" clip-rule="evenodd" d="M39.6922 14.017C40.5039 14.2109 41.8068 13.5485 41.8068 13.5485C41.8068 13.5485 40.9338 13.1325 40.1239 12.9823C39.3145 12.8321 37.6854 12.4387 37.6854 12.4387C37.6854 12.4387 38.88 13.823 39.6922 14.017V14.017Z" fill="#71AA21"/>
<path fill-rule="evenodd" clip-rule="evenodd" d="M25.4173 10.484C24.775 11.1851 24.0352 11.6103 24.0352 11.6103C24.0352 11.6103 25.9779 12.1636 26.4851 11.0718C26.9928 9.97996 26.4851 8.99684 26.4851 8.99684C26.4851 8.99684 26.0594 9.78324 25.4173 10.484V10.484Z" fill="#71AA21"/>
<path fill-rule="evenodd" clip-rule="evenodd" d="M11.6863 14.105C11.5232 14.1796 11.0861 15.1051 12.019 15.0549C12.2944 15.0402 12.4497 14.6762 12.3705 14.3777C12.2852 14.0548 11.9577 13.9815 11.6863 14.105V14.105Z" fill="#FFE3A6"/>
<path fill-rule="evenodd" clip-rule="evenodd" d="M18.077 4.24067C18.0452 4.31622 18.0356 4.395 18.0448 4.46963C17.9688 4.61705 17.9591 4.78475 18.0816 4.93862C18.2738 5.17956 18.634 5.07406 18.8234 4.88057C19.0275 4.67233 19.0537 4.32405 18.8501 4.1043C18.6262 3.8629 18.206 3.93799 18.077 4.24067V4.24067Z" fill="#FFE3A6"/>
<path fill-rule="evenodd" clip-rule="evenodd" d="M35.2268 7.39778C34.9881 7.33881 34.8241 7.47334 34.767 7.64655C34.6896 7.71151 34.6476 7.81378 34.6684 7.94232C34.7264 8.29567 35.1516 8.42789 35.4529 8.34404C35.7137 8.27171 35.7943 7.99392 35.6874 7.76772C35.5981 7.57929 35.4276 7.44754 35.2268 7.39778V7.39778Z" fill="#FFE3A6"/>
<path fill-rule="evenodd" clip-rule="evenodd" d="M27.4148 4.33511C27.1761 4.27614 27.0125 4.41067 26.955 4.58389C26.8776 4.64884 26.8357 4.75112 26.8568 4.87965C26.9145 5.233 27.3401 5.36522 27.641 5.28137C27.9017 5.20904 27.9823 4.93125 27.8755 4.70505C27.7865 4.51663 27.6161 4.38487 27.4148 4.33511V4.33511Z" fill="#FFE3A6"/>
<path fill-rule="evenodd" clip-rule="evenodd" d="M33.4328 8.89226C33.2531 8.99085 33.1085 9.09174 32.9859 9.28155C32.8652 9.46721 33.0237 9.71368 33.2342 9.71413C33.5042 9.71413 33.7562 9.60081 33.9188 9.38198C34.0893 9.15348 34.0271 8.86002 33.7331 8.78262C33.5968 8.74715 33.4917 8.80335 33.4328 8.89226V8.89226Z" fill="#FFE3A6"/>
<path fill-rule="evenodd" clip-rule="evenodd" d="M23.7362 21.77C23.5565 21.8685 23.4123 21.9694 23.2893 22.1592C23.1691 22.3449 23.3275 22.5914 23.5376 22.5918C23.8076 22.5923 24.0596 22.4785 24.2226 22.2597C24.3926 22.0312 24.3309 21.7377 24.0365 21.6603C23.9002 21.6248 23.7951 21.681 23.7362 21.77V21.77Z" fill="#FFE3A6"/>
<path fill-rule="evenodd" clip-rule="evenodd" d="M27.2383 16.2302C27.3167 15.9597 27.2687 15.6566 26.9748 15.5313C26.7928 15.4534 26.5943 15.4502 26.4446 15.5999C26.4072 15.6368 26.3796 15.6801 26.3589 15.7266C26.1253 15.6437 25.8176 15.7727 25.6844 15.9653C25.4457 16.3108 25.5983 16.7798 25.9935 16.9235C26.2953 17.0331 26.5943 16.9346 26.8412 16.7558C26.9232 16.8447 27.0393 16.9078 27.1554 16.9433C27.347 17.0018 27.5511 16.806 27.4875 16.6116C27.441 16.4702 27.353 16.3315 27.2383 16.2302V16.2302Z" fill="#FFE3A6"/>
<path fill-rule="evenodd" clip-rule="evenodd" d="M25.4799 22.5315C25.4315 22.6213 25.4085 22.7254 25.3983 22.8323C25.3804 23.0207 25.5692 23.1672 25.7388 23.1732C26.1576 23.1889 26.3838 22.801 26.4556 22.4375C26.498 22.2228 26.3607 21.9989 26.1235 22.0017C25.7932 22.0054 25.4864 22.2007 25.4799 22.5315V22.5315Z" fill="#FFE3A6"/>
<path fill-rule="evenodd" clip-rule="evenodd" d="M46.4593 12.9155C46.3266 12.9892 46.2731 13.1251 46.2745 13.2656C46.2372 13.2923 46.1994 13.3181 46.164 13.3504C45.9815 13.5139 46.1211 13.8608 46.369 13.8452C46.7039 13.8244 47.0015 13.6881 47.2184 13.4278C47.4189 13.1864 47.2926 12.8164 46.9601 12.8044C46.7772 12.798 46.62 12.8252 46.4593 12.9155V12.9155Z" fill="#FFE3A6"/>
<path fill-rule="evenodd" clip-rule="evenodd" d="M43.4851 8.80289C43.4984 9.27556 44.2614 9.85004 44.535 9.25989C44.757 8.7817 44.1411 8.15377 43.6666 8.30257C43.4386 8.37444 43.3764 8.63335 43.4851 8.80289V8.80289Z" fill="#FFE3A6"/>
<path fill-rule="evenodd" clip-rule="evenodd" d="M35.3741 12.8754C35.159 12.9855 35.0194 13.2039 35.1401 13.4808C35.2626 13.7618 35.5768 13.8392 35.8569 13.7936C36.1361 13.7475 36.3443 13.5895 36.5042 13.3619C36.6387 13.1707 36.5318 12.9012 36.3535 12.7869C36.061 12.5994 35.5897 12.5893 35.3741 12.8754V12.8754Z" fill="#FFE3A6"/>
<path fill-rule="evenodd" clip-rule="evenodd" d="M27.969 21.019C27.7534 21.1296 27.6138 21.348 27.7345 21.6244C27.857 21.9058 28.1712 21.9832 28.4518 21.9372C28.731 21.8916 28.9388 21.7336 29.0991 21.5055C29.2331 21.3148 29.1263 21.0453 28.9479 20.931C28.6554 20.7431 28.1841 20.7329 27.969 21.019V21.019Z" fill="#FFE3A6"/>
</svg>
