<svg width="48" height="34" viewBox="0 0 48 34" fill="none" xmlns="http://www.w3.org/2000/svg">
<path fill-rule="evenodd" clip-rule="evenodd" d="M23.7988 8.04938C36.9369 8.04938 47.5876 13.7147 47.5876 20.7033C47.5876 27.6918 36.9369 33.3572 23.7988 33.3572C10.6606 33.3572 0.00994873 27.6918 0.00994873 20.7033C0.00994873 13.7147 10.6606 8.04938 23.7988 8.04938V8.04938Z" fill="#A34843"/>
<path fill-rule="evenodd" clip-rule="evenodd" d="M47.5777 18.4576V20.9546H0.0198669V18.4576H47.5777V18.4576Z" fill="#A34843"/>
<path fill-rule="evenodd" clip-rule="evenodd" d="M23.7888 5.8037C36.927 5.8037 47.5776 11.4691 47.5776 18.4576C47.5776 25.4462 36.927 31.1115 23.7888 31.1115C10.6506 31.1115 0 25.4462 0 18.4576C0 11.4691 10.6506 5.8037 23.7888 5.8037V5.8037Z" fill="#C15F5F"/>
<path fill-rule="evenodd" clip-rule="evenodd" d="M23.7664 7.1214C35.7609 7.1214 45.5189 12.0575 45.5189 18.1252C45.5189 24.1929 35.7609 29.1295 23.7664 29.1295C11.7718 29.1295 2.01382 24.1929 2.01382 18.1252C2.01382 12.0575 11.7718 7.1214 23.7664 7.1214V7.1214ZM23.7664 28.598C35.4671 28.598 44.9868 23.9001 44.9868 18.1252C44.9868 12.3513 35.4671 7.65344 23.7664 7.65344C12.0656 7.65344 2.54587 12.3513 2.54587 18.1252C2.54587 23.9001 12.0656 28.598 23.7664 28.598V28.598Z" fill="#A34843"/>
<path fill-rule="evenodd" clip-rule="evenodd" d="M24.7021 14.6004C24.7021 14.6004 24.189 16.4081 20.7369 18.0267C16.6267 19.9549 11.2277 20.8199 6.57966 18.8274C2.9009 17.2507 2.30392 16.3002 2.30392 16.3002L2.74275 15.3838L24.7021 12.723V14.6004V14.6004Z" fill="#FFE3A6"/>
<path fill-rule="evenodd" clip-rule="evenodd" d="M2.50449 15.8028C2.50449 15.8028 5.56165 9.98168 12.7511 4.84402C18.6905 0.599131 20.1164 1.35689 20.1164 1.35689L20.9836 2.08062L2.9009 16.3149L2.50449 15.8028V15.8028Z" fill="#FFE3A6"/>
<path fill-rule="evenodd" clip-rule="evenodd" d="M19.0047 7.21617C19.0047 7.21617 29.8576 12.2276 21.6785 16.915C11.7105 22.6282 2.90091 16.3148 2.90091 16.3148L19.0047 7.21617V7.21617Z" fill="#FFC648"/>
<path fill-rule="evenodd" clip-rule="evenodd" d="M25.5093 14.5745V15.245H13.0872V14.5745H25.5093V14.5745Z" fill="#ED2B2B"/>
<path fill-rule="evenodd" clip-rule="evenodd" d="M19.2983 11.8238C22.7285 11.8238 25.5093 13.3029 25.5093 15.1276C25.5093 16.9522 22.7285 18.4314 19.2983 18.4314C15.868 18.4314 13.0872 16.9522 13.0872 15.1276C13.0872 13.3029 15.868 11.8238 19.2983 11.8238V11.8238Z" fill="#ED2B2B"/>
<path fill-rule="evenodd" clip-rule="evenodd" d="M19.2984 17.9115C15.8679 17.9115 13.0872 16.4322 13.0872 14.6077C13.0872 12.7827 15.8679 11.3039 19.2984 11.3039C22.7285 11.3039 25.5091 12.7827 25.5091 14.6077C25.5091 16.4322 22.7285 17.9115 19.2984 17.9115V17.9115Z" fill="#FF6969"/>
<path fill-rule="evenodd" clip-rule="evenodd" d="M19.2984 17.3915C16.2256 17.3915 13.735 16.1452 13.735 14.6077C13.735 13.0702 16.2256 11.8239 19.2984 11.8239C22.3708 11.8239 24.8619 13.0702 24.8619 14.6077C24.8619 16.1452 22.3708 17.3915 19.2984 17.3915V17.3915Z" fill="#FF4343"/>
<path fill-rule="evenodd" clip-rule="evenodd" d="M15.5469 13.0022C17.5934 11.7742 20.3489 12.1769 20.9161 12.3115C21.7136 12.501 20.8715 13.2404 19.9279 13.3101C19.498 13.3415 18.4826 13.4672 17.8793 13.7311C17.1577 14.0469 16.8791 14.5234 16.9027 14.7669C16.9456 15.2141 16.0502 16.0085 15.5977 16.0227C15.0667 16.0394 13.501 14.2302 15.5469 13.0022V13.0022Z" fill="#ED2B2B"/>
<path fill-rule="evenodd" clip-rule="evenodd" d="M17.0006 16.6767C19.0853 17.2863 21.2009 16.9386 22.7127 16.2248C24.224 15.511 24.5833 14.3349 23.7019 13.508C23.0615 12.9079 22.4263 12.856 22.0676 13.0891C21.2344 13.63 21.9665 14.5905 20.3463 14.9099C19.3932 15.0979 18.1233 14.9533 17.4724 15.2963C16.8995 15.5985 16.0187 16.3898 17.0006 16.6767V16.6767Z" fill="#ED2B2B"/>
<path fill-rule="evenodd" clip-rule="evenodd" d="M19.709 12.4507C19.365 12.4591 19.7986 13.0021 19.7986 13.0021C19.7986 13.0021 20.2311 12.4382 19.709 12.4507V12.4507Z" fill="#FF6969"/>
<path fill-rule="evenodd" clip-rule="evenodd" d="M18.6528 12.4455C18.2857 12.5031 19.2121 13.0739 19.2121 13.0739C19.2121 13.0739 19.2121 12.3581 18.6528 12.4455V12.4455Z" fill="#FF6969"/>
<path fill-rule="evenodd" clip-rule="evenodd" d="M17.6196 12.6204C17.2153 12.7492 18.3862 13.1425 18.3862 13.1425C18.3862 13.1425 18.0239 12.4916 17.6196 12.6204V12.6204Z" fill="#FF6969"/>
<path fill-rule="evenodd" clip-rule="evenodd" d="M16.5592 12.9158C16.002 13.1472 17.5447 13.4594 17.5447 13.4594C17.5447 13.4594 17.1158 12.6848 16.5592 12.9158V12.9158Z" fill="#FF6969"/>
<path fill-rule="evenodd" clip-rule="evenodd" d="M15.5893 13.508C15.174 13.7751 16.8922 13.917 16.8922 13.917C16.8922 13.917 16.2125 13.1079 15.5893 13.508V13.508Z" fill="#FF6969"/>
<path fill-rule="evenodd" clip-rule="evenodd" d="M15.1793 14.2851C14.8426 14.5244 15.8035 14.8601 16.5136 14.3888C16.5136 14.3888 15.5165 14.0453 15.1793 14.2851V14.2851Z" fill="#FF6969"/>
<path fill-rule="evenodd" clip-rule="evenodd" d="M15.4066 15.1634C15.2426 15.2754 15.4066 15.5472 15.7359 15.4833C16.3062 15.3733 16.4377 14.9099 16.4377 14.9099C16.4377 14.9099 15.7359 14.9387 15.4066 15.1634V15.1634Z" fill="#FF6969"/>
<path fill-rule="evenodd" clip-rule="evenodd" d="M22.7499 13.397C23.1542 13.4196 23.348 13.6808 22.8678 13.7144C22.3876 13.7479 22.0341 13.6567 22.0341 13.6567C22.0341 13.6567 22.3457 13.3745 22.7499 13.397V13.397Z" fill="#FF6969"/>
<path fill-rule="evenodd" clip-rule="evenodd" d="M17.2488 15.9719C17.1143 16.1996 17.6363 16.4358 17.7966 16.0226C17.9568 15.61 17.8793 15.4498 17.8793 15.4498C17.8469 15.4665 17.3839 15.7446 17.2488 15.9719V15.9719Z" fill="#FF6969"/>
<path fill-rule="evenodd" clip-rule="evenodd" d="M18.4454 16.0226C18.4622 16.3766 18.9204 16.4609 18.8895 16.0226C18.8581 15.5844 18.6208 15.4498 18.6208 15.4498C18.6208 15.4498 18.4281 15.6692 18.4454 16.0226V16.0226Z" fill="#FF6969"/>
<path fill-rule="evenodd" clip-rule="evenodd" d="M19.5153 16.0226C19.6079 16.3091 20.2735 16.4604 20.0038 15.9551C19.7341 15.4498 19.4142 15.3586 19.4142 15.3586C19.4142 15.3586 19.4226 15.7362 19.5153 16.0226V16.0226Z" fill="#FF6969"/>
<path fill-rule="evenodd" clip-rule="evenodd" d="M20.9051 16.0227C21.259 16.3343 21.6298 16.0986 21.3009 15.7446C20.9726 15.3906 20.3672 15.2896 20.3672 15.2896C20.3672 15.2896 20.5511 15.7111 20.9051 16.0227V16.0227Z" fill="#FF6969"/>
<path fill-rule="evenodd" clip-rule="evenodd" d="M21.9749 15.6436C22.3959 15.8797 22.8175 15.6519 22.3121 15.3571C21.8063 15.0623 21.1999 14.9753 21.1999 14.9753C21.1999 14.9753 21.5539 15.4079 21.9749 15.6436V15.6436Z" fill="#FF6969"/>
<path fill-rule="evenodd" clip-rule="evenodd" d="M22.9772 15.0539C23.4239 15.1241 23.7103 14.6496 23.205 14.5653C22.6997 14.481 21.8147 14.4993 21.8147 14.4993C21.8147 14.4993 22.531 14.9837 22.9772 15.0539V15.0539Z" fill="#FF6969"/>
<path fill-rule="evenodd" clip-rule="evenodd" d="M23.0615 13.9673C23.4239 14.0091 23.7355 14.2537 23.3479 14.2704C22.9604 14.2872 22.0964 14.117 22.0964 14.117C22.0964 14.117 22.6996 13.9248 23.0615 13.9673V13.9673Z" fill="#FF6969"/>
<path fill-rule="evenodd" clip-rule="evenodd" d="M21.789 12.9252C21.789 12.9252 20.1751 14.8486 19.3388 15.6948C18.502 16.5411 12.9647 16.8752 12.9647 16.8752C12.9647 16.8752 17.7547 17.4528 18.9607 17.0224C20.1667 16.5919 22.3828 13.0017 22.3828 13.0017L21.789 12.9252V12.9252Z" fill="white"/>
<path fill-rule="evenodd" clip-rule="evenodd" d="M19.6404 16.9281C22.331 15.3257 22.9154 13.3048 22.9154 13.3048L22.3828 13.0016C22.3828 13.0016 21.1166 14.8889 19.6404 16.0127C17.9401 17.3077 12.9647 16.8752 12.9647 16.8752C12.9647 16.8752 16.9503 18.531 19.6404 16.9281V16.9281Z" fill="#FFEECC"/>
<path fill-rule="evenodd" clip-rule="evenodd" d="M19.0047 7.21618C19.0047 7.21618 24.965 -1.56258 16.7864 3.12529C6.81792 8.83794 2.90091 16.3148 2.90091 16.3148L19.0047 7.21618V7.21618Z" fill="#F4B12C"/>
<path opacity="0.5" fill-rule="evenodd" clip-rule="evenodd" d="M15.9753 5.04451C19.5985 3.02895 18.6748 4.35799 17.8018 7.94929C14.1482 10.2979 4.71802 15.2879 4.71802 15.2879C4.71802 15.2879 12.352 7.06014 15.9753 5.04451V5.04451Z" fill="#D3880F"/>
<path fill-rule="evenodd" clip-rule="evenodd" d="M11.4534 13.4719C15.6972 11.572 25.0012 10.1828 25.4185 10.3126C26.3245 10.5943 26.2438 10.9923 26.2559 11.5417C26.2674 12.091 24.0989 11.9574 24.0989 11.9574C24.0989 11.9574 19.4178 12.4424 15.6935 13.3535C11.9692 14.2647 5.99106 17.2507 5.99106 17.2507C5.99106 17.2507 7.2091 15.3717 11.4534 13.4719V13.4719Z" fill="#FF871A"/>
<path fill-rule="evenodd" clip-rule="evenodd" d="M14.3603 13.2954C18.7554 12.1308 26.2773 11.2536 26.2773 11.2536L26.2161 12.1093C26.2161 12.1093 21.0993 12.5963 18.1511 13.1006C15.2023 13.6054 11.7681 14.7596 10.1437 15.3414C8.51932 15.9231 5.99106 17.2507 5.99106 17.2507C5.99106 17.2507 10.3082 14.3689 14.3603 13.2954V13.2954Z" fill="#E2660A"/>
<path fill-rule="evenodd" clip-rule="evenodd" d="M14.2095 14.2721C18.0223 12.3518 21.1768 14.0464 21.1768 14.0464L22.3828 13.396C22.3828 13.396 18.2626 11.1829 13.2836 13.6903C8.30512 16.1981 10.626 20.1832 10.626 20.1832L12.1745 19.2437C12.1745 19.2437 10.3972 16.1918 14.2095 14.2721V14.2721Z" fill="#71AA21"/>
<path fill-rule="evenodd" clip-rule="evenodd" d="M12.1745 19.2437L13.9576 18.2142C13.9853 17.5031 14.3503 16.6265 15.6977 15.9478C16.9404 15.3225 18.0809 15.2382 18.9565 15.3283L21.1768 14.0464C21.1768 14.0464 18.0223 12.3518 14.2095 14.272C10.3972 16.1918 12.1745 19.2437 12.1745 19.2437V19.2437Z" fill="#BED134"/>
<path fill-rule="evenodd" clip-rule="evenodd" d="M15.5611 15.8252C13.4999 16.8836 13.9576 18.2142 13.9576 18.2142C13.9576 18.2142 14.8033 16.8181 16.2345 16.1588C17.0404 15.7876 18.9565 15.3283 18.9565 15.3283C18.9565 15.3283 17.4944 14.8324 15.5611 15.8252V15.8252Z" fill="#DCE842"/>
<path fill-rule="evenodd" clip-rule="evenodd" d="M10.1134 11.9067C14.2105 9.7083 23.3909 7.65657 23.8167 7.75658C24.7409 7.97234 24.6885 8.37505 24.7399 8.92229C24.7907 9.46953 22.6185 9.49095 22.6185 9.49095C22.6185 9.49095 17.9841 10.31 14.3346 11.4856C10.6852 12.6607 4.93588 16.0666 4.93588 16.0666C4.93588 16.0666 6.0162 14.1055 10.1134 11.9067V11.9067Z" fill="#FF871A"/>
<path fill-rule="evenodd" clip-rule="evenodd" d="M13.0008 11.5228C17.3012 10.0466 24.7409 8.63374 24.7409 8.63374V9.49098C24.7409 9.49098 19.6723 10.343 16.7676 11.0573C13.8628 11.7716 10.5197 13.1687 8.94139 13.8657C7.36255 14.5621 4.93588 16.0667 4.93588 16.0667C4.93588 16.0667 9.03566 12.8838 13.0008 11.5228V11.5228Z" fill="#E2660A"/>
<path fill-rule="evenodd" clip-rule="evenodd" d="M7.95114 18.276C7.95114 18.276 8.73612 14.6632 11.2623 13.7908C13.7879 12.9183 18.1469 13.3917 18.1469 13.3917L18.2396 12.7989C18.2396 12.7989 17.1436 12.0894 14.1168 12.4402C11.09 12.7916 8.7712 14.2495 8.43396 15.2282C8.09672 16.207 7.95114 17.6832 7.95114 17.6832V18.276V18.276Z" fill="#F7D48D"/>
<path fill-rule="evenodd" clip-rule="evenodd" d="M10.4197 12.799C14.0409 11.3584 18.1642 12.2428 18.1642 12.2428L18.2396 12.799C18.2396 12.799 14.089 12.1874 11.6828 13.2206C7.84537 14.8675 7.95115 17.6832 7.95115 17.6832L7.284 17.7607C7.284 17.7607 6.79856 14.2396 10.4197 12.799V12.799Z" fill="#FFEECC"/>
<path fill-rule="evenodd" clip-rule="evenodd" d="M7.28403 18.4915L7.95102 18.2763V17.6832L7.28403 17.761V18.4915V18.4915Z" fill="white"/>
<path fill-rule="evenodd" clip-rule="evenodd" d="M16.3884 8.1902C20.2012 6.27043 23.3563 7.96501 23.3563 7.96501L24.5618 7.3141C24.5618 7.3141 20.4416 5.10161 15.4631 7.60893C10.4841 10.1163 12.8055 14.1019 12.8055 14.1019L14.354 13.1624C14.354 13.1624 12.5761 10.1105 16.3884 8.1902V8.1902Z" fill="#71AA21"/>
<path fill-rule="evenodd" clip-rule="evenodd" d="M14.354 13.1624L16.1371 12.1329C16.1643 11.4217 16.5298 10.5451 17.8772 9.86644C19.1193 9.24068 20.2604 9.15636 21.136 9.24693L23.3563 7.96501C23.3563 7.96501 20.2012 6.27043 16.3884 8.1902C12.5761 10.1105 14.354 13.1624 14.354 13.1624V13.1624Z" fill="#BED134"/>
<path fill-rule="evenodd" clip-rule="evenodd" d="M17.7405 9.74336C15.6794 10.8022 16.1371 12.1329 16.1371 12.1329C16.1371 12.1329 16.9828 10.7362 18.4134 10.0775C19.2194 9.70619 21.136 9.24693 21.136 9.24693C21.136 9.24693 19.6734 8.75105 17.7405 9.74336V9.74336Z" fill="#DCE842"/>
<path fill-rule="evenodd" clip-rule="evenodd" d="M19.8153 8.15248C18.8648 7.83827 17.8626 8.58818 17.4939 9.50252C17.3001 9.98268 17.1477 10.4053 17.5976 10.7656C17.8332 10.9536 18.0982 10.9552 18.3852 10.9651C18.8617 10.9819 19.2209 11.1217 19.6702 11.2562C20.1599 11.4034 20.8061 11.4312 21.1438 10.9661C21.4612 10.5299 21.2004 9.79732 21.0103 9.36061C20.7778 8.82539 20.385 8.34102 19.8153 8.15248V8.15248Z" fill="#FFE3A6"/>
<path opacity="0.5" fill-rule="evenodd" clip-rule="evenodd" d="M18.1212 9.49303C18.1228 9.84495 18.3831 9.97588 18.691 10.0319C19.0817 10.1037 19.477 10.199 19.7619 9.84547C20.0159 9.53023 19.6294 9.09142 19.4158 8.78871C19.1063 8.34935 18.1192 9.05528 18.1212 9.49303V9.49303Z" fill="white"/>
<path fill-rule="evenodd" clip-rule="evenodd" d="M12.34 14.9214C12.1902 15.0523 11.6419 15.7079 11.6158 16.0629C11.6069 16.1876 11.6954 16.3557 11.8132 16.407C12.4919 16.7029 13.9005 16.6028 14.1236 15.7252C14.2278 15.3146 13.9869 14.8879 13.634 14.6826C13.1836 14.4212 12.7029 14.6051 12.34 14.9214V14.9214Z" fill="#FFE3A6"/>
<path fill-rule="evenodd" clip-rule="evenodd" d="M16.3314 15.8158C17.1703 15.9567 18.5135 15.521 18.5098 14.4622C18.5056 13.4462 15.515 13.3787 15.1065 13.8275C14.3084 14.7025 15.5176 15.6797 16.3314 15.8158V15.8158Z" fill="#FFE3A6"/>
<path opacity="0.5" fill-rule="evenodd" clip-rule="evenodd" d="M15.7244 14.1306C15.3909 14.6417 16.1837 15.0141 16.5565 15.1366C17.0399 15.2958 17.6547 15.0161 17.606 14.4417C17.5541 13.829 16.8514 13.8054 16.3916 13.9185C16.1533 13.8405 15.8815 13.8892 15.7244 14.1306V14.1306Z" fill="white"/>
<path fill-rule="evenodd" clip-rule="evenodd" d="M5.21289 15.3141C5.21289 15.3141 7.96475 16.3824 10.1437 15.3414C12.3227 14.3003 13.4072 12.8587 14.1482 11.1039C14.8887 9.34904 14.1482 7.11562 14.1482 7.11562L5.49986 14.9507L5.21289 15.3141V15.3141Z" fill="#ED2B2B"/>
<path fill-rule="evenodd" clip-rule="evenodd" d="M13.7884 7.41411C13.7884 7.41411 14.4702 9.89994 13.0951 11.9637C11.7199 14.0275 9.7342 15.0193 8.43394 15.2282C7.27822 15.4136 5.49985 14.9507 5.49985 14.9507L13.7884 7.41411V7.41411Z" fill="#FF4343"/>
<path fill-rule="evenodd" clip-rule="evenodd" d="M7.13527 14.5637C7.05515 15.056 9.47553 14.9235 10.9387 13.7091C12.4018 12.4952 12.8438 11.538 13.2574 10.6305C13.6706 9.72295 13.6596 8.31376 12.761 8.9008C12.1326 9.31136 11.301 11.4133 10.515 12.0381C9.72898 12.6628 9.57712 12.2533 8.65285 12.756C8.14857 13.0304 7.21539 14.071 7.13527 14.5637V14.5637Z" fill="#FF6969"/>
<path fill-rule="evenodd" clip-rule="evenodd" d="M8.47847 14.0814C8.35803 14.427 9.09744 14.2652 9.17704 13.762C9.25664 13.2587 9.00109 13.0739 9.00109 13.0739C9.00109 13.0739 8.59892 13.7358 8.47847 14.0814V14.0814Z" fill="#ED2B2B"/>
<path fill-rule="evenodd" clip-rule="evenodd" d="M9.90284 13.8044C10.0432 13.9552 10.4307 13.7374 10.3265 13.397C10.2228 13.0566 9.84524 12.8728 9.84524 12.8728C9.84524 12.8728 9.76197 13.6541 9.90284 13.8044V13.8044Z" fill="#ED2B2B"/>
<path fill-rule="evenodd" clip-rule="evenodd" d="M11.091 12.9602C11.2921 13.0938 11.4424 12.6057 11.3042 12.4942C11.1659 12.3826 10.7339 12.3428 10.7339 12.3428C10.7339 12.3428 10.7339 12.723 11.091 12.9602V12.9602Z" fill="#ED2B2B"/>
<path fill-rule="evenodd" clip-rule="evenodd" d="M12.0012 12.1329C12.1515 12.1156 12.3704 11.5877 12.0939 11.5359C11.8179 11.484 11.3592 11.5359 11.3592 11.5359C11.3592 11.5359 11.7833 12.1575 12.0012 12.1329V12.1329Z" fill="#ED2B2B"/>
<path fill-rule="evenodd" clip-rule="evenodd" d="M12.6264 10.6278C12.8736 10.653 13.0757 11.0122 12.5814 11.0122C12.087 11.0122 11.744 10.9001 11.744 10.9001C11.744 10.9001 12.3793 10.6027 12.6264 10.6278V10.6278Z" fill="#ED2B2B"/>
<path fill-rule="evenodd" clip-rule="evenodd" d="M12.751 9.71562C13.0757 9.75435 13.3166 9.99629 12.8814 10.1C12.4468 10.2037 12.0012 10.2183 12.0012 10.2183C12.0012 10.2183 12.4259 9.67738 12.751 9.71562V9.71562Z" fill="#ED2B2B"/>
<path fill-rule="evenodd" clip-rule="evenodd" d="M19.5687 10.7604C18.8643 12.1884 19.4205 13.3321 19.4205 13.3321C19.4205 13.3321 20.771 12.3136 21.1815 11.173C21.5926 10.0319 21.932 9.35433 21.932 9.35433C21.932 9.35433 20.273 9.33183 19.5687 10.7604V10.7604Z" fill="#5E8E11"/>
<path fill-rule="evenodd" clip-rule="evenodd" d="M15.2474 8.77406C14.8373 9.55116 15.2704 10.0696 15.2704 10.0696C15.2704 10.0696 16.843 9.79732 17.0535 8.98091C17.2645 8.16454 17.1383 7.22978 17.1383 7.22978C17.1383 7.22978 15.6574 7.99748 15.2474 8.77406V8.77406Z" fill="#5E8E11"/>
<path fill-rule="evenodd" clip-rule="evenodd" d="M9.56195 15.6828C10.1437 16.484 10.8674 17.6434 10.8674 17.6434C10.8674 17.6434 9.22995 17.9246 8.47272 17.1569C7.71551 16.3892 7.13528 14.9486 7.13528 14.9486C7.13528 14.9486 8.98016 14.8816 9.56195 15.6828V15.6828Z" fill="#5E8E11"/>
<path fill-rule="evenodd" clip-rule="evenodd" d="M21.9676 11.6443C21.9477 12.5712 22.0566 13.3237 22.0566 13.3237C22.0566 13.3237 23.1631 12.3214 23.3647 11.6443C23.5669 10.9672 22.6944 10.0183 22.6944 10.0183C22.6944 10.0183 21.987 10.7174 21.9676 11.6443V11.6443Z" fill="#BED134"/>
<path fill-rule="evenodd" clip-rule="evenodd" d="M46.4248 13.2959C46.4248 13.2959 45.9111 15.1036 42.4596 16.7223C38.3494 18.6504 32.9504 19.515 28.3023 17.5224C24.6236 15.9462 24.0266 14.9953 24.0266 14.9953L24.4654 14.0788L46.4248 11.4186V13.2959V13.2959Z" fill="#FFE3A6"/>
<path fill-rule="evenodd" clip-rule="evenodd" d="M24.2272 14.4983C24.2272 14.4983 27.2843 8.6772 34.4737 3.53954C40.4132 -0.705311 41.8391 0.0524462 41.8391 0.0524462L42.7063 0.776144L24.6236 15.0104L24.2272 14.4983V14.4983Z" fill="#FFE3A6"/>
<path fill-rule="evenodd" clip-rule="evenodd" d="M40.7274 5.91173C40.7274 5.91173 51.5803 10.9232 43.4012 15.6105C33.4332 21.3237 24.6236 15.0104 24.6236 15.0104L40.7274 5.91173V5.91173Z" fill="#FFC648"/>
<path fill-rule="evenodd" clip-rule="evenodd" d="M47.232 13.27V13.9405H34.8099V13.27H47.232V13.27Z" fill="#ED2B2B"/>
<path fill-rule="evenodd" clip-rule="evenodd" d="M41.0211 17.1271C37.5906 17.1271 34.8099 15.6477 34.8099 13.8233C34.8099 11.9983 37.5906 10.5195 41.0211 10.5195C44.4511 10.5195 47.2318 11.9983 47.2318 13.8233C47.2318 15.6477 44.4511 17.1271 41.0211 17.1271V17.1271Z" fill="#ED2B2B"/>
<path fill-rule="evenodd" clip-rule="evenodd" d="M41.0211 16.6071C37.5906 16.6071 34.8099 15.1277 34.8099 13.3033C34.8099 11.4783 37.5906 9.99947 41.0211 9.99947C44.4511 9.99947 47.2318 11.4783 47.2318 13.3033C47.2318 15.1277 44.4511 16.6071 41.0211 16.6071V16.6071Z" fill="#FF6969"/>
<path fill-rule="evenodd" clip-rule="evenodd" d="M41.0211 16.0871C37.9482 16.0871 35.4577 14.8408 35.4577 13.3033C35.4577 11.7658 37.9482 10.5195 41.0211 10.5195C44.0935 10.5195 46.5845 11.7658 46.5845 13.3033C46.5845 14.8408 44.0935 16.0871 41.0211 16.0871V16.0871Z" fill="#FF4343"/>
<path fill-rule="evenodd" clip-rule="evenodd" d="M37.2701 11.6977C39.3161 10.4697 42.0716 10.8724 42.6387 11.007C43.4363 11.1966 42.5942 11.936 41.6506 12.0056C41.2207 12.037 40.2053 12.1627 39.602 12.4267C38.8804 12.7424 38.6018 13.219 38.6254 13.4624C38.6683 13.9091 37.7728 14.7035 37.3204 14.7182C36.7894 14.7349 35.2236 12.9252 37.2701 11.6977V11.6977Z" fill="#ED2B2B"/>
<path fill-rule="evenodd" clip-rule="evenodd" d="M38.7233 15.3723C40.808 15.9818 42.9236 15.6341 44.4354 14.9204C45.9467 14.2066 46.306 13.0304 45.4246 12.2036C44.7842 11.6035 44.149 11.5516 43.7903 11.7846C42.9571 12.3256 43.6892 13.286 42.069 13.6054C41.1154 13.7929 39.846 13.6489 39.1951 13.9919C38.6217 14.2935 37.7414 15.0853 38.7233 15.3723V15.3723Z" fill="#ED2B2B"/>
<path fill-rule="evenodd" clip-rule="evenodd" d="M41.4317 11.1463C41.0882 11.1546 41.5213 11.6977 41.5213 11.6977C41.5213 11.6977 41.9538 11.1337 41.4317 11.1463V11.1463Z" fill="#FF6969"/>
<path fill-rule="evenodd" clip-rule="evenodd" d="M40.3754 11.1411C40.0083 11.1987 40.9347 11.7695 40.9347 11.7695C40.9347 11.7695 40.9347 11.0536 40.3754 11.1411V11.1411Z" fill="#FF6969"/>
<path fill-rule="evenodd" clip-rule="evenodd" d="M39.3422 11.316C38.938 11.4448 40.1089 11.838 40.1089 11.838C40.1089 11.838 39.7465 11.1871 39.3422 11.316V11.316Z" fill="#FF6969"/>
<path fill-rule="evenodd" clip-rule="evenodd" d="M38.2818 11.6113C37.7246 11.8428 39.2673 12.1549 39.2673 12.1549C39.2673 12.1549 38.8385 11.3804 38.2818 11.6113V11.6113Z" fill="#FF6969"/>
<path fill-rule="evenodd" clip-rule="evenodd" d="M37.312 12.2036C36.8967 12.4706 38.6149 12.6125 38.6149 12.6125C38.6149 12.6125 37.9351 11.8035 37.312 12.2036V12.2036Z" fill="#FF6969"/>
<path fill-rule="evenodd" clip-rule="evenodd" d="M36.902 12.9807C36.5653 13.22 37.5262 13.5556 38.2363 13.0844C38.2363 13.0844 37.2392 12.7408 36.902 12.9807V12.9807Z" fill="#FF6969"/>
<path fill-rule="evenodd" clip-rule="evenodd" d="M37.1292 13.8589C36.9653 13.9709 37.1292 14.2427 37.4586 14.1788C38.0289 14.0683 38.1603 13.6054 38.1603 13.6054C38.1603 13.6054 37.4586 13.6342 37.1292 13.8589V13.8589Z" fill="#FF6969"/>
<path fill-rule="evenodd" clip-rule="evenodd" d="M44.4726 12.0925C44.8769 12.1151 45.0706 12.3764 44.5904 12.4099C44.1102 12.4434 43.7567 12.3522 43.7567 12.3522C43.7567 12.3522 44.0683 12.07 44.4726 12.0925V12.0925Z" fill="#FF6969"/>
<path fill-rule="evenodd" clip-rule="evenodd" d="M38.9715 14.6674C38.8369 14.8952 39.359 15.1314 39.5193 14.7182C39.6795 14.3056 39.602 14.1453 39.602 14.1453C39.5695 14.1621 39.1066 14.4401 38.9715 14.6674V14.6674Z" fill="#FF6969"/>
<path fill-rule="evenodd" clip-rule="evenodd" d="M40.1681 14.7182C40.1848 15.0717 40.6435 15.1565 40.6121 14.7182C40.5807 14.2799 40.344 14.1453 40.344 14.1453C40.344 14.1453 40.1508 14.3647 40.1681 14.7182V14.7182Z" fill="#FF6969"/>
<path fill-rule="evenodd" clip-rule="evenodd" d="M41.2379 14.7182C41.3306 15.0047 41.9962 15.156 41.7265 14.6506C41.4568 14.1453 41.1369 14.0542 41.1369 14.0542C41.1369 14.0542 41.1452 14.4317 41.2379 14.7182V14.7182Z" fill="#FF6969"/>
<path fill-rule="evenodd" clip-rule="evenodd" d="M42.6277 14.7182C42.9817 15.0298 43.3525 14.7942 43.0236 14.4401C42.6953 14.0862 42.0899 13.9851 42.0899 13.9851C42.0899 13.9851 42.2737 14.4066 42.6277 14.7182V14.7182Z" fill="#FF6969"/>
<path fill-rule="evenodd" clip-rule="evenodd" d="M43.6976 14.3391C44.1186 14.5747 44.5402 14.3475 44.0348 14.0526C43.529 13.7578 42.9226 13.6709 42.9226 13.6709C42.9226 13.6709 43.2766 14.1034 43.6976 14.3391V14.3391Z" fill="#FF6969"/>
<path fill-rule="evenodd" clip-rule="evenodd" d="M44.6999 13.7494C45.1465 13.8191 45.433 13.3452 44.9276 13.2608C44.4223 13.1765 43.5373 13.1949 43.5373 13.1949C43.5373 13.1949 44.2537 13.6793 44.6999 13.7494V13.7494Z" fill="#FF6969"/>
<path fill-rule="evenodd" clip-rule="evenodd" d="M44.7842 12.6628C45.1465 12.7047 45.4581 12.9493 45.0706 12.966C44.6831 12.9828 43.8191 12.8126 43.8191 12.8126C43.8191 12.8126 44.4223 12.6204 44.7842 12.6628V12.6628Z" fill="#FF6969"/>
<path fill-rule="evenodd" clip-rule="evenodd" d="M43.5117 11.6207C43.5117 11.6207 41.8978 13.5441 41.0615 14.3904C40.2247 15.2366 34.6874 15.5708 34.6874 15.5708C34.6874 15.5708 39.4774 16.1484 40.6834 15.7179C41.8894 15.2875 44.1055 11.6972 44.1055 11.6972L43.5117 11.6207V11.6207Z" fill="white"/>
<path fill-rule="evenodd" clip-rule="evenodd" d="M41.3631 15.6236C44.0537 14.0212 44.6381 11.9999 44.6381 11.9999L44.1055 11.6972C44.1055 11.6972 42.8393 13.5845 41.3631 14.7083C39.6627 16.0033 34.6874 15.5708 34.6874 15.5708C34.6874 15.5708 38.673 17.2266 41.3631 15.6236V15.6236Z" fill="#FFEECC"/>
<path fill-rule="evenodd" clip-rule="evenodd" d="M40.7274 5.91169C40.7274 5.91169 46.6877 -2.86701 38.5091 1.82029C28.5406 7.53349 24.6236 15.0104 24.6236 15.0104L40.7274 5.91169V5.91169Z" fill="#F4B12C"/>
<path opacity="0.5" fill-rule="evenodd" clip-rule="evenodd" d="M37.6979 3.7401C41.3212 1.72447 40.3974 3.05354 39.5245 6.64485C35.8709 8.99348 26.4407 13.9835 26.4407 13.9835C26.4407 13.9835 34.0747 5.75566 37.6979 3.7401V3.7401Z" fill="#D3880F"/>
<path fill-rule="evenodd" clip-rule="evenodd" d="M33.1761 12.1675C37.4199 10.2676 46.7238 8.87831 47.1412 9.0082C48.0472 9.28993 47.9665 9.6874 47.9786 10.2373C47.9901 10.7866 45.8216 10.653 45.8216 10.653C45.8216 10.653 41.1405 11.138 37.4162 12.0491C33.6919 12.9603 27.7137 15.9462 27.7137 15.9462C27.7137 15.9462 28.9318 14.0673 33.1761 12.1675V12.1675Z" fill="#FF871A"/>
<path fill-rule="evenodd" clip-rule="evenodd" d="M36.083 11.991C40.4786 10.8263 48 9.9492 48 9.9492L47.9388 10.8049C47.9388 10.8049 42.822 11.2913 39.8738 11.7962C36.925 12.301 33.4908 13.4552 31.8664 14.0369C30.242 14.6187 27.7137 15.9462 27.7137 15.9462C27.7137 15.9462 32.0308 13.0645 36.083 11.991V11.991Z" fill="#E2660A"/>
<path fill-rule="evenodd" clip-rule="evenodd" d="M35.9322 12.9676C39.7444 11.0473 42.8995 12.7419 42.8995 12.7419L44.1055 12.0915C44.1055 12.0915 39.9853 9.8785 35.0063 12.3858C30.0278 14.8937 32.3487 18.8787 32.3487 18.8787L33.8972 17.9393C33.8972 17.9393 32.1199 14.8874 35.9322 12.9676V12.9676Z" fill="#71AA21"/>
<path fill-rule="evenodd" clip-rule="evenodd" d="M33.8972 17.9393L35.6803 16.9097C35.708 16.1986 36.073 15.322 37.4204 14.6433C38.6631 14.0175 39.8036 13.9338 40.6792 14.0238L42.8995 12.7419C42.8995 12.7419 39.7444 11.0473 35.9321 12.9676C32.1199 14.8873 33.8972 17.9393 33.8972 17.9393V17.9393Z" fill="#BED134"/>
<path fill-rule="evenodd" clip-rule="evenodd" d="M37.2837 14.5208C35.2226 15.5791 35.6803 16.9097 35.6803 16.9097C35.6803 16.9097 36.526 15.5137 37.9572 14.8544C38.7631 14.4831 40.6792 14.0239 40.6792 14.0239C40.6792 14.0239 39.2171 13.5279 37.2837 14.5208V14.5208Z" fill="#DCE842"/>
<path fill-rule="evenodd" clip-rule="evenodd" d="M31.836 10.6022C35.9332 8.40386 45.1136 6.35216 45.5393 6.45164C46.4636 6.66792 46.4112 7.07061 46.4625 7.61785C46.5138 8.16509 44.3412 8.18657 44.3412 8.18657C44.3412 8.18657 39.7067 9.00554 36.0573 10.1807C32.4079 11.3563 26.6585 14.7622 26.6585 14.7622C26.6585 14.7622 27.7389 12.8011 31.836 10.6022V10.6022Z" fill="#FF871A"/>
<path fill-rule="evenodd" clip-rule="evenodd" d="M34.7235 10.2184C39.0238 8.74214 46.4636 7.3293 46.4636 7.3293V8.18654C46.4636 8.18654 41.395 9.03856 38.4902 9.75282C35.5855 10.4671 32.2424 11.8642 30.6641 12.5607C29.0852 13.2577 26.6585 14.7622 26.6585 14.7622C26.6585 14.7622 30.7583 11.5794 34.7235 10.2184V10.2184Z" fill="#E2660A"/>
<path fill-rule="evenodd" clip-rule="evenodd" d="M29.6738 16.9715C29.6738 16.9715 30.4588 13.3588 32.985 12.4863C35.5106 11.6139 39.8696 12.0873 39.8696 12.0873L39.9623 11.4945C39.9623 11.4945 38.8662 10.785 35.8395 11.1358C32.8127 11.4872 30.4939 12.9451 30.1566 13.9238C29.8194 14.902 29.6738 16.3787 29.6738 16.3787V16.9715V16.9715Z" fill="#F7D48D"/>
<path fill-rule="evenodd" clip-rule="evenodd" d="M32.1424 11.4945C35.7635 10.0539 39.8869 10.9384 39.8869 10.9384L39.9623 11.4945C39.9623 11.4945 35.8117 10.8829 33.4054 11.9156C29.568 13.563 29.6738 16.3788 29.6738 16.3788L29.0067 16.4563C29.0067 16.4563 28.5212 12.9351 32.1424 11.4945V11.4945Z" fill="#FFEECC"/>
<path fill-rule="evenodd" clip-rule="evenodd" d="M29.0067 17.187L29.6738 16.9718V16.3787L29.0067 16.4564V17.187V17.187Z" fill="white"/>
<path fill-rule="evenodd" clip-rule="evenodd" d="M38.1111 6.88576C41.9239 4.96599 45.079 6.66057 45.079 6.66057L46.2845 6.00966C46.2845 6.00966 42.1643 3.7972 37.1858 6.30449C32.2068 8.81178 34.5282 12.7974 34.5282 12.7974L36.0767 11.8579C36.0767 11.8579 34.2988 8.80605 38.1111 6.88576V6.88576Z" fill="#71AA21"/>
<path fill-rule="evenodd" clip-rule="evenodd" d="M36.0767 11.8579L37.8598 10.8284C37.887 10.1173 38.2525 9.24013 39.5999 8.56203C40.842 7.93623 41.9831 7.85192 42.8587 7.94197L45.079 6.66057C45.079 6.66057 41.9239 4.96599 38.1111 6.88576C34.2988 8.80604 36.0767 11.8579 36.0767 11.8579V11.8579Z" fill="#BED134"/>
<path fill-rule="evenodd" clip-rule="evenodd" d="M39.4627 8.43895C37.4021 9.49779 37.8598 10.8284 37.8598 10.8284C37.8598 10.8284 38.7055 9.43181 40.1361 8.77306C40.9421 8.40178 42.8587 7.94197 42.8587 7.94197C42.8587 7.94197 41.3961 7.44609 39.4627 8.43895V8.43895Z" fill="#DCE842"/>
<path fill-rule="evenodd" clip-rule="evenodd" d="M41.538 6.84804C40.5881 6.53383 39.5853 7.28322 39.2166 8.19808C39.0229 8.67824 38.8705 9.10085 39.3203 9.46062C39.5559 9.64912 39.8209 9.65071 40.1079 9.66066C40.5844 9.67738 40.9437 9.81721 41.393 9.9518C41.8826 10.0984 42.5288 10.1267 42.8666 9.6617C43.1839 9.22548 42.9231 8.49288 42.733 8.05617C42.5005 7.52095 42.1078 7.03658 41.538 6.84804V6.84804Z" fill="#FFE3A6"/>
<path opacity="0.5" fill-rule="evenodd" clip-rule="evenodd" d="M39.8439 8.18861C39.8455 8.54051 40.1058 8.67143 40.4137 8.72746C40.8043 8.79921 41.1997 8.89452 41.4846 8.54106C41.7386 8.22582 41.3521 7.78697 41.1384 7.48375C40.8289 7.04494 39.8418 7.75084 39.8439 8.18861V8.18861Z" fill="white"/>
<path fill-rule="evenodd" clip-rule="evenodd" d="M34.0627 13.6169C33.9129 13.7478 33.3646 14.4035 33.3384 14.7585C33.3295 14.8831 33.418 15.0513 33.5359 15.1026C34.2145 15.3985 35.6232 15.2984 35.8463 14.4208C35.9505 14.0097 35.7096 13.5829 35.3567 13.3781C34.9063 13.1168 34.4256 13.3006 34.0627 13.6169V13.6169Z" fill="#FFE3A6"/>
<path fill-rule="evenodd" clip-rule="evenodd" d="M38.054 14.5114C38.893 14.6522 40.2362 14.2166 40.2325 13.1572C40.2283 12.1418 37.2377 12.0742 36.8292 12.523C36.0311 13.3981 37.2408 14.3752 38.054 14.5114V14.5114Z" fill="#FFE3A6"/>
<path opacity="0.5" fill-rule="evenodd" clip-rule="evenodd" d="M37.4471 12.8256C37.1135 13.3373 37.9064 13.7096 38.2792 13.8321C38.7626 13.9913 39.3773 13.7117 39.3286 13.1372C39.2773 12.5246 38.574 12.501 38.1148 12.6141C37.876 12.5361 37.6042 12.5847 37.4471 12.8256V12.8256Z" fill="white"/>
<path fill-rule="evenodd" clip-rule="evenodd" d="M26.9356 14.0097C26.9356 14.0097 29.6874 15.078 31.8664 14.0369C34.0454 12.9959 35.1299 11.5542 35.8709 9.79939C36.6113 8.0446 35.8709 5.81117 35.8709 5.81117L27.2225 13.6463L26.9356 14.0097V14.0097Z" fill="#ED2B2B"/>
<path fill-rule="evenodd" clip-rule="evenodd" d="M35.5111 6.10966C35.5111 6.10966 36.193 8.5955 34.8178 10.6593C33.4427 12.7225 31.4569 13.7149 30.1567 13.9238C29.0009 14.1092 27.2226 13.6463 27.2226 13.6463L35.5111 6.10966V6.10966Z" fill="#FF4343"/>
<path fill-rule="evenodd" clip-rule="evenodd" d="M28.858 13.2588C28.7778 13.7515 31.1982 13.619 32.6613 12.4046C34.1244 11.1908 34.5664 10.2335 34.9801 9.32603C35.3933 8.4185 35.3823 7.00932 34.4837 7.59636C33.8553 8.00694 33.0237 10.1089 32.2377 10.7337C31.4517 11.3584 31.2998 10.9489 30.3755 11.4516C29.8712 11.726 28.9381 12.7665 28.858 13.2588V13.2588Z" fill="#FF6969"/>
<path fill-rule="evenodd" clip-rule="evenodd" d="M30.2012 12.777C30.0807 13.1226 30.8201 12.9608 30.8997 12.4575C30.9793 11.9543 30.7238 11.7695 30.7238 11.7695C30.7238 11.7695 30.3216 12.4309 30.2012 12.777V12.777Z" fill="#ED2B2B"/>
<path fill-rule="evenodd" clip-rule="evenodd" d="M31.625 12.5C31.7659 12.6508 32.1534 12.4329 32.0492 12.0925C31.9455 11.7522 31.5679 11.5684 31.5679 11.5684C31.5679 11.5684 31.4847 12.3497 31.625 12.5V12.5Z" fill="#ED2B2B"/>
<path fill-rule="evenodd" clip-rule="evenodd" d="M32.8142 11.6558C33.0148 11.7894 33.1651 11.3013 33.0268 11.1897C32.8891 11.0782 32.4566 11.0384 32.4566 11.0384C32.4566 11.0384 32.4566 11.4186 32.8142 11.6558V11.6558Z" fill="#ED2B2B"/>
<path fill-rule="evenodd" clip-rule="evenodd" d="M33.7239 10.8284C33.8742 10.8111 34.093 10.2833 33.8166 10.2314C33.5406 10.1796 33.0818 10.2314 33.0818 10.2314C33.0818 10.2314 33.506 10.853 33.7239 10.8284V10.8284Z" fill="#ED2B2B"/>
<path fill-rule="evenodd" clip-rule="evenodd" d="M34.3491 9.32338C34.5963 9.34853 34.7984 9.70775 34.3041 9.70775C33.8097 9.70775 33.4667 9.59569 33.4667 9.59569C33.4667 9.59569 34.1019 9.29823 34.3491 9.32338V9.32338Z" fill="#ED2B2B"/>
<path fill-rule="evenodd" clip-rule="evenodd" d="M34.4737 8.41118C34.7984 8.44994 35.0393 8.69188 34.6041 8.79555C34.1695 8.89925 33.7238 8.91393 33.7238 8.91393C33.7238 8.91393 34.1485 8.37242 34.4737 8.41118V8.41118Z" fill="#ED2B2B"/>
<path fill-rule="evenodd" clip-rule="evenodd" d="M41.2913 9.45589C40.5865 10.8839 41.1431 12.0276 41.1431 12.0276C41.1431 12.0276 42.4937 11.0091 42.9047 9.86803C43.3153 8.72749 43.6546 8.04988 43.6546 8.04988C43.6546 8.04988 41.9957 8.02733 41.2913 9.45589V9.45589Z" fill="#5E8E11"/>
<path fill-rule="evenodd" clip-rule="evenodd" d="M36.9701 7.46962C36.56 8.24623 36.9931 8.76518 36.9931 8.76518C36.9931 8.76518 38.5657 8.49284 38.7762 7.67647C38.9872 6.86009 38.861 5.92534 38.861 5.92534C38.861 5.92534 37.3801 6.69304 36.9701 7.46962V7.46962Z" fill="#5E8E11"/>
<path fill-rule="evenodd" clip-rule="evenodd" d="M31.2846 14.3783C31.8664 15.1795 32.5901 16.339 32.5901 16.339C32.5901 16.339 30.9526 16.6196 30.1954 15.8525C29.4382 15.0848 28.8579 13.6442 28.8579 13.6442C28.8579 13.6442 30.7028 13.5771 31.2846 14.3783V14.3783Z" fill="#5E8E11"/>
<path fill-rule="evenodd" clip-rule="evenodd" d="M43.6903 10.3399C43.6704 11.2667 43.7793 12.0193 43.7793 12.0193C43.7793 12.0193 44.8858 11.017 45.0874 10.3399C45.2895 9.66277 44.4171 8.71385 44.4171 8.71385C44.4171 8.71385 43.7096 9.41298 43.6903 10.3399V10.3399Z" fill="#BED134"/>
<path fill-rule="evenodd" clip-rule="evenodd" d="M34.8461 25.2507C34.8461 25.2507 34.3324 27.0579 30.8804 28.677C26.7701 30.6046 21.3716 31.4698 16.723 29.4772C13.0448 27.9005 12.4473 26.95 12.4473 26.95L12.8867 26.0336L34.8461 23.3728V25.2507V25.2507Z" fill="#FFE3A6"/>
<path fill-rule="evenodd" clip-rule="evenodd" d="M12.6479 26.4525C12.6479 26.4525 15.7056 20.6314 22.8944 15.4937C28.8344 11.2489 30.2603 12.0067 30.2603 12.0067L31.1275 12.7304L13.0448 26.9646L12.6479 26.4525V26.4525Z" fill="#FFE3A6"/>
<path fill-rule="evenodd" clip-rule="evenodd" d="M29.1486 17.8665C29.1486 17.8665 40.001 22.8774 31.8224 27.5653C21.8539 33.2785 13.0448 26.9647 13.0448 26.9647L29.1486 17.8665V17.8665Z" fill="#FFC648"/>
<path fill-rule="evenodd" clip-rule="evenodd" d="M35.653 25.2244V25.8949H23.2309V25.2244H35.653V25.2244Z" fill="#ED2B2B"/>
<path fill-rule="evenodd" clip-rule="evenodd" d="M29.4418 29.0813C26.0118 29.0813 23.2312 27.602 23.2312 25.7775C23.2312 23.9525 26.0118 22.4737 29.4418 22.4737C32.8724 22.4737 35.653 23.9525 35.653 25.7775C35.653 27.602 32.8724 29.0813 29.4418 29.0813V29.0813Z" fill="#ED2B2B"/>
<path fill-rule="evenodd" clip-rule="evenodd" d="M29.4418 28.5613C26.0118 28.5613 23.2312 27.082 23.2312 25.2575C23.2312 23.433 26.0118 21.9537 29.4418 21.9537C32.8724 21.9537 35.653 23.433 35.653 25.2575C35.653 27.082 32.8724 28.5613 29.4418 28.5613V28.5613Z" fill="#FF6969"/>
<path fill-rule="evenodd" clip-rule="evenodd" d="M29.4418 28.0413C26.3695 28.0413 23.8784 26.795 23.8784 25.2575C23.8784 23.72 26.3695 22.4737 29.4418 22.4737C32.5147 22.4737 35.0053 23.72 35.0053 25.2575C35.0053 26.795 32.5147 28.0413 29.4418 28.0413V28.0413Z" fill="#FF4343"/>
<path fill-rule="evenodd" clip-rule="evenodd" d="M25.6908 23.6519C27.7373 22.4239 30.4928 22.8266 31.06 22.9617C31.8575 23.1513 31.0149 23.8902 30.0718 23.9598C29.6419 23.9918 28.626 24.1169 28.0227 24.3809C27.3011 24.6967 27.023 25.1732 27.0461 25.4167C27.0895 25.8639 26.1941 26.6583 25.7416 26.6724C25.2106 26.6892 23.6443 24.8799 25.6908 23.6519V23.6519Z" fill="#ED2B2B"/>
<path fill-rule="evenodd" clip-rule="evenodd" d="M27.1445 27.3265C29.2292 27.936 31.3448 27.5883 32.8561 26.8746C34.368 26.1608 34.7272 24.9847 33.8453 24.1583C33.2054 23.5577 32.5697 23.5059 32.211 23.7389C31.3778 24.2798 32.1104 25.2402 30.4902 25.5597C29.5366 25.7477 28.2667 25.6031 27.6158 25.9461C27.0429 26.2483 26.1627 27.0396 27.1445 27.3265V27.3265Z" fill="#ED2B2B"/>
<path fill-rule="evenodd" clip-rule="evenodd" d="M29.8524 23.1005C29.5089 23.1089 29.9425 23.6519 29.9425 23.6519C29.9425 23.6519 30.375 23.0879 29.8524 23.1005V23.1005Z" fill="#FF6969"/>
<path fill-rule="evenodd" clip-rule="evenodd" d="M28.7967 23.0953C28.4296 23.1529 29.3554 23.7242 29.3554 23.7242C29.3554 23.7242 29.3554 23.0078 28.7967 23.0953V23.0953Z" fill="#FF6969"/>
<path fill-rule="evenodd" clip-rule="evenodd" d="M27.7635 23.2702C27.3587 23.399 28.5301 23.7923 28.5301 23.7923C28.5301 23.7923 28.1678 23.1414 27.7635 23.2702V23.2702Z" fill="#FF6969"/>
<path fill-rule="evenodd" clip-rule="evenodd" d="M26.7025 23.5661C26.1459 23.797 27.6881 24.1091 27.6881 24.1091C27.6881 24.1091 27.2592 23.3346 26.7025 23.5661V23.5661Z" fill="#FF6969"/>
<path fill-rule="evenodd" clip-rule="evenodd" d="M25.7327 24.1583C25.3175 24.4249 27.0361 24.5668 27.0361 24.5668C27.0361 24.5668 26.3564 23.7577 25.7327 24.1583V24.1583Z" fill="#FF6969"/>
<path fill-rule="evenodd" clip-rule="evenodd" d="M25.3232 24.9349C24.986 25.1748 25.9474 25.5099 26.657 25.0392C26.657 25.0392 25.66 24.6956 25.3232 24.9349V24.9349Z" fill="#FF6969"/>
<path fill-rule="evenodd" clip-rule="evenodd" d="M25.5505 25.8131C25.3866 25.9252 25.5505 26.197 25.8799 26.1336C26.4502 26.0231 26.5816 25.5597 26.5816 25.5597C26.5816 25.5597 25.8799 25.5884 25.5505 25.8131V25.8131Z" fill="#FF6969"/>
<path fill-rule="evenodd" clip-rule="evenodd" d="M32.8938 24.0468C33.2981 24.0693 33.4919 24.3306 33.0117 24.3641C32.5315 24.3982 32.1775 24.3065 32.1775 24.3065C32.1775 24.3065 32.489 24.0243 32.8938 24.0468V24.0468Z" fill="#FF6969"/>
<path fill-rule="evenodd" clip-rule="evenodd" d="M27.3927 26.6222C27.2576 26.8495 27.7803 27.0856 27.94 26.6725C28.1002 26.2598 28.0227 26.0995 28.0227 26.0995C27.9908 26.1163 27.5273 26.3944 27.3927 26.6222V26.6222Z" fill="#FF6969"/>
<path fill-rule="evenodd" clip-rule="evenodd" d="M28.5888 26.6725C28.6056 27.0264 29.0643 27.1107 29.0329 26.6725C29.0014 26.2346 28.7648 26.0995 28.7648 26.0995C28.7648 26.0995 28.572 26.319 28.5888 26.6725V26.6725Z" fill="#FF6969"/>
<path fill-rule="evenodd" clip-rule="evenodd" d="M29.6587 26.6725C29.7513 26.9589 30.4169 27.1107 30.1472 26.6054C29.8775 26.0995 29.5576 26.0084 29.5576 26.0084C29.5576 26.0084 29.566 26.3865 29.6587 26.6725V26.6725Z" fill="#FF6969"/>
<path fill-rule="evenodd" clip-rule="evenodd" d="M31.049 26.6725C31.4024 26.984 31.7732 26.7484 31.4449 26.3944C31.116 26.0409 30.5112 25.9398 30.5112 25.9398C30.5112 25.9398 30.695 26.3609 31.049 26.6725V26.6725Z" fill="#FF6969"/>
<path fill-rule="evenodd" clip-rule="evenodd" d="M32.1188 26.2933C32.5399 26.5295 32.9609 26.3017 32.4556 26.0069C31.9502 25.7121 31.3433 25.6251 31.3433 25.6251C31.3433 25.6251 31.6973 26.0577 32.1188 26.2933V26.2933Z" fill="#FF6969"/>
<path fill-rule="evenodd" clip-rule="evenodd" d="M33.1211 25.7036C33.5678 25.7738 33.8543 25.2994 33.3484 25.2151C32.8431 25.1308 31.9586 25.1496 31.9586 25.1496C31.9586 25.1496 32.6744 25.634 33.1211 25.7036V25.7036Z" fill="#FF6969"/>
<path fill-rule="evenodd" clip-rule="evenodd" d="M33.2054 24.6171C33.5678 24.6589 33.8794 24.9035 33.4919 24.9203C33.1043 24.937 32.2398 24.7668 32.2398 24.7668C32.2398 24.7668 32.843 24.5752 33.2054 24.6171V24.6171Z" fill="#FF6969"/>
<path fill-rule="evenodd" clip-rule="evenodd" d="M31.9324 23.5755C31.9324 23.5755 30.3185 25.4989 29.4822 26.3447C28.6459 27.1909 23.1081 27.5255 23.1081 27.5255C23.1081 27.5255 27.8981 28.1026 29.1041 27.6721C30.3101 27.2417 32.5262 23.6514 32.5262 23.6514L31.9324 23.5755V23.5755Z" fill="white"/>
<path fill-rule="evenodd" clip-rule="evenodd" d="M29.7843 27.5784C32.4749 25.9754 33.0588 23.9546 33.0588 23.9546L32.5262 23.6514C32.5262 23.6514 31.26 25.5387 29.7843 26.6625C28.0835 27.9575 23.1081 27.5255 23.1081 27.5255C23.1081 27.5255 27.0937 29.1808 29.7843 27.5784V27.5784Z" fill="#FFEECC"/>
<path fill-rule="evenodd" clip-rule="evenodd" d="M29.1486 17.8665C29.1486 17.8665 35.109 9.08722 26.9298 13.7751C16.9619 19.4883 13.0448 26.9647 13.0448 26.9647L29.1486 17.8665V17.8665Z" fill="#F4B12C"/>
<path opacity="0.5" fill-rule="evenodd" clip-rule="evenodd" d="M26.1192 15.6943C29.7424 13.6787 28.8181 15.0078 27.9452 18.5996C24.2916 20.9478 14.8619 25.9383 14.8619 25.9383C14.8619 25.9383 22.4959 17.7099 26.1192 15.6943V15.6943Z" fill="#D3880F"/>
<path fill-rule="evenodd" clip-rule="evenodd" d="M21.5968 24.1217C25.8406 22.2218 35.1446 20.8331 35.5619 20.9629C36.4684 21.2446 36.3878 21.6421 36.3993 22.1914C36.4113 22.7408 34.2428 22.6072 34.2428 22.6072C34.2428 22.6072 29.5612 23.0921 25.8375 24.0033C22.1131 24.9145 16.1345 27.9004 16.1345 27.9004C16.1345 27.9004 17.353 26.0215 21.5968 24.1217V24.1217Z" fill="#FF871A"/>
<path fill-rule="evenodd" clip-rule="evenodd" d="M24.5042 23.9452C28.8993 22.7805 36.4207 21.9039 36.4207 21.9039L36.3595 22.7591C36.3595 22.7591 31.2433 23.2461 28.2945 23.7504C25.3463 24.2552 21.9115 25.4094 20.2876 25.9912C18.6632 26.5734 16.1345 27.9004 16.1345 27.9004C16.1345 27.9004 20.4521 25.0187 24.5042 23.9452V23.9452Z" fill="#E2660A"/>
<path fill-rule="evenodd" clip-rule="evenodd" d="M24.3534 24.9218C28.1657 23.0021 31.3207 24.6961 31.3207 24.6961L32.5262 24.0457C32.5262 24.0457 28.406 21.8327 23.4275 24.3406C18.4485 26.8479 20.7699 30.8335 20.7699 30.8335L22.3184 29.8941C22.3184 29.8941 20.5406 26.8421 24.3534 24.9218V24.9218Z" fill="#71AA21"/>
<path fill-rule="evenodd" clip-rule="evenodd" d="M22.3184 29.894L24.1015 28.8645C24.1287 28.1534 24.4943 27.2762 25.8417 26.5976C27.0838 25.9723 28.2249 25.888 29.1004 25.9781L31.3208 24.6961C31.3208 24.6961 28.1657 23.0021 24.3534 24.9218C20.5406 26.8421 22.3184 29.894 22.3184 29.894V29.894Z" fill="#BED134"/>
<path fill-rule="evenodd" clip-rule="evenodd" d="M25.705 26.475C23.6438 27.5334 24.1015 28.8645 24.1015 28.8645C24.1015 28.8645 24.9472 27.4679 26.3779 26.8086C27.1838 26.4379 29.1004 25.9781 29.1004 25.9781C29.1004 25.9781 27.6378 25.4821 25.705 26.475V26.475Z" fill="#DCE842"/>
<path fill-rule="evenodd" clip-rule="evenodd" d="M20.2573 22.5569C24.3539 20.3581 33.5348 18.3069 33.9605 18.4064C34.8843 18.6226 34.8325 19.0248 34.8838 19.5721C34.9345 20.1193 32.7624 20.1407 32.7624 20.1407C32.7624 20.1407 28.1274 20.9598 24.478 22.1354C20.8286 23.3105 15.0793 26.7164 15.0793 26.7164C15.0793 26.7164 16.1601 24.7558 20.2573 22.5569V22.5569Z" fill="#FF871A"/>
<path fill-rule="evenodd" clip-rule="evenodd" d="M23.1442 22.1726C27.4451 20.6964 34.8843 19.2835 34.8843 19.2835V20.1408C34.8843 20.1408 29.8163 20.9928 26.911 21.7071C24.0062 22.4219 20.6631 23.8185 19.0848 24.5155C17.5065 25.2119 15.0793 26.7164 15.0793 26.7164C15.0793 26.7164 19.1796 23.5336 23.1442 22.1726V22.1726Z" fill="#E2660A"/>
<path fill-rule="evenodd" clip-rule="evenodd" d="M18.0945 28.9263C18.0945 28.9263 18.88 25.313 21.4056 24.4406C23.9318 23.5682 28.2908 24.0416 28.2908 24.0416L28.383 23.4488C28.383 23.4488 27.2875 22.7392 24.2601 23.0906C21.2334 23.4415 18.9146 24.8998 18.5773 25.878C18.2401 26.8568 18.0945 28.333 18.0945 28.333V28.9263V28.9263Z" fill="#F7D48D"/>
<path fill-rule="evenodd" clip-rule="evenodd" d="M20.5636 23.4488C24.1848 22.0082 28.3081 22.8926 28.3081 22.8926L28.383 23.4488C28.383 23.4488 24.2324 22.8371 21.8262 23.8703C17.9893 25.5172 18.0945 28.333 18.0945 28.333L17.4279 28.411C17.4279 28.411 16.9425 24.8899 20.5636 23.4488V23.4488Z" fill="#FFEECC"/>
<path fill-rule="evenodd" clip-rule="evenodd" d="M17.4277 29.1414L18.0947 28.9261V28.3331L17.4277 28.4109V29.1414V29.1414Z" fill="white"/>
<path fill-rule="evenodd" clip-rule="evenodd" d="M26.5324 18.8405C30.3447 16.9202 33.4997 18.6148 33.4997 18.6148L34.7057 17.9639C34.7057 17.9639 30.5855 15.7514 25.6065 18.2587C20.628 20.766 22.9489 24.7516 22.9489 24.7516L24.4974 23.8122C24.4974 23.8122 22.7201 20.7602 26.5324 18.8405V18.8405Z" fill="#71AA21"/>
<path fill-rule="evenodd" clip-rule="evenodd" d="M24.4974 23.8121L26.2805 22.7826C26.3082 22.0715 26.6732 21.1949 28.0206 20.5162C29.2627 19.8904 30.4038 19.8061 31.2794 19.8967L33.4997 18.6148C33.4997 18.6148 30.3446 16.9202 26.5323 18.8405C22.7201 20.7602 24.4974 23.8121 24.4974 23.8121V23.8121Z" fill="#BED134"/>
<path fill-rule="evenodd" clip-rule="evenodd" d="M27.8839 20.3937C25.8228 21.452 26.2805 22.7827 26.2805 22.7827C26.2805 22.7827 27.1262 21.3866 28.5568 20.7273C29.3633 20.356 31.2794 19.8967 31.2794 19.8967C31.2794 19.8967 29.8173 19.4008 27.8839 20.3937V20.3937Z" fill="#DCE842"/>
<path fill-rule="evenodd" clip-rule="evenodd" d="M29.9587 18.8023C29.0088 18.4881 28.0065 19.238 27.6373 20.1528C27.4436 20.633 27.2912 21.0551 27.7415 21.4154C27.9767 21.6034 28.2422 21.6049 28.5291 21.6154C29.0051 21.6322 29.3649 21.7715 29.8142 21.9066C30.3033 22.0532 30.9495 22.0815 31.2878 21.6165C31.6046 21.1797 31.3443 20.4471 31.1543 20.0104C30.9212 19.4752 30.529 18.9908 29.9587 18.8023V18.8023Z" fill="#FFE3A6"/>
<path opacity="0.5" fill-rule="evenodd" clip-rule="evenodd" d="M28.2646 20.1429C28.2662 20.4948 28.5265 20.6257 28.8349 20.6822C29.2251 20.7534 29.6209 20.8488 29.9058 20.4953C30.1598 20.1806 29.7728 19.7412 29.5597 19.4385C29.2497 18.9992 28.2631 19.7056 28.2646 20.1429V20.1429Z" fill="white"/>
<path fill-rule="evenodd" clip-rule="evenodd" d="M22.4839 25.5712C22.3336 25.7021 21.7853 26.3577 21.7597 26.7127C21.7503 26.8374 21.8393 27.0055 21.9566 27.0568C22.6358 27.3527 24.0444 27.2526 24.267 26.375C24.3717 25.9644 24.1303 25.5377 23.7779 25.3329C23.3275 25.071 22.8468 25.2549 22.4839 25.5712V25.5712Z" fill="#FFE3A6"/>
<path fill-rule="evenodd" clip-rule="evenodd" d="M26.4748 26.4661C27.3137 26.6064 28.6574 26.1713 28.6532 25.1119C28.6495 24.096 25.6584 24.029 25.2499 24.4772C24.4524 25.3528 25.6615 26.3294 26.4748 26.4661V26.4661Z" fill="#FFE3A6"/>
<path opacity="0.5" fill-rule="evenodd" clip-rule="evenodd" d="M25.8678 24.7805C25.5348 25.2921 26.3276 25.6639 26.7005 25.7864C27.1838 25.9456 27.7981 25.6665 27.7499 25.0915C27.698 24.4788 26.9947 24.4557 26.5355 24.5684C26.2972 24.4904 26.0254 24.539 25.8678 24.7805V24.7805Z" fill="white"/>
<path fill-rule="evenodd" clip-rule="evenodd" d="M15.3568 25.9644C15.3568 25.9644 18.1082 27.0322 20.2876 25.9911C22.4666 24.9506 23.5511 23.5085 24.2916 21.7536C25.0326 19.9988 24.2916 17.7654 24.2916 17.7654L15.6433 25.6005L15.3568 25.9644V25.9644Z" fill="#ED2B2B"/>
<path fill-rule="evenodd" clip-rule="evenodd" d="M23.9318 18.0644C23.9318 18.0644 24.6142 20.5497 23.239 22.6135C21.8639 24.6773 19.8776 25.6696 18.5773 25.8781C17.4221 26.0634 15.6432 25.6005 15.6432 25.6005L23.9318 18.0644V18.0644Z" fill="#FF4343"/>
<path fill-rule="evenodd" clip-rule="evenodd" d="M17.2792 25.2135C17.1991 25.7057 19.6195 25.5733 21.0826 24.3589C22.5457 23.145 22.9871 22.1883 23.4008 21.2803C23.8145 20.3727 23.803 18.9636 22.9049 19.5506C22.276 19.9617 21.4444 22.0637 20.6584 22.6879C19.8724 23.3126 19.7205 22.9031 18.7968 23.4058C18.2925 23.6802 17.3588 24.7208 17.2792 25.2135V25.2135Z" fill="#FF6969"/>
<path fill-rule="evenodd" clip-rule="evenodd" d="M18.6219 24.7312C18.5019 25.0768 19.2414 24.915 19.3209 24.4118C19.4005 23.9086 19.145 23.7242 19.145 23.7242C19.145 23.7242 18.7423 24.3856 18.6219 24.7312V24.7312Z" fill="#ED2B2B"/>
<path fill-rule="evenodd" clip-rule="evenodd" d="M20.0462 24.4547C20.1866 24.605 20.5741 24.3872 20.4704 24.0468C20.3662 23.7064 19.9886 23.5226 19.9886 23.5226C19.9886 23.5226 19.9059 24.3039 20.0462 24.4547V24.4547Z" fill="#ED2B2B"/>
<path fill-rule="evenodd" clip-rule="evenodd" d="M21.235 23.6101C21.4355 23.7436 21.5863 23.2555 21.4481 23.144C21.3098 23.0324 20.8773 22.9926 20.8773 22.9926C20.8773 22.9926 20.8773 23.3728 21.235 23.6101V23.6101Z" fill="#ED2B2B"/>
<path fill-rule="evenodd" clip-rule="evenodd" d="M22.1451 22.7827C22.2949 22.7654 22.5138 22.2375 22.2378 22.1857C21.9613 22.1339 21.5031 22.1857 21.5031 22.1857C21.5031 22.1857 21.9273 22.8073 22.1451 22.7827V22.7827Z" fill="#ED2B2B"/>
<path fill-rule="evenodd" clip-rule="evenodd" d="M22.7704 21.2776C23.017 21.3028 23.2197 21.662 22.7253 21.662C22.231 21.662 21.8875 21.5499 21.8875 21.5499C21.8875 21.5499 22.5232 21.2525 22.7704 21.2776V21.2776Z" fill="#ED2B2B"/>
<path fill-rule="evenodd" clip-rule="evenodd" d="M22.8944 20.3654C23.2196 20.4041 23.4605 20.6461 23.0254 20.7497C22.5902 20.8534 22.1451 20.8681 22.1451 20.8681C22.1451 20.8681 22.5698 20.3271 22.8944 20.3654V20.3654Z" fill="#ED2B2B"/>
<path fill-rule="evenodd" clip-rule="evenodd" d="M29.7121 21.4102C29.0077 22.8387 29.5639 23.9819 29.5639 23.9819C29.5639 23.9819 30.9149 22.9633 31.3255 21.8228C31.736 20.6817 32.0759 20.0046 32.0759 20.0046C32.0759 20.0046 30.4169 19.9816 29.7121 21.4102V21.4102Z" fill="#5E8E11"/>
<path fill-rule="evenodd" clip-rule="evenodd" d="M25.3908 19.4238C24.9807 20.201 25.4143 20.7199 25.4143 20.7199C25.4143 20.7199 26.9864 20.4476 27.1974 19.6307C27.4085 18.8143 27.2817 17.8796 27.2817 17.8796C27.2817 17.8796 25.8008 18.6473 25.3908 19.4238V19.4238Z" fill="#5E8E11"/>
<path fill-rule="evenodd" clip-rule="evenodd" d="M19.7059 26.3331C20.2877 27.1343 21.0108 28.2937 21.0108 28.2937C21.0108 28.2937 19.3733 28.5744 18.6161 27.8067C17.8594 27.039 17.2792 25.5984 17.2792 25.5984C17.2792 25.5984 19.1236 25.5314 19.7059 26.3331V26.3331Z" fill="#5E8E11"/>
<path fill-rule="evenodd" clip-rule="evenodd" d="M32.111 22.2941C32.0916 23.2215 32.2005 23.9735 32.2005 23.9735C32.2005 23.9735 33.307 22.9712 33.5087 22.2941C33.7103 21.6175 32.8378 20.6681 32.8378 20.6681C32.8378 20.6681 32.1309 21.3672 32.111 22.2941V22.2941Z" fill="#BED134"/>
<path fill-rule="evenodd" clip-rule="evenodd" d="M10.8674 21.0205C11.8896 21.1169 13.0448 21.5667 13.0448 21.5667C13.0448 21.5667 12.1672 22.8832 10.6354 22.7188C9.10424 22.5549 7.38452 21.815 7.38452 21.815C7.38452 21.815 9.8447 20.9242 10.8674 21.0205V21.0205Z" fill="#BED134"/>
<path fill-rule="evenodd" clip-rule="evenodd" d="M9.82061 24.7312C10.0028 26.0592 10.5438 27.1239 10.5438 27.1239C10.5438 27.1239 12.0195 25.955 11.8791 24.2662C11.7388 22.5769 11.046 21.8149 11.046 21.8149C11.046 21.8149 9.6389 23.4032 9.82061 24.7312V24.7312Z" fill="#BED134"/>
<path fill-rule="evenodd" clip-rule="evenodd" d="M40.3707 21.7527C41.7228 21.8359 43.1509 20.8514 43.1509 20.8514C43.1509 20.8514 40.7383 18.863 38.4002 19.8554C38.4002 19.8554 39.0186 21.6699 40.3707 21.7527V21.7527Z" fill="#BED134"/>
</svg>
